<?xml version="1.0" standalone="no"?>
<!DOCTYPE svg PUBLIC "-//W3C//DTD SVG 1.1//EN" "http://www.w3.org/Graphics/SVG/1.1/DTD/svg11.dtd" >
<svg xmlns="http://www.w3.org/2000/svg" xmlns:xlink="http://www.w3.org/1999/xlink" version="1.1">
<metadata>
Created by FontForge 20170731 at Mon Aug 10 13:00:51 2020
 By Aleksey,,,
Alternate R
</metadata>
<defs>
<font id="MazzardSoftH-Bold" horiz-adv-x="1243" >
  <font-face 
    font-family="Mazzard Soft H"
    font-weight="700"
    font-stretch="normal"
    units-per-em="2048"
    panose-1="0 0 0 0 0 0 0 0 0 0"
    ascent="1638"
    descent="-410"
    x-height="1065"
    cap-height="1434"
    bbox="-173.44 -541 2529 2050"
    underline-thickness="102"
    underline-position="-460"
    unicode-range="U+000D-FB04"
  />
<missing-glyph horiz-adv-x="745" 
d="M68 0v1364h542v-1364h-542zM135 68h408v1228h-408v-1228z" />
    <glyph glyph-name="f_f" unicode="ff" horiz-adv-x="1376" 
d="M100 805q-35 0 -59 24q-25 25 -25 60v92q0 34 25 59t59 25h70v119q0 152 114 252q113 100 281 100h62q33 0 58 -25q24 -24 24 -59v-123q0 -35 -23 -56q-24 -22 -55 -22h-39q-49 0 -82 -30t-33 -78v-78h342v119q0 158 117 255q116 97 278 97h62q34 0 59 -25t25 -59v-123
q0 -32 -23 -55t-57 -23h-39q-49 0 -82 -30t-33 -78v-78h150q33 0 58 -25q24 -24 24 -59v-92q0 -36 -24 -60t-58 -24h-150v-705q0 -43 -28 -71q-29 -29 -72 -29h-106q-43 0 -72 29t-29 71v705h-342v-705q0 -43 -28 -71q-29 -29 -74 -29h-105q-42 0 -71 29t-29 71v705h-70z
" />
    <glyph glyph-name="fi" unicode="fi" horiz-adv-x="1204" 
d="M100 805q-35 0 -59 24q-25 25 -25 60v92q0 34 25 59t59 25h70v119q0 152 114 252q113 100 281 100h62q33 0 58 -25q24 -24 24 -59v-123q0 -35 -23 -56q-24 -22 -55 -22h-39q-49 0 -82 -30t-33 -78v-78h150q33 0 58 -25q24 -24 24 -59v-92q0 -36 -24 -60t-58 -24h-150
v-705q0 -43 -28 -71q-29 -29 -74 -29h-105q-42 0 -71 29t-29 71v705h-70zM913 0q-42 0 -71 29t-29 71v865q0 42 29 71t71 29h105q43 0 72 -29q28 -28 28 -71v-865q0 -43 -28 -71q-29 -29 -72 -29h-105zM780 1329q0 78 54 132q52 52 131 52q81 0 133 -52q53 -53 53 -132
t-53 -132q-52 -52 -133 -52q-79 0 -131 52q-54 54 -54 132z" />
    <glyph glyph-name="fl" unicode="fl" horiz-adv-x="1204" 
d="M100 805q-35 0 -59 24q-25 25 -25 60v92q0 34 25 59t59 25h70v119q0 152 114 252q113 100 281 100h62q33 0 58 -25q24 -24 24 -59v-123q0 -35 -23 -56q-24 -22 -55 -22h-39q-49 0 -82 -30t-33 -78v-78h150q33 0 58 -25q24 -24 24 -59v-92q0 -36 -24 -60t-58 -24h-150
v-705q0 -43 -28 -71q-29 -29 -74 -29h-105q-42 0 -71 29t-29 71v705h-70zM913 0q-42 0 -71 29t-29 71v1336q0 42 29 71t71 29h105q43 0 72 -29q28 -28 28 -71v-1336q0 -43 -28 -71q-29 -29 -72 -29h-105z" />
    <glyph glyph-name="f_f_i" unicode="ffi" horiz-adv-x="1853" 
d="M100 805q-35 0 -59 24q-25 25 -25 60v92q0 34 25 59t59 25h70v119q0 152 114 252q113 100 281 100h62q33 0 58 -25q24 -24 24 -59v-123q0 -35 -23 -56q-24 -22 -55 -22h-39q-49 0 -82 -30t-33 -78v-78h342v119q0 158 117 255q116 97 278 97h62q34 0 59 -25t25 -59v-123
q0 -32 -23 -55t-57 -23h-39q-49 0 -82 -30t-33 -78v-78h541q43 0 72 -29q28 -28 28 -71v-865q0 -43 -28 -71q-29 -29 -72 -29h-104q-43 0 -72 29t-29 71v705h-336v-705q0 -43 -28 -71q-29 -29 -72 -29h-106q-43 0 -72 29t-29 71v705h-342v-705q0 -43 -28 -71
q-29 -29 -74 -29h-105q-42 0 -71 29t-29 71v705h-70zM1430 1329q0 79 53 132q52 52 133 52q79 0 131 -52q53 -53 53 -132t-53 -132q-52 -52 -131 -52q-81 0 -133 52q-53 53 -53 132z" />
    <glyph glyph-name="f_f_l" unicode="ffl" horiz-adv-x="1853" 
d="M100 805q-35 0 -59 24q-25 25 -25 60v92q0 34 25 59t59 25h70v119q0 152 114 252q113 100 281 100h62q33 0 58 -25q24 -24 24 -59v-123q0 -35 -23 -56q-24 -22 -55 -22h-39q-49 0 -82 -30t-33 -78v-78h342v119q0 158 117 255q116 97 278 97h62q34 0 59 -25t25 -59v-123
q0 -32 -23 -55t-57 -23h-39q-49 0 -82 -30t-33 -78v-78h150q33 0 58 -25q24 -24 24 -59v-92q0 -36 -24 -60t-58 -24h-150v-705q0 -43 -28 -71q-29 -29 -72 -29h-106q-43 0 -72 29t-29 71v705h-342v-705q0 -43 -28 -71q-29 -29 -74 -29h-105q-42 0 -71 29t-29 71v705h-70z
M1462 1436q0 42 29 71t72 29h104q43 0 72 -29q28 -28 28 -71v-1336q0 -43 -28 -71q-29 -29 -72 -29h-104q-43 0 -72 29t-29 71v1336z" />
    <glyph glyph-name=".notdef" horiz-adv-x="745" 
d="M68 0v1364h542v-1364h-542zM135 68h408v1228h-408v-1228z" />
    <glyph glyph-name="uni0000" horiz-adv-x="0" 
 />
    <glyph glyph-name="uni0000" horiz-adv-x="0" 
 />
    <glyph glyph-name="uni000D" unicode="&#xd;" horiz-adv-x="512" 
 />
    <glyph glyph-name="space" unicode=" " horiz-adv-x="501" 
 />
    <glyph glyph-name="exclam" unicode="!" horiz-adv-x="518" 
d="M84 147q0 76 49 125q50 50 125 50q74 0 124 -50t50 -125q0 -74 -50 -124t-124 -50q-75 0 -125 50q-49 49 -49 124zM129 549l-29 784q-1 43 26 72t71 29h122q46 0 73 -29t26 -72l-29 -784q-1 -33 -27 -59q-23 -23 -59 -23h-88q-36 0 -59 23q-26 26 -27 59z" />
    <glyph glyph-name="quotedbl" unicode="&#x22;" horiz-adv-x="827" 
d="M547 1434h104q34 0 59 -25q23 -23 21 -59l-18 -379q-1 -27 -23 -49q-21 -21 -49 -21h-84q-28 0 -49 21q-22 22 -23 49l-18 379q-2 36 21 59q25 25 59 25zM178 1434h103q33 0 58 -25q23 -23 21 -59l-16 -379q-2 -29 -22 -49q-21 -21 -52 -21h-82q-28 0 -49 21
q-21 20 -22 49l-19 379q-2 35 22 59q25 25 58 25z" />
    <glyph glyph-name="numbersign" unicode="#" horiz-adv-x="1435" 
d="M33 412v90q0 31 21 52t52 21h224l51 283h-184q-31 0 -53 22q-21 21 -21 52v90q0 30 21 51t53 21h225l47 268q4 29 29 51q24 21 55 21h94q30 0 48 -21t12 -51l-48 -268h250l47 268q4 29 29 51q24 21 55 21h95q30 0 48 -21q17 -20 11 -51l-47 -268h182q32 0 53 -21t21 -51
v-90q0 -31 -21 -52q-22 -22 -53 -22h-223l-49 -283h182q31 0 52 -21q22 -22 22 -52v-90q0 -30 -22 -52q-20 -20 -52 -20h-223l-47 -268q-6 -30 -31 -52q-23 -20 -55 -20h-95q-31 0 -48 20t-11 52l47 268h-248l-47 -268q-6 -31 -30 -52q-23 -20 -56 -20h-94q-31 0 -48 20
t-11 52l47 268h-183q-32 0 -52 20q-21 21 -21 52zM569 575h248l51 283h-250z" />
    <glyph glyph-name="dollar" unicode="$" horiz-adv-x="1234" 
d="M98 246q-21 37 -3 71q18 35 63 45l178 44q6 2 14 2q35 0 58 -35q68 -101 227 -101q88 0 149 37q62 38 62 94q0 40 -36 70q-37 31 -77 47q-33 13 -102 37q-15 5 -21 6l-107 34q-47 16 -101 37q-59 23 -98 47q-29 18 -79 56q-44 33 -67 74q-21 36 -40 92q-18 53 -18 117
q0 176 111 293t293 141v162q0 29 19 49q19 21 48 21h70q28 0 49 -21t21 -49v-166q123 -21 216 -82q95 -62 144 -149q23 -38 5 -73q-18 -36 -62 -46l-174 -39q-6 -2 -15 -2q-31 0 -61 33q-55 69 -166 69q-74 0 -123 -33t-49 -84q0 -31 16 -53q17 -23 67 -44q47 -20 83 -33
q1 -1 121 -37q28 -10 47 -15q71 -23 109 -37q48 -18 107 -52q61 -35 101 -78q41 -45 67 -110q27 -69 27 -153q0 -187 -119 -307q-119 -121 -321 -145v-162q0 -29 -20 -49q-21 -21 -49 -21h-70q-28 0 -49 21t-21 49v164q-146 21 -256 91q-111 70 -168 173z" />
    <glyph glyph-name="percent" unicode="%" horiz-adv-x="1769" 
d="M303 180l1012 1206q18 23 47 23q26 0 41 -14l67 -56q22 -17 23 -42q2 -26 -16 -46l-1014 -1204q-18 -22 -47 -22q-20 0 -41 14l-64 53q-47 38 -8 88zM53 1083q0 161 108 269t267 108q160 0 266 -108q107 -109 107 -269q0 -161 -107 -270q-106 -108 -266 -108
q-159 0 -267 108t-108 270zM299 1083q0 -52 38 -90q37 -37 91 -37q53 0 90 37t37 90q0 54 -37 91q-36 36 -90 36q-55 0 -91 -36q-38 -38 -38 -91zM967 350q0 164 107 271q108 108 267 108q161 0 267 -108q106 -107 106 -271q0 -162 -106 -269q-106 -108 -267 -108
q-159 0 -267 108q-107 107 -107 269zM1214 350q0 -53 37 -90t90 -37q54 0 91 37q36 36 36 90t-36 90q-37 37 -91 37q-53 0 -90 -37t-37 -90z" />
    <glyph glyph-name="ampersand" unicode="&#x26;" horiz-adv-x="1454" 
d="M68 426q0 219 235 375q-96 150 -96 289q0 160 109 265q110 105 278 105t282 -105q113 -104 113 -263q0 -122 -67 -207q-69 -87 -185 -160l209 -215q33 73 45 152q7 44 38 72t71 28h92q43 0 71 -31t23 -72q-21 -205 -127 -368l211 -217q31 -31 22 -52q-9 -22 -53 -22h-225
q-72 0 -125 53l-31 31q-166 -111 -366 -111q-226 0 -375 130t-149 323zM504 555q-3 1 -10 10q-4 5 -9 10q-110 -76 -110 -155q0 -69 62 -115q64 -47 161 -47q79 0 156 37zM553 938q75 40 113 75q39 36 39 77q0 36 -31 61t-76 25q-46 0 -73 -27t-27 -70q0 -58 55 -141z" />
    <glyph glyph-name="quotesingle" unicode="'" horiz-adv-x="458" 
d="M117 971l-19 379q-2 35 22 59q25 25 58 25h103q33 0 58 -25q23 -23 21 -59l-16 -379q-2 -29 -22 -49q-21 -21 -52 -21h-82q-28 0 -49 21q-21 20 -22 49z" />
    <glyph glyph-name="parenleft" unicode="(" horiz-adv-x="657" 
d="M315 1577q11 25 47 44q33 17 74 17h125q31 0 40 -17q9 -19 -5 -46q-55 -87 -103 -196q-50 -112 -98 -314q-49 -205 -49 -424q0 -313 79 -550q80 -240 171 -386q14 -27 5 -46q-9 -17 -40 -17h-125q-84 0 -121 61q-247 371 -247 938q0 565 247 936z" />
    <glyph glyph-name="parenright" unicode=")" horiz-adv-x="657" 
d="M96 1638h127q39 0 72 -17q35 -18 49 -44q248 -382 248 -936q0 -556 -248 -938q-15 -26 -50 -44q-34 -17 -71 -17h-127q-66 0 -33 63q250 409 250 936q0 525 -250 934q-33 63 33 63z" />
    <glyph glyph-name="asterisk" unicode="*" horiz-adv-x="966" 
d="M184 819l-55 94q-14 23 -6 49q7 22 37 33l174 62l-174 59q-30 11 -37 34q-8 25 6 50l55 90q17 31 47 31q19 0 39 -16l140 -121l-35 182q-6 29 10 48q17 20 45 20h107q30 0 47 -20q16 -19 10 -48l-35 -182l139 121q20 16 39 16q28 0 47 -31l54 -90q16 -26 7 -50
q-9 -23 -38 -34l-176 -59l176 -62q29 -8 38 -32q10 -26 -7 -50l-54 -94q-19 -31 -47 -31q-17 0 -39 17l-139 121l35 -183q6 -29 -10 -48t-47 -19h-107q-29 0 -45 20t-10 49l35 181l-140 -121q-22 -17 -39 -17q-30 0 -47 31z" />
    <glyph glyph-name="plus" unicode="+" horiz-adv-x="1228" 
d="M113 752q0 36 24 62t62 26h280v276q0 36 25 63q24 25 61 25h101q37 0 61 -25q25 -27 25 -63v-276h278q38 0 62 -26t24 -62v-99q0 -39 -24 -63q-25 -25 -62 -25h-278v-278q0 -36 -25 -63q-24 -25 -61 -25h-101q-37 0 -61 25q-25 27 -25 63v278h-280q-37 0 -62 25
q-24 24 -24 63v99z" />
    <glyph glyph-name="comma" unicode="," horiz-adv-x="477" 
d="M203 -254q-11 -8 -29 -8q-25 0 -39 14l-29 29q-28 30 0 63q89 95 89 133q-60 11 -99 60q-39 50 -39 113q0 72 48 118q49 47 122 47q85 0 137 -63q52 -62 52 -160q0 -196 -213 -346z" />
    <glyph glyph-name="hyphen" unicode="-" horiz-adv-x="819" 
d="M199 670h422q36 0 61 -25t25 -61v-101q0 -36 -25 -61t-61 -25h-422q-37 0 -62 25q-24 24 -24 61v101q0 37 24 61q25 25 62 25z" />
    <glyph glyph-name="period" unicode="." horiz-adv-x="460" 
d="M57 147q0 76 49 125q50 50 123 50q76 0 126 -50q51 -51 51 -125q0 -73 -51 -124q-50 -50 -126 -50q-73 0 -123 50q-49 49 -49 124z" />
    <glyph glyph-name="slash" unicode="/" horiz-adv-x="1189" 
d="M31 -297l870 1872q11 25 41 44q27 17 57 17h121q31 0 42 -17t-1 -44l-872 -1872q-11 -25 -41 -44q-27 -17 -58 -17h-120q-30 0 -41 17q-12 18 2 44z" />
    <glyph glyph-name="zero" unicode="0" horiz-adv-x="1265" 
d="M72 942q0 222 160 370t401 148q242 0 402 -148q161 -149 161 -370v-450q0 -221 -161 -370t-402 -149q-240 0 -401 149q-160 148 -160 370v450zM633 1161q-107 0 -178 -61q-72 -62 -72 -154v-459q0 -89 72 -152t178 -63t178 63t72 152v459q0 92 -72 154q-71 61 -178 61z
" />
    <glyph glyph-name="one" unicode="1" horiz-adv-x="935" 
d="M154 1047l-39 83q-19 42 -4 79q16 40 53 57l297 141q62 27 119 27h61q43 0 72 -29q28 -28 28 -72v-1233q0 -43 -28 -71q-29 -29 -72 -29h-111q-42 0 -71 29t-29 71v965l-141 -68q-23 -10 -45 -10q-62 0 -90 60z" />
    <glyph glyph-name="two" unicode="2" horiz-adv-x="1187" 
d="M135 283l461 434q178 169 178 289q0 66 -56 110q-57 45 -136 45q-130 0 -213 -125q-24 -41 -70 -41q-15 0 -33 9l-131 61q-41 21 -53 58q-12 39 10 73q84 127 210 195q128 69 280 69q217 0 366 -130q150 -130 150 -314q0 -222 -312 -508l-225 -209h447q42 0 71 -29
t29 -71v-99q0 -42 -29 -71t-71 -29h-826q-42 0 -71 29t-29 71v60q0 73 53 123z" />
    <glyph glyph-name="three" unicode="3" horiz-adv-x="1202" 
d="M541 862h4q98 0 163 43q66 43 66 111q0 61 -60 103t-155 42q-111 0 -178 -57q-39 -33 -78 -33q-19 0 -31 6l-122 49q-41 18 -55 56q-13 36 14 69q77 97 195 153t267 56q226 0 377 -125q150 -125 150 -313q0 -170 -142 -277q181 -118 181 -317q0 -194 -158 -325
q-157 -130 -395 -130q-165 0 -299 68q-135 68 -203 184q-20 34 -5 72q15 37 58 53l133 47q15 4 25 4q40 0 74 -43q66 -86 211 -86q100 0 167 47q66 46 66 119q0 72 -66 118q-65 46 -163 46h-41q-28 0 -48 20t-20 48v125q0 28 20 48q19 19 48 19z" />
    <glyph glyph-name="four" unicode="4" horiz-adv-x="1306" 
d="M160 262q-43 0 -72 29t-29 74v96q0 106 66 178l598 717q26 32 75 55t91 23h96q45 0 74 -29q28 -28 28 -72v-772h68q43 0 72 -29q28 -28 28 -71v-96q0 -46 -28 -74q-29 -29 -72 -29h-68v-162q0 -43 -28 -71q-29 -29 -74 -29h-111q-42 0 -71 29t-29 71v162h-614zM432 561
h342v412z" />
    <glyph glyph-name="five" unicode="5" horiz-adv-x="1230" 
d="M936 1149h-438l-19 -188h139q234 0 391 -142q156 -141 156 -352q0 -212 -158 -352q-160 -142 -397 -142q-171 0 -308 80q-136 79 -210 217q-21 38 -3 72q18 35 63 47l141 39q8 2 18 2q54 0 88 -49q79 -109 211 -109q98 0 164 57t66 138q0 87 -77 147q-76 60 -192 60h-305
q-45 0 -70 28q-26 30 -22 72l57 559q5 43 36 72q32 29 75 29h594q43 0 72 -29q28 -28 28 -72v-84q0 -43 -28 -71q-29 -29 -72 -29z" />
    <glyph glyph-name="six" unicode="6" horiz-adv-x="1226" 
d="M815 1094q-71 67 -182 67q-108 0 -177 -59q-71 -60 -71 -150v-88q108 64 254 64q224 0 377 -138t153 -341t-156 -339q-157 -137 -390 -137q-235 0 -393 138q-156 137 -156 340v497q0 219 160 366q159 146 401 146q141 0 260 -54t197 -149q27 -33 15 -71q-12 -40 -52 -58
l-127 -61q-16 -8 -35 -8q-38 0 -78 35zM623 629q-97 0 -161 -51q-65 -51 -65 -125q0 -78 65 -129q66 -52 161 -52q92 0 158 51q65 50 65 123q0 78 -64 131q-62 52 -159 52z" />
    <glyph glyph-name="seven" unicode="7" horiz-adv-x="1103" 
d="M35 1249v84q0 43 30 72q31 29 72 29h826q42 0 71 -29t29 -72v-100q0 -100 -41 -193l-430 -948q-16 -38 -58 -65t-85 -27h-142q-43 0 -59 27t0 65l477 1057h-588q-41 0 -72 29q-30 28 -30 71z" />
    <glyph glyph-name="eight" unicode="8" horiz-adv-x="1230" 
d="M616 -27q-237 0 -394 125q-156 124 -156 312q0 206 190 335q-160 118 -160 304q0 173 149 292t371 119q220 0 371 -119q150 -119 150 -294q0 -185 -162 -304q190 -129 190 -335q0 -186 -156 -311q-155 -124 -393 -124zM391 436q0 -70 64 -117t161 -47q100 0 162 46
q64 47 64 116q0 71 -64 118q-62 46 -162 46q-99 0 -161 -46q-64 -47 -64 -116zM420 1024q0 -59 55 -99t141 -40q85 0 140 40t55 99t-55 98t-140 39q-86 0 -141 -39t-55 -98z" />
    <glyph glyph-name="nine" unicode="9" horiz-adv-x="1236" 
d="M391 342q70 -70 193 -70q116 0 191 60t75 147v74q-98 -64 -246 -64q-221 0 -374 141q-152 140 -152 347t154 345q155 138 386 138q234 0 390 -138q155 -137 155 -345v-496q0 -217 -165 -362q-166 -146 -410 -146q-144 0 -270 56q-123 55 -201 151q-25 35 -14 71
q12 37 51 58l125 60q16 8 34 8q38 0 78 -35zM621 788q92 0 155 54q62 53 62 133q0 81 -63 133q-64 53 -157 53q-92 0 -154 -52q-63 -53 -63 -130q0 -82 63 -136q64 -55 157 -55z" />
    <glyph glyph-name="colon" unicode=":" horiz-adv-x="460" 
d="M57 147q0 76 49 125q50 50 123 50q76 0 126 -50q51 -51 51 -125q0 -73 -51 -124q-50 -50 -126 -50q-73 0 -123 50q-49 49 -49 124zM57 918q0 74 49 123q51 51 123 51q75 0 126 -51t51 -123q0 -74 -51 -125q-50 -50 -126 -50q-73 0 -123 50q-49 49 -49 125z" />
    <glyph glyph-name="semicolon" unicode=";" horiz-adv-x="460" 
d="M57 918q0 74 49 123q51 51 123 51q75 0 126 -51t51 -123q0 -74 -51 -125q-50 -50 -126 -50q-73 0 -123 50q-49 49 -49 125zM207 -254q-11 -8 -29 -8q-27 0 -41 14l-26 29q-29 30 0 63q88 94 88 133q-59 10 -100 60q-40 49 -40 113q0 71 50 118t122 47q85 0 137 -63
q52 -62 52 -160q0 -196 -213 -346z" />
    <glyph glyph-name="less" unicode="&#x3c;" horiz-adv-x="1228" 
d="M92 772q0 28 18 57q19 30 44 41l870 408q16 8 31 8q41 0 41 -53v-141q0 -35 -21 -68q-20 -32 -51 -47l-555 -260l555 -258q31 -15 51 -47q21 -33 21 -68v-137q0 -53 -43 -53q-13 0 -29 6l-870 403q-25 11 -44 40q-18 27 -18 59v110z" />
    <glyph glyph-name="equal" unicode="=" horiz-adv-x="1228" 
d="M113 905v99q0 36 24 62t62 26h831q38 0 62 -26t24 -62v-99q0 -37 -24 -62q-24 -26 -62 -26h-831q-38 0 -62 26q-24 25 -24 62zM113 530q0 38 24 62t62 24h831q38 0 62 -24t24 -62v-100q0 -37 -24 -61q-25 -25 -62 -25h-831q-37 0 -62 25q-24 24 -24 61v100z" />
    <glyph glyph-name="greater" unicode="&#x3e;" horiz-adv-x="1228" 
d="M133 195v159q0 68 62 101l565 262l-565 266q-25 11 -44 41q-18 28 -18 57v162q0 47 37 47q13 0 25 -6l880 -414q25 -11 44 -41q18 -29 18 -57v-110q0 -32 -18 -59q-19 -29 -44 -40l-880 -407q-15 -6 -27 -6q-35 0 -35 45z" />
    <glyph glyph-name="question" unicode="?" horiz-adv-x="1218" 
d="M537 762q280 88 280 231q0 72 -66 120t-165 48q-126 0 -195 -76q-44 -47 -90 -47q-12 0 -20 2l-144 39q-42 12 -60 48t3 71q69 121 202 192q131 70 298 70q236 0 393 -132t157 -335q0 -98 -39 -175q-41 -80 -97 -123q-62 -48 -112 -75q-57 -32 -96 -42l-41 -11l-8 -55
q-7 -45 -53 -45h-166q-21 0 -35 13t-16 32l-14 125q-12 84 84 125zM416 145q0 79 52 131q54 54 130 54t130 -54q52 -52 52 -131q0 -78 -52 -130t-130 -52t-130 52t-52 130z" />
    <glyph glyph-name="at" unicode="@" horiz-adv-x="1978" 
d="M987 1460q393 0 665 -255q271 -255 271 -607q0 -226 -116 -371q-114 -143 -294 -141q-185 0 -290 141q-119 -141 -301 -141q-170 0 -286 128t-116 318q0 193 116 321t286 128q137 0 237 -82q15 59 76 59h92q33 0 54 -22q22 -24 22 -55v-453q0 -50 33 -85q33 -34 82 -34
q71 0 119 77q49 78 49 200q0 257 -202 448t-495 191q-295 0 -496 -199q-200 -198 -200 -494q0 -294 199 -493t491 -199q111 0 203 33q15 4 24 4q52 0 68 -51l18 -70q8 -34 -6 -62q-15 -30 -43 -40q-126 -49 -278 -49q-385 0 -648 266q-264 267 -264 661q0 396 267 663
q265 265 663 265zM774 532q0 -88 55 -146t138 -58q82 0 136 58q54 59 54 146q0 88 -54 147q-54 58 -136 58q-83 0 -138 -58t-55 -147z" />
    <glyph glyph-name="A" unicode="A" horiz-adv-x="1501" 
d="M53 94l531 1260q16 36 48 57q35 23 73 23h92q37 0 71 -24q36 -25 50 -56l530 -1260q17 -41 -1 -67q-18 -27 -61 -27h-137q-43 0 -83 27q-39 26 -56 67l-59 148h-598l-62 -148q-15 -39 -55 -66q-42 -28 -84 -28h-137q-45 0 -62 27q-16 27 0 67zM571 532h361l-180 439z" />
    <glyph glyph-name="B" unicode="B" horiz-adv-x="1382" 
d="M197 0q-43 0 -72 29t-29 71v1233q0 43 29 72t72 29h602q197 0 329 -115t132 -285q0 -166 -130 -284q88 -56 138 -144q49 -88 49 -190q0 -178 -137 -297t-340 -119h-643zM836 590h-414v-291h414q62 0 102 42q41 43 41 103q0 61 -41 104q-40 42 -102 42zM795 1135h-373
v-261h373q55 0 91 37t36 93t-36 94q-36 37 -91 37z" />
    <glyph glyph-name="C" unicode="C" horiz-adv-x="1554" 
d="M1452 297q-102 -150 -268 -237q-167 -87 -365 -87q-321 0 -536 213t-215 531q0 317 215 530q214 213 536 213q198 0 365 -87t268 -236q22 -34 10 -72q-12 -36 -55 -51l-152 -58q-12 -6 -28 -6q-45 0 -82 43q-123 156 -326 156q-177 0 -295 -124t-118 -308t118 -308
t295 -124q204 0 326 155q33 43 82 43q13 0 28 -6l152 -57q43 -15 55 -51q12 -38 -10 -72z" />
    <glyph glyph-name="D" unicode="D" horiz-adv-x="1505" 
d="M96 100v1233q0 43 29 72t72 29h489q320 0 536 -207t216 -510t-216 -510t-536 -207h-489q-43 0 -72 29t-29 71zM686 1135h-264v-836h264q177 0 295 121q119 122 119 297t-119 297q-118 121 -295 121z" />
    <glyph glyph-name="E" unicode="E" horiz-adv-x="1232" 
d="M96 1333q0 43 29 72t72 29h870q43 0 72 -29q28 -28 28 -72v-98q0 -44 -28 -72t-72 -28h-645v-263h526q44 0 72 -28q29 -29 29 -72v-96q0 -45 -29 -74t-72 -29h-526v-274h655q43 0 72 -29t29 -71v-99q0 -42 -29 -71t-72 -29h-880q-43 0 -72 29t-29 71v1233z" />
    <glyph glyph-name="F" unicode="F" horiz-adv-x="1216" 
d="M96 100v1233q0 43 29 72t72 29h870q43 0 72 -29q28 -28 28 -72v-98q0 -44 -28 -72t-72 -28h-645v-267h526q44 0 72 -28q29 -29 29 -72v-98q0 -43 -29 -72t-72 -29h-526v-469q0 -42 -29 -71t-74 -29h-122q-43 0 -72 29t-29 71z" />
    <glyph glyph-name="G" unicode="G" horiz-adv-x="1630" 
d="M1563 707q-5 -311 -217 -522q-214 -212 -531 -212q-315 0 -531 213t-216 531q0 319 219 531q220 212 544 212q199 0 366 -86q166 -85 271 -237q23 -35 11 -72q-11 -35 -54 -51l-153 -58q-15 -6 -29 -6q-49 0 -82 43q-121 156 -330 156q-184 0 -305 -124
q-120 -123 -120 -308q0 -184 116 -307q117 -125 291 -125q123 0 226 67q104 68 149 178h-309q-43 0 -72 30q-29 31 -29 73v74q0 42 29 71t72 29h577q46 0 77 -30t30 -70z" />
    <glyph glyph-name="H" unicode="H" horiz-adv-x="1462" 
d="M96 100v1233q0 43 29 72t72 29h122q45 0 74 -29t29 -72v-459h620v459q0 43 29 72t72 29h123q42 0 71 -29t29 -72v-1233q0 -42 -29 -71t-71 -29h-123q-43 0 -72 29t-29 71v475h-620v-475q0 -42 -29 -71t-74 -29h-122q-43 0 -72 29t-29 71z" />
    <glyph glyph-name="I" unicode="I" horiz-adv-x="518" 
d="M96 100v1233q0 43 29 72t72 29h122q45 0 74 -29t29 -72v-1233q0 -42 -29 -71t-74 -29h-122q-43 0 -72 29t-29 71z" />
    <glyph glyph-name="J" unicode="J" horiz-adv-x="1189" 
d="M1108 1333v-798q0 -243 -168 -402q-169 -160 -422 -160q-268 0 -436 174q-29 29 -23 70q6 42 45 66l121 79q22 11 41 11q34 0 68 -29q78 -72 190 -72q116 0 193 76q78 76 78 187v798q0 44 28 72q29 29 72 29h111q44 0 73 -29t29 -72z" />
    <glyph glyph-name="K" unicode="K" horiz-adv-x="1359" 
d="M197 0q-43 0 -72 29t-29 71v1233q0 43 29 72t72 29h122q45 0 74 -29t29 -72v-479l409 502q26 32 74 55t90 23h209q42 0 54 -23q12 -22 -15 -55l-508 -623l547 -655q27 -32 16 -55t-53 -23h-209q-42 0 -90 23t-74 55l-450 538v-516q0 -42 -29 -71t-74 -29h-122z" />
    <glyph glyph-name="L" unicode="L" horiz-adv-x="1157" 
d="M96 1333q0 43 29 72t72 29h122q45 0 74 -29t29 -72v-1034h592q42 0 71 -29t29 -71v-99q0 -42 -29 -71t-71 -29h-817q-43 0 -72 29t-29 71v1233z" />
    <glyph glyph-name="M" unicode="M" horiz-adv-x="1796" 
d="M96 1333q0 43 29 72t72 29h120q42 0 86 -26t64 -62l432 -764l430 764q20 36 64 62t86 26h118q45 0 74 -29t29 -72v-1233q0 -42 -29 -71t-74 -29h-118q-43 0 -72 29t-29 71v725l-344 -616q-28 -55 -92 -55h-88q-61 0 -94 55l-342 616v-725q0 -42 -29 -71t-72 -29h-120
q-43 0 -72 29t-29 71v1233z" />
    <glyph glyph-name="N" unicode="N" horiz-adv-x="1476" 
d="M96 1333q0 43 29 72t72 29h98q39 0 81 -21q41 -21 64 -51l627 -807v778q0 43 30 72q31 29 72 29h111q43 0 72 -29q28 -28 28 -72v-1233q0 -43 -28 -71q-29 -29 -72 -29h-98q-41 0 -81 20q-42 21 -65 52l-626 802v-774q0 -42 -30 -71q-31 -29 -73 -29h-110q-43 0 -72 29
t-29 71v1233z" />
    <glyph glyph-name="O" unicode="O" horiz-adv-x="1638" 
d="M68 717q0 317 215 530q214 213 536 213t538 -213t216 -530q0 -318 -216 -531t-538 -213q-321 0 -536 213t-215 531zM406 717q0 -184 118 -308t295 -124q179 0 297 124q119 125 119 308t-119 308q-118 124 -297 124q-177 0 -295 -124t-118 -308z" />
    <glyph glyph-name="P" unicode="P" horiz-adv-x="1323" 
d="M197 0q-43 0 -72 29t-29 71v1233q0 43 29 72t72 29h551q219 0 369 -139q149 -138 149 -343t-149 -343t-369 -138h-326v-371q0 -42 -29 -71t-74 -29h-122zM748 1135h-326v-365h326q78 0 129 52t51 130t-51 130q-51 53 -129 53z" />
    <glyph glyph-name="Q" unicode="Q" horiz-adv-x="1638" 
d="M68 717q0 317 215 530q214 213 536 213t538 -213t216 -530q0 -253 -146 -449l86 -86q27 -28 27 -67t-27 -68l-77 -78q-27 -28 -68 -28q-40 0 -68 28l-100 101q-176 -97 -381 -97q-321 0 -536 213t-215 531zM819 1149q-177 0 -295 -124t-118 -308t118 -308t295 -124
q79 0 142 24l-127 127q-29 29 -29 69q0 39 29 68l75 76q29 29 70 29t68 -29l141 -141q47 96 47 209q0 183 -119 308q-118 124 -297 124z" />
    <glyph glyph-name="R" unicode="R" horiz-adv-x="1378" 
d="M96 1333q0 43 29 72t72 29h571q220 0 370 -139q148 -138 148 -343q0 -136 -69 -247t-189 -173l260 -444q21 -39 6 -63q-16 -25 -57 -25h-160q-42 0 -87 25q-43 24 -64 63l-226 383h-278v-371q0 -42 -29 -71t-74 -29h-122q-43 0 -72 29t-29 71v1233zM768 1135h-346v-365
h346q78 0 129 52t51 130t-51 130q-51 53 -129 53z" />
    <glyph glyph-name="S" unicode="S" horiz-adv-x="1234" 
d="M764 1092q-55 69 -166 69q-74 0 -123 -33t-49 -84q0 -31 16 -53q17 -23 67 -44q47 -20 83 -33q1 -1 121 -37q28 -10 47 -15q71 -23 109 -37q48 -18 107 -52q61 -35 101 -78q41 -45 67 -110q27 -69 27 -153q0 -210 -149 -334q-151 -125 -387 -125q-182 0 -325 75t-212 198
q-21 37 -3 71q18 35 63 45l178 44q6 2 14 2q35 0 58 -35q68 -101 227 -101q88 0 149 37q62 38 62 94q0 40 -36 70q-37 31 -77 47q-33 13 -102 37q-15 5 -21 6l-107 34q-47 16 -101 37q-59 23 -98 47q-29 18 -79 56q-44 33 -67 74q-21 36 -40 92q-18 53 -18 117
q0 196 137 318t355 122q160 0 288 -66q127 -66 191 -175q23 -38 5 -73q-18 -36 -62 -46l-174 -39q-6 -2 -15 -2q-31 0 -61 33z" />
    <glyph glyph-name="T" unicode="T" horiz-adv-x="1294" 
d="M43 1333q0 43 29 72t73 29h1006q43 0 72 -29q28 -28 28 -72v-98q0 -44 -28 -72t-72 -28h-342v-1035q0 -42 -29 -71t-71 -29h-123q-43 0 -72 29t-29 71v1035h-340q-45 0 -73 28q-29 29 -29 72v98z" />
    <glyph glyph-name="U" unicode="U" horiz-adv-x="1437" 
d="M719 -27q-270 0 -453 174q-182 173 -182 433v753q0 43 29 72t71 29h123q43 0 72 -29t29 -72v-751q0 -133 89 -222q88 -88 222 -88t222 88q89 89 89 222v751q0 43 29 72t71 29h123q43 0 72 -29t29 -72v-753q0 -259 -183 -433t-452 -174z" />
    <glyph glyph-name="V" unicode="V" horiz-adv-x="1480" 
d="M115 1434h137q43 0 82 -27q38 -26 55 -68l352 -872l351 872q17 42 55 68q39 27 82 27h137q42 0 60 -27t1 -66l-520 -1261q-17 -35 -50 -57q-35 -23 -71 -23h-92q-37 0 -72 23q-34 22 -49 57l-522 1261q-17 39 1 66t63 27z" />
    <glyph glyph-name="W" unicode="W" horiz-adv-x="2052" 
d="M115 1434h129q41 0 80 -28q35 -25 51 -69l250 -809l243 824q10 34 42 58t69 24h94q37 0 70 -24q34 -25 41 -58l248 -824l245 809q16 43 52 69q39 28 79 28h131q43 0 63 -28t5 -69l-420 -1255q-12 -34 -45 -58t-69 -24h-93q-38 0 -70 24t-42 58l-242 782l-240 -782
q-10 -34 -43 -58t-69 -24h-94q-37 0 -70 24t-43 58l-422 1255q-15 41 5 69t65 28z" />
    <glyph glyph-name="X" unicode="X" horiz-adv-x="1456" 
d="M72 82l463 649l-443 621q-24 35 -13 58q12 24 56 24h184q43 0 90 -24q46 -24 70 -58l250 -348l248 348q23 33 71 58q46 24 89 24h184q44 0 56 -24q11 -23 -13 -58l-442 -621l462 -649q25 -36 14 -58q-12 -24 -57 -24h-184q-43 0 -89 24q-48 25 -71 58l-268 377l-270 -377
q-23 -33 -71 -58q-46 -24 -89 -24h-184q-45 0 -57 24q-11 22 14 58z" />
    <glyph glyph-name="Y" unicode="Y" horiz-adv-x="1429" 
d="M115 1434h170q42 0 86 -26q42 -25 65 -60l273 -455l284 455q22 36 67 61t87 25h170q42 0 56 -25q13 -24 -11 -59l-490 -752v-498q0 -43 -28 -71q-29 -29 -72 -29h-123q-42 0 -71 29t-29 71v490l-481 758q-23 38 -11 61q13 25 58 25z" />
    <glyph glyph-name="Z" unicode="Z" horiz-adv-x="1286" 
d="M1122 0h-975q-31 0 -55 22q-22 21 -22 54v98q0 79 47 137l647 824h-586q-44 0 -73 28t-29 72v98q0 44 29 72q31 29 73 29h963q32 0 54 -22t22 -54v-96q0 -84 -48 -138l-647 -825h600q43 0 72 -29t29 -71v-99q0 -42 -29 -71t-72 -29z" />
    <glyph glyph-name="bracketleft" unicode="[" horiz-adv-x="675" 
d="M94 -279v1838q0 35 24 57q23 22 58 22h397q36 0 59 -22t23 -57v-99q0 -35 -23 -57q-25 -23 -59 -23h-200v-1480h200q34 0 59 -23q23 -22 23 -57v-99q0 -35 -23 -57t-59 -22h-397q-35 0 -58 22q-24 22 -24 57z" />
    <glyph glyph-name="backslash" unicode="\" horiz-adv-x="1189" 
d="M1120 -358h-121q-30 0 -57 17q-30 19 -41 44l-870 1872q-14 26 -2 44q11 17 41 17h120q31 0 58 -17q30 -19 41 -44l872 -1872q12 -27 1 -44t-42 -17z" />
    <glyph glyph-name="bracketright" unicode="]" horiz-adv-x="675" 
d="M20 -279v99q0 31 23 56q23 24 57 24h201v1480h-201q-34 0 -57 23t-23 57v99q0 34 23 57q22 22 57 22h400q33 0 56 -22q24 -22 24 -57v-1838q0 -32 -24 -56q-23 -23 -56 -23h-400q-35 0 -57 23q-23 25 -23 56z" />
    <glyph glyph-name="asciicircum" unicode="^" horiz-adv-x="1228" 
d="M559 1434h111q29 0 60 -17q29 -16 44 -43l305 -553q15 -30 3 -50q-12 -19 -46 -19h-151q-34 0 -67 20t-50 49l-154 269l-155 -273q-17 -30 -50 -50q-36 -22 -67 -22h-149q-33 0 -47 21q-13 20 4 51l307 555q14 26 43 44q28 18 59 18z" />
    <glyph glyph-name="underscore" unicode="_" horiz-adv-x="501" 
d="M0 -102h502v-267h-502v267z" />
    <glyph glyph-name="grave" unicode="`" horiz-adv-x="710" 
d="M117 1724l45 82q27 45 71 45q28 0 48 -14l307 -192q49 -30 20 -82l-37 -64q-18 -33 -57 -33q-20 0 -27 4l-329 140q-35 17 -47 48q-12 32 6 66z" />
    <glyph glyph-name="a" unicode="a" 
d="M547 -27q-211 0 -352 161q-142 162 -142 398q0 240 142 400t352 160q175 0 305 -113q4 37 33 61q30 25 67 25h105q42 0 71 -29t29 -71v-865q0 -42 -29 -71t-71 -29h-105q-37 0 -67 25q-29 24 -33 63q-132 -115 -305 -115zM610 788q-100 0 -169 -73q-68 -72 -68 -180
q0 -113 68 -185q69 -74 169 -74q99 0 168 74q70 75 70 185q0 105 -70 180q-69 73 -168 73z" />
    <glyph glyph-name="b" unicode="b" 
d="M86 100v1336q0 42 29 71t71 29h105q45 0 74 -29q28 -28 28 -71v-455q131 111 303 111q211 0 354 -160q142 -158 142 -400q0 -238 -142 -398q-143 -161 -354 -161q-173 0 -303 113q-6 -36 -34 -61t-68 -25h-105q-42 0 -71 29t-29 71zM635 788q-100 0 -169 -73t-69 -180
q0 -111 69 -185t169 -74q98 0 167 74q68 72 68 185q0 108 -68 180q-69 73 -167 73z" />
    <glyph glyph-name="c" unicode="c" horiz-adv-x="1191" 
d="M1065 698l-143 -43q-15 -4 -23 -4q-46 0 -84 47q-73 90 -192 90q-107 0 -179 -72q-71 -71 -71 -181q0 -113 71 -185q72 -74 179 -74q118 0 192 91q38 47 84 47q8 0 23 -4l143 -43q42 -12 59 -49q16 -36 -6 -70q-73 -127 -205 -201q-131 -74 -290 -74q-243 0 -407 161
q-163 160 -163 398q0 241 163 400q165 160 407 160q159 0 290 -74q132 -74 205 -201q23 -35 6 -71t-59 -48z" />
    <glyph glyph-name="d" unicode="d" 
d="M547 -27q-211 0 -352 161q-142 162 -142 398q0 240 142 400t352 160q174 0 305 -113v457q0 42 29 71t71 29h105q42 0 71 -29t29 -71v-1336q0 -42 -29 -71t-71 -29h-105q-37 0 -67 25q-29 24 -33 63q-132 -115 -305 -115zM610 788q-100 0 -169 -73q-68 -72 -68 -180
q0 -113 68 -185q69 -74 169 -74q99 0 168 74q70 75 70 185q0 105 -70 180q-69 73 -168 73z" />
    <glyph glyph-name="e" unicode="e" horiz-adv-x="1220" 
d="M1069 422h-692q27 -84 96 -135t164 -51q103 0 174 59q33 27 70 27q7 0 16 -3l150 -34q43 -10 55 -42t-15 -65q-166 -205 -452 -205q-248 0 -416 160q-166 159 -166 399q0 238 162 399q163 161 403 161q247 0 407 -166q161 -168 157 -404q0 -40 -33 -70t-80 -30zM868 649
q-28 81 -96 131q-67 49 -154 49q-82 0 -147 -49t-92 -131h489z" />
    <glyph glyph-name="f" unicode="f" horiz-adv-x="727" 
d="M16 981q0 34 25 59t59 25h70v119q0 152 114 252q113 100 281 100h62q33 0 58 -25q24 -24 24 -59v-123q0 -35 -23 -56q-24 -22 -55 -22h-39q-49 0 -82 -30t-33 -78v-78h150q33 0 58 -25q24 -24 24 -59v-92q0 -36 -24 -60t-58 -24h-150v-705q0 -43 -28 -71q-29 -29 -74 -29
h-105q-42 0 -71 29t-29 71v705h-70q-35 0 -59 24q-25 25 -25 60v92z" />
    <glyph glyph-name="g" unicode="g" 
d="M53 532q0 240 142 400t352 160q175 0 305 -113q4 37 33 61q30 25 67 25h105q42 0 71 -29t29 -71v-942q0 -217 -155 -364q-153 -146 -384 -146q-149 0 -278 66q-128 65 -201 175q-22 34 -7 69q15 34 58 44l156 39q6 2 12 2q31 0 70 -31q69 -74 184 -74q100 0 170 62
t70 153v68q-131 -113 -305 -113q-211 0 -352 161q-142 162 -142 398zM610 788q-100 0 -169 -73q-68 -72 -68 -185q0 -108 68 -180q69 -74 169 -74q99 0 168 74q70 75 70 180q0 110 -70 185q-69 73 -168 73z" />
    <glyph glyph-name="h" unicode="h" horiz-adv-x="1189" 
d="M186 0q-42 0 -71 29t-29 71v1336q0 42 29 71t71 29h105q45 0 74 -29q28 -28 28 -71v-480q113 136 299 136q174 0 293 -117t119 -291v-584q0 -42 -29 -71t-71 -29h-105q-43 0 -72 29q-28 28 -28 71v502q0 88 -59 147q-58 58 -144 58t-144 -58q-59 -59 -59 -147v-502
q0 -43 -28 -71q-29 -29 -74 -29h-105z" />
    <glyph glyph-name="i" unicode="i" horiz-adv-x="479" 
d="M86 100v865q0 42 29 71t71 29h105q45 0 74 -29q28 -28 28 -71v-865q0 -43 -28 -71q-29 -29 -74 -29h-105q-42 0 -71 29t-29 71zM55 1329q0 79 53 132q52 52 132 52t132 -52t52 -132t-52 -132t-132 -52t-132 52q-53 53 -53 132z" />
    <glyph glyph-name="j" unicode="j" horiz-adv-x="489" 
d="M403 965v-1071q0 -318 -409 -351q-44 0 -69 24t-25 66v113q0 36 23 59q25 25 63 31q112 12 112 101v1028q0 42 29 71t72 29h104q43 0 72 -29q28 -28 28 -71zM66 1329q0 79 53 132q52 52 133 52q79 0 131 -52q53 -53 53 -132t-53 -132q-52 -52 -131 -52q-81 0 -133 52
q-53 53 -53 132z" />
    <glyph glyph-name="k" unicode="k" horiz-adv-x="1107" 
d="M186 0q-42 0 -71 29t-29 71v1336q0 42 29 71t71 29h105q45 0 74 -29q28 -28 28 -71v-789l242 336q23 33 71 58q46 24 89 24h161q44 0 56 -24q11 -23 -13 -58l-311 -432l348 -469q25 -36 14 -58q-12 -24 -57 -24h-166q-43 0 -89 24t-70 58l-275 375v-357q0 -43 -28 -71
q-29 -29 -74 -29h-105z" />
    <glyph glyph-name="l" unicode="l" horiz-adv-x="479" 
d="M86 100v1336q0 42 29 71t71 29h105q45 0 74 -29q28 -28 28 -71v-1336q0 -43 -28 -71q-29 -29 -74 -29h-105q-42 0 -71 29t-29 71z" />
    <glyph glyph-name="m" unicode="m" horiz-adv-x="1810" 
d="M86 100v865q0 42 29 71t71 29h105q41 0 71 -28t31 -68q105 123 277 123q209 0 323 -164q105 164 320 164q175 0 293 -114t118 -282v-596q0 -43 -28 -71q-29 -29 -74 -29h-104q-43 0 -72 29t-29 71v514q0 82 -51 138q-51 55 -127 55t-128 -55t-52 -138v-514q0 -42 -29 -71
t-74 -29h-104q-43 0 -72 29q-28 28 -28 71v514q0 81 -52 138q-51 55 -127 55t-128 -55t-52 -138v-514q0 -43 -28 -71q-29 -29 -74 -29h-105q-42 0 -71 29t-29 71z" />
    <glyph glyph-name="n" unicode="n" horiz-adv-x="1177" 
d="M186 0q-42 0 -71 29t-29 71v865q0 42 29 71t71 29h105q45 0 74 -29q28 -28 28 -71v-9q107 136 291 136q172 0 290 -117t118 -291v-584q0 -42 -29 -71t-72 -29h-104q-45 0 -74 29t-29 71v502q0 89 -55 147t-139 58q-83 0 -140 -58q-57 -59 -57 -147v-502q0 -43 -28 -71
q-29 -29 -74 -29h-105z" />
    <glyph glyph-name="o" unicode="o" 
d="M53 532q0 239 163 399q164 161 407 161q242 0 406 -161q163 -160 163 -399q0 -238 -163 -398q-164 -161 -406 -161q-243 0 -407 161q-163 160 -163 398zM373 532q0 -110 71 -182q72 -74 179 -74q105 0 177 75t72 181q0 107 -72 182q-71 74 -177 74q-107 0 -179 -73
q-71 -72 -71 -183z" />
    <glyph glyph-name="p" unicode="p" 
d="M86 965q0 42 29 71t71 29h105q37 0 67 -25q29 -25 35 -61q130 113 303 113q211 0 354 -160q142 -158 142 -400q0 -238 -142 -398q-143 -161 -354 -161q-173 0 -303 113v-446q0 -44 -28 -72q-29 -29 -74 -29h-105q-42 0 -71 29t-29 72v1325zM635 788q-100 0 -169 -73
t-69 -185q0 -106 69 -180t169 -74q98 0 167 74q68 72 68 180q0 113 -68 185q-69 73 -167 73z" />
    <glyph glyph-name="q" unicode="q" 
d="M547 -27q-211 0 -352 161q-142 162 -142 398q0 240 142 400t352 160q175 0 305 -113q4 37 33 61q30 25 67 25h105q42 0 71 -29t29 -71v-1325q0 -43 -29 -72t-71 -29h-105q-42 0 -71 29t-29 72v446q-131 -113 -305 -113zM373 530q0 -108 68 -180q69 -74 169 -74
q99 0 168 74q70 75 70 180q0 110 -70 185q-69 73 -168 73q-100 0 -169 -73q-68 -72 -68 -185z" />
    <glyph glyph-name="r" unicode="r" horiz-adv-x="741" 
d="M86 965q0 42 29 71t71 29h105q45 0 73 -28t29 -70q84 100 225 118q8 2 17 2q35 0 59 -28q25 -30 25 -68v-141q0 -59 -64 -59q-6 0 -10 1t-8 1h-29q-92 0 -153 -63q-62 -64 -62 -157v-473q0 -43 -28 -71q-29 -29 -74 -29h-105q-42 0 -71 29t-29 71v865z" />
    <glyph glyph-name="s" unicode="s" horiz-adv-x="983" 
d="M821 784l-131 -20q-37 0 -78 35q-44 47 -133 47q-121 0 -121 -70q0 -41 84 -71l191 -62q161 -51 232 -129q71 -79 71 -199q0 -168 -120 -255t-318 -87q-335 0 -430 222q-16 36 5 70q21 35 66 42l131 19h4q37 0 70 -39q45 -62 160 -62q61 0 100 21t39 57q0 52 -106 82
l-195 57q-147 40 -215 115q-66 73 -66 193q0 176 119 259t314 83q302 0 397 -193q17 -38 -4 -72q-22 -36 -66 -43z" />
    <glyph glyph-name="t" unicode="t" horiz-adv-x="761" 
d="M104 799q-36 0 -62 24t-26 62v94q0 37 26 61q27 25 62 25h66v104q0 42 29 73q28 30 71 30h107q43 0 72 -30q28 -29 28 -73v-104h154q35 0 62 -25q26 -24 26 -61v-94q0 -38 -26 -62q-25 -24 -62 -24h-154v-400q0 -49 33 -81q32 -31 84 -31h41q34 0 59 -25t25 -59v-119
q0 -34 -25 -59t-59 -25h-92q-158 0 -265 97q-108 97 -108 243v459h-66z" />
    <glyph glyph-name="u" unicode="u" horiz-adv-x="1177" 
d="M86 965q0 42 29 71t71 29h105q45 0 74 -29q28 -28 28 -71v-502q0 -88 56 -147q55 -58 139 -58q83 0 140 58q56 57 56 147v502q0 42 29 71t74 29h104q43 0 72 -29t29 -71v-865q0 -42 -29 -71t-72 -29h-104q-45 0 -74 29t-29 71v9q-107 -136 -290 -136q-172 0 -290 117
t-118 291v584z" />
    <glyph glyph-name="v" unicode="v" horiz-adv-x="1171" 
d="M115 1065h114q43 0 81 -27q39 -28 55 -67l221 -582l223 582q15 40 53 66q40 28 82 28h115q43 0 61 -27t2 -67l-352 -877q-16 -40 -55 -67t-82 -27h-94q-43 0 -82 27q-40 28 -56 67l-352 877q-16 40 2 67t64 27z" />
    <glyph glyph-name="w" unicode="w" horiz-adv-x="1591" 
d="M115 1065h106q41 0 80 -28q36 -26 47 -68l139 -482l140 482q12 42 49 68q39 28 80 28h80q40 0 79 -28q38 -27 50 -68l139 -482l139 482q11 42 47 68q39 28 80 28h107q42 0 64 -28t7 -68l-276 -873q-16 -43 -51 -68q-39 -28 -80 -28h-78q-41 0 -80 28q-37 26 -49 68
l-137 457l-142 -457q-11 -42 -47 -68q-39 -28 -80 -28h-77q-44 0 -81 28q-36 27 -51 68l-276 873q-15 41 6 68q22 28 66 28z" />
    <glyph glyph-name="x" unicode="x" horiz-adv-x="1169" 
d="M115 0q-45 0 -57 24q-11 22 14 58l329 467l-307 434q-26 34 -14 58t55 24h158q42 0 87 -25t69 -59l135 -193l137 193q23 35 66 59q45 25 87 25h158q43 0 55 -24t-12 -58l-307 -434l330 -467q24 -34 12 -58t-55 -24h-156q-43 0 -88 24q-48 26 -70 60l-157 225l-158 -225
q-23 -35 -68 -59q-47 -25 -88 -25h-155z" />
    <glyph glyph-name="y" unicode="y" horiz-adv-x="1130" 
d="M49 971q-16 40 2 67t64 27h114q43 0 81 -27q37 -27 52 -67l199 -563l207 563q15 40 53 66q40 28 82 28h115q43 0 61 -27t2 -67l-415 -1082q-66 -171 -173 -249q-109 -81 -278 -97q-45 0 -73 26q-27 25 -27 71v100q0 40 26 66q27 28 68 32q151 16 201 154l6 16z" />
    <glyph glyph-name="z" unicode="z" horiz-adv-x="1005" 
d="M102 266l410 518h-340q-42 0 -73 29q-29 28 -29 74v78q0 43 29 71q31 29 73 29h694q29 0 48 -19q20 -20 20 -51v-73q0 -71 -41 -123l-410 -518h361q42 0 71 -29t29 -72v-80q0 -42 -29 -71t-71 -29h-715q-29 0 -49 20q-21 21 -21 50v73q0 71 43 123z" />
    <glyph glyph-name="braceleft" unicode="{" horiz-adv-x="733" 
d="M20 580v120q0 44 62 88q119 56 119 146v338q0 156 105 261t263 105h70q33 0 53 -20q21 -21 21 -53v-109q0 -30 -21 -51t-53 -21h-41q-52 0 -85 -33q-34 -34 -34 -83v-338q0 -118 -58 -192q-58 -75 -161 -99q103 -23 161 -97t58 -192v-336q0 -51 34 -85q33 -33 85 -33h41
q32 0 53 -21t21 -51v-109q0 -32 -21 -53q-20 -20 -53 -20h-70q-158 0 -263 105t-105 261v338q0 90 -119 146q-62 41 -62 88z" />
    <glyph glyph-name="bar" unicode="|" horiz-adv-x="423" 
d="M94 -289v1858q0 31 21 50q20 19 49 19h96q31 0 50 -19q20 -20 20 -50v-1858q0 -30 -20 -50q-19 -19 -50 -19h-96q-29 0 -49 19q-21 19 -21 50z" />
    <glyph glyph-name="braceright" unicode="}" horiz-adv-x="733" 
d="M94 -104h41q50 0 83 33q34 34 34 85v336q0 118 59 192q60 74 162 97q-102 24 -162 99q-59 74 -59 192v338q0 49 -34 83q-33 33 -83 33h-41q-32 0 -53 21t-21 51v109q0 32 21 53q20 20 53 20h70q157 0 261 -104q105 -105 105 -262v-338q0 -91 121 -146q62 -44 62 -88v-120
q0 -44 -62 -88q-121 -55 -121 -146v-338q0 -156 -105 -261t-261 -105h-70q-33 0 -53 20q-21 21 -21 53v109q0 30 21 51t53 21z" />
    <glyph glyph-name="asciitilde" unicode="~" horiz-adv-x="1228" 
d="M1110 821q-23 -131 -116 -215t-214 -84q-69 0 -132 30q-61 29 -109 60t-80 31q-56 0 -80 -57q-22 -49 -60 -49h-131q-32 0 -53 22t-16 53q22 133 115 218q92 85 215 85q89 -1 190 -62q101 -60 131 -60q54 0 78 57q27 49 61 49h131q34 0 54 -23q21 -24 16 -55z" />
    <glyph glyph-name="exclamdown" unicode="&#xa1;" horiz-adv-x="518" 
d="M84 918q0 75 49 124q50 50 125 50q74 0 124 -50t50 -124t-50 -124q-51 -51 -124 -51q-74 0 -125 51q-49 49 -49 124zM215 606h88q35 0 59 -24q26 -26 27 -60l29 -790q1 -43 -26 -72t-73 -29h-122q-44 0 -71 29t-26 72l29 790q1 34 27 60q24 24 59 24z" />
    <glyph glyph-name="cent" unicode="&#xa2;" horiz-adv-x="1191" 
d="M53 717q0 213 130 364q132 153 335 187v151q0 29 21 48q22 20 49 20h69q29 0 49 -20q19 -19 19 -48v-151q263 -45 393 -267q22 -34 6 -70q-17 -36 -59 -48l-143 -43q-15 -4 -23 -4q-46 0 -84 47q-39 45 -90 69q-51 21 -102 21q-107 0 -179 -74q-71 -72 -71 -180
q0 -109 71 -183q72 -75 179 -75q53 0 102 20q50 23 90 70q38 47 84 47q8 0 23 -4l143 -43q42 -12 59 -48t-6 -71q-129 -221 -393 -266v-152q0 -29 -19 -48t-49 -19h-69q-29 0 -49 19q-21 20 -21 48v152q-205 34 -335 187q-130 152 -130 364z" />
    <glyph glyph-name="sterling" unicode="&#xa3;" horiz-adv-x="1261" 
d="M158 0q-43 0 -72 29t-29 71v99q0 42 29 71t72 29h55v293h-70q-29 0 -47 19t-18 46v74q0 27 18 45q19 19 47 19h70v194q0 201 142 336q143 135 347 135q148 0 277 -72q128 -72 197 -192q21 -34 4 -72q-16 -37 -60 -49l-143 -39q-8 -2 -19 -2q-50 0 -88 47q-68 80 -163 80
q-75 0 -128 -50t-53 -122v-194h295q28 0 47 -19t19 -45v-74q0 -26 -20 -46q-19 -19 -46 -19h-295v-293h537q45 0 74 -29q28 -28 28 -71v-99q0 -43 -28 -71q-29 -29 -74 -29h-905z" />
    <glyph glyph-name="currency" unicode="&#xa4;" horiz-adv-x="1163" 
d="M143 451l95 94q-39 83 -39 172q0 94 43 176l-99 96q-20 21 -20 49t20 49l70 68q23 23 49 23q29 0 47 -23l99 -96q82 39 172 39q95 0 174 -41l98 98q23 23 49 23t49 -23l70 -68q45 -49 0 -98l-100 -98q38 -75 38 -174q0 -100 -38 -170l98 -98q20 -20 20 -49q0 -28 -20 -48
l-70 -67q-18 -21 -47 -21q-28 0 -49 21l-96 94q-82 -43 -176 -43q-95 0 -177 43l-94 -94q-21 -21 -47 -21q-25 0 -49 21l-70 69q-20 20 -20 48q0 29 20 49zM434 717q0 -62 42 -104t104 -42q61 0 103 42t42 104q0 61 -42 103t-103 42t-104 -41q-42 -41 -42 -104z" />
    <glyph glyph-name="yen" unicode="&#xa5;" horiz-adv-x="1429" 
d="M115 1434h170q42 0 86 -26q42 -25 65 -60l273 -455l284 455q22 36 67 61t87 25h170q42 0 56 -25q13 -24 -11 -59l-475 -732h172q29 0 47 -18t18 -45v-74q0 -27 -19 -46t-46 -19h-187v-72h187q27 0 46 -18t19 -47v-74q0 -29 -19 -47q-21 -19 -46 -19h-187v-39
q0 -43 -28 -71q-29 -29 -72 -29h-123q-42 0 -71 29t-29 71v39h-187q-25 0 -46 19q-19 18 -19 47v74q0 29 19 47q20 18 46 18h187v72h-187q-27 0 -46 19t-19 46v74q0 27 18 45t47 18h168l-462 730q-23 38 -11 61q13 25 58 25z" />
    <glyph glyph-name="brokenbar" unicode="&#xa6;" horiz-adv-x="423" 
d="M94 -289v692q0 31 21 51q20 19 49 19h96q31 0 50 -19q20 -20 20 -51v-692q0 -30 -20 -50q-19 -19 -50 -19h-96q-29 0 -49 19q-21 19 -21 50zM94 877v692q0 31 21 50q20 19 49 19h96q31 0 50 -19q20 -20 20 -50v-692q0 -28 -20 -50q-19 -20 -50 -20h-96q-29 0 -49 20
q-21 21 -21 50z" />
    <glyph glyph-name="section" unicode="&#xa7;" horiz-adv-x="968" 
d="M621 1104q-45 96 -134 96q-55 0 -90 -38t-35 -93q0 -84 56 -108l256 -109q120 -50 188 -146q68 -95 68 -214q0 -134 -88 -238q88 -100 88 -242q0 -174 -126 -290q-125 -115 -315 -115q-149 0 -261 71t-162 191q-14 29 1 60q15 30 52 40l153 45q6 2 15 2q29 0 45 -34
q50 -115 162 -115q62 0 105 38q42 38 42 95q0 86 -78 119l-250 112q-113 50 -177 144q-62 90 -62 209q0 135 84 237q-84 96 -84 242q0 171 117 284t298 113q133 0 236 -65q105 -66 156 -174q15 -30 1 -61q-13 -29 -48 -40l-154 -47q-8 -2 -16 -2q-28 0 -43 33zM389 684
q-8 -4 -21 -32q-12 -27 -12 -62q0 -88 66 -117l178 -80q41 35 41 90q0 91 -86 129z" />
    <glyph glyph-name="dieresis" unicode="&#xa8;" horiz-adv-x="909" 
d="M74 1599q0 69 47 116q46 46 117 46q69 0 114 -46q45 -47 45 -116t-45 -115t-114 -46q-71 0 -117 46q-47 47 -47 115zM510 1599q0 69 47 116q46 46 115 46t115 -46q47 -47 47 -116q0 -68 -47 -115q-46 -46 -115 -46t-115 46q-47 47 -47 115z" />
    <glyph glyph-name="copyright" unicode="&#xa9;" horiz-adv-x="1603" 
d="M68 717q0 305 215 520t520 215q303 0 518 -216q215 -217 215 -519t-215 -519q-215 -216 -518 -216q-305 0 -520 215t-215 520zM184 717q0 -255 182 -437t437 -182q253 0 435 183q181 182 181 436q0 256 -181 437t-435 181q-256 0 -437 -181q-182 -182 -182 -437z
M1163 954q16 -21 8 -46q-7 -23 -36 -34l-64 -22q-8 -2 -22 -2q-40 0 -80 31q-57 61 -156 61q-94 0 -157 -63q-62 -62 -62 -160t62 -161q63 -64 157 -64q99 0 156 61q41 29 80 29q14 0 22 -2l66 -23q27 -10 34 -34q8 -25 -8 -46q-57 -80 -148 -126t-202 -46q-179 0 -298 118
q-120 119 -120 292t120 292q118 117 298 117q227 0 350 -172z" />
    <glyph glyph-name="ordfeminine" unicode="&#xaa;" horiz-adv-x="856" 
d="M369 678q-146 0 -243 110t-97 273q0 164 98 274q99 111 242 111q116 0 202 -74q4 26 24 44q19 18 48 18h90q33 0 52 -21q20 -22 20 -51v-602q0 -29 -20 -51q-19 -21 -52 -21h-90q-31 0 -49 18q-19 19 -23 46q-86 -74 -202 -74zM420 1217q-59 0 -103 -46q-43 -44 -43 -108
q0 -66 43 -112t103 -46t103 46q44 47 44 112q0 62 -44 108t-103 46z" />
    <glyph glyph-name="guillemotleft" unicode="&#xab;" horiz-adv-x="1173" 
d="M104 586l302 301q22 22 55 22q32 0 53 -22l66 -66q22 -22 22 -53t-22 -53l-183 -183l183 -182q22 -22 22 -53t-22 -53l-66 -66q-22 -22 -53 -22q-29 0 -55 22l-302 301q-22 22 -22 53q0 32 22 54zM578 586l303 301q22 22 53 22q32 0 53 -22l66 -66q22 -22 22 -53t-22 -53
l-183 -183l183 -182q22 -22 22 -53t-22 -53l-66 -66q-22 -22 -53 -22q-27 0 -53 22l-303 301q-23 23 -23 53q0 31 23 54z" />
    <glyph glyph-name="logicalnot" unicode="&#xac;" horiz-adv-x="1228" 
d="M856 391v191h-657q-38 0 -62 24t-24 62v100q0 37 24 61q25 25 62 25h831q37 0 62 -25q24 -24 24 -61v-377q0 -37 -24 -61q-25 -25 -62 -25h-86q-35 0 -62 25q-26 24 -26 61z" />
    <glyph glyph-name="uni00AD" unicode="&#xad;" horiz-adv-x="819" 
d="M199 670h422q36 0 61 -25t25 -61v-101q0 -36 -25 -61t-61 -25h-422q-37 0 -62 25q-24 24 -24 61v101q0 37 24 61q25 25 62 25z" />
    <glyph glyph-name="registered" unicode="&#xae;" horiz-adv-x="1603" 
d="M803 1452q303 0 518 -216q215 -217 215 -519t-215 -519q-215 -216 -518 -216q-305 0 -520 215t-215 520t215 520t520 215zM184 717q0 -255 182 -437t437 -182q253 0 435 183q181 182 181 436q0 256 -181 437t-435 181q-256 0 -437 -181q-182 -182 -182 -437zM545 1114
h309q126 0 212 -78q85 -78 85 -196q0 -156 -141 -234l133 -231q14 -22 5 -39t-36 -17h-86q-26 0 -54 17t-40 39l-113 192h-145v-184q0 -26 -19 -45t-47 -19h-63q-28 0 -47 19t-19 45v668q0 26 19 45q18 18 47 18zM674 743h180q43 0 71 28q27 27 27 69t-27 71t-71 29h-180
v-197z" />
    <glyph glyph-name="macron" unicode="&#xaf;" horiz-adv-x="788" 
d="M74 1567v90q0 29 20 49t49 20h502q29 0 49 -20q21 -21 21 -49v-90q0 -29 -21 -48q-22 -20 -49 -20h-502q-27 0 -49 20q-20 19 -20 48z" />
    <glyph glyph-name="degree" unicode="&#xb0;" horiz-adv-x="856" 
d="M53 1186q0 160 108 268q109 109 267 109t267 -109q108 -108 108 -268q0 -163 -107 -272q-106 -107 -268 -107q-159 0 -267 108t-108 271zM301 1186q0 -53 37 -90t90 -37t90 37t37 90t-37 90t-90 37t-90 -37t-37 -90z" />
    <glyph glyph-name="plusminus" unicode="&#xb1;" horiz-adv-x="1228" 
d="M113 905q0 37 24 63q24 25 62 25h280v279q0 36 25 61t61 25h101q36 0 61 -25t25 -61v-279h278q38 0 62 -25q24 -26 24 -63v-98q0 -37 -24 -63q-24 -25 -62 -25h-278v-201q0 -36 -25 -61t-61 -25h-101q-36 0 -61 25t-25 61v201h-280q-38 0 -62 25q-24 26 -24 63v98z
M113 262q0 38 24 62t62 24h831q38 0 62 -24t24 -62v-100q0 -38 -24 -62t-62 -24h-831q-38 0 -62 24t-24 62v100z" />
    <glyph glyph-name="twosuperior" unicode="&#xb2;" horiz-adv-x="653" 
d="M72 911l252 234q90 84 90 147q0 33 -28 55q-27 21 -67 21q-63 0 -96 -53q-34 -29 -59 -29q-11 0 -23 6l-71 35q-23 11 -29 33q-6 24 8 41q99 145 270 145q121 0 205 -72t84 -174q0 -123 -174 -276l-106 -100h229q21 0 39 -16q16 -15 16 -40v-63q0 -25 -16 -41t-39 -16
h-459q-23 0 -39 16t-16 39v41q0 43 29 67z" />
    <glyph glyph-name="threesuperior" unicode="&#xb3;" horiz-adv-x="665" 
d="M291 1219h12q49 0 82 21t33 54q0 32 -30 53t-77 21q-65 0 -98 -39q-17 -14 -33 -14h-4l-4 2l-86 26q-24 8 -32 28q-7 19 5 40q90 135 267 135q121 0 202 -71q82 -72 82 -179q0 -88 -84 -139q107 -53 107 -164t-87 -183q-88 -73 -218 -73q-192 0 -281 146q-12 21 -3 41
t34 28l94 33q3 0 5 1t5 1q16 0 23 -18q34 -54 117 -54q50 0 84 25q32 23 32 59t-32 59t-82 23h-33q-27 0 -27 27v84q0 27 27 27z" />
    <glyph glyph-name="acute" unicode="&#xb4;" horiz-adv-x="710" 
d="M125 1645l305 192q20 14 47 14q45 0 72 -45l45 -82q18 -34 7 -66q-11 -33 -46 -48l-330 -140q-7 -4 -26 -4q-40 0 -58 33l-37 64q-29 52 21 82z" />
    <glyph glyph-name="mu" unicode="&#xb5;" horiz-adv-x="1177" 
d="M186 -461q-42 0 -71 29t-29 72v1325q0 42 29 71t71 29h105q45 0 74 -29q28 -28 28 -71v-502q0 -88 56 -147q55 -58 139 -58q83 0 140 58q56 57 56 147v502q0 42 29 71t74 29h104q43 0 72 -29t29 -71v-865q0 -42 -29 -71t-72 -29h-104q-45 0 -74 29t-29 71v9
q-107 -136 -290 -136q-60 0 -123 19v-352q0 -43 -29 -72t-74 -29h-82z" />
    <glyph glyph-name="paragraph" unicode="&#xb6;" horiz-adv-x="1431" 
d="M494 1434h823q28 0 48 -20q19 -19 19 -50v-84q0 -29 -19 -49q-19 -21 -48 -21h-129v-1499q0 -31 -21 -50q-20 -19 -49 -19h-96q-29 0 -49 19q-21 19 -21 50v1499h-223v-1499q0 -31 -19 -50t-48 -19h-99q-29 0 -49 19t-20 50v864q-185 0 -308 123t-123 306q0 184 123 307
t308 123z" />
    <glyph glyph-name="periodcentered" unicode="&#xb7;" horiz-adv-x="460" 
d="M57 717q0 76 49 125t123 49q77 0 126 -49q51 -51 51 -125t-51 -125q-49 -49 -126 -49q-74 0 -123 49t-49 125z" />
    <glyph glyph-name="cedilla" unicode="&#xb8;" horiz-adv-x="643" 
d="M113 -422q-17 6 -25 26q-8 21 -4 40l10 49q6 26 29 26q10 0 18 -2q51 -22 99 -22q53 0 86 17q34 18 34 44q0 51 -120 66q-41 11 -35 47l33 131h208l-18 -82l6 -2q5 -1 9 -2q7 -1 33 -14q23 -11 42 -29q20 -18 34 -48q15 -31 15 -71q0 -93 -77 -156q-76 -63 -193 -63
q-90 0 -184 45z" />
    <glyph glyph-name="onesuperior" unicode="&#xb9;" horiz-adv-x="501" 
d="M76 1317l-23 53q-10 20 -1 43q9 24 30 31l160 76q32 16 75 16h54q39 0 39 -39v-692q0 -24 -17 -41q-16 -16 -41 -16h-69q-25 0 -40 16q-16 18 -16 41v524l-77 -41q-7 -4 -23 -4q-39 0 -51 33z" />
    <glyph glyph-name="ordmasculine" unicode="&#xba;" horiz-adv-x="858" 
d="M29 1061q0 162 114 273q115 112 287 112q169 0 286 -112q115 -111 115 -273t-115 -273q-114 -110 -286 -110q-174 0 -287 110q-114 111 -114 273zM272 1061q0 -64 46 -110t112 -46q64 0 110 46t46 110q0 63 -46 109q-47 47 -110 47q-65 0 -112 -47q-46 -46 -46 -109z" />
    <glyph glyph-name="guillemotright" unicode="&#xbb;" horiz-adv-x="1173" 
d="M1069 479l-303 -301q-22 -22 -53 -22q-28 0 -54 22l-65 66q-23 23 -23 53t23 53l180 182l-180 183q-23 23 -23 53t23 53l65 66q22 22 54 22t53 -22l303 -301q23 -23 23 -54q0 -30 -23 -53zM594 479l-301 -301q-22 -22 -53 -22q-28 0 -54 22l-67 66q-23 23 -23 53t23 53
l182 182l-182 183q-23 23 -23 53t23 53l67 66q22 22 54 22t53 -22l301 -301q22 -22 22 -54q0 -31 -22 -53z" />
    <glyph glyph-name="onequarter" unicode="&#xbc;" horiz-adv-x="1677" 
d="M223 0q-29 0 -36 15q-7 14 10 38l931 1327q35 54 101 54h127q27 0 35 -16q8 -15 -9 -38l-931 -1327q-35 -53 -103 -53h-125zM991 199v77q0 40 27 74l332 395q34 43 92 43h65q23 0 39 -16q17 -17 17 -39v-416h39q20 0 34 -13q15 -14 15 -36v-78q0 -22 -15 -35
q-16 -14 -34 -14h-39v-84q0 -24 -17 -41q-16 -16 -41 -16h-71q-25 0 -41 16q-17 17 -17 41v84h-327q-24 0 -41 17t-17 41zM53 1268q-10 20 -1 43t30 30l160 76q34 17 75 17h54q39 0 39 -39v-693q0 -24 -17 -41q-16 -16 -41 -16h-69q-25 0 -40 16q-16 18 -16 41v525l-77 -41
q-7 -4 -23 -4q-39 0 -51 32zM1212 317h164v199z" />
    <glyph glyph-name="onehalf" unicode="&#xbd;" horiz-adv-x="1728" 
d="M223 0q-29 0 -36 15q-7 14 10 38l931 1327q35 54 101 54h127q27 0 35 -16q8 -15 -9 -38l-931 -1327q-35 -53 -103 -53h-125zM1147 580q-23 11 -30 32q-8 23 7 41q102 146 273 146q117 0 202 -73q84 -72 84 -173q0 -127 -174 -277l-106 -100h229q24 0 41 -15t17 -40v-64
q0 -24 -17 -41q-16 -16 -41 -16h-458q-23 0 -39 16q-17 17 -17 39v41q0 40 31 68l250 233q92 83 92 148q0 32 -28 54t-66 22q-60 0 -99 -54q-32 -28 -59 -28q-10 0 -22 6zM53 1268q-10 20 -1 43t30 30l160 76q34 17 75 17h54q39 0 39 -39v-693q0 -23 -17 -40t-41 -17h-69
q-25 0 -40 17q-16 18 -16 40v525l-77 -41q-7 -4 -23 -4q-39 0 -51 32z" />
    <glyph glyph-name="threequarters" unicode="&#xbe;" horiz-adv-x="1814" 
d="M356 0q-26 0 -34 15q-8 16 8 38l932 1327q35 54 102 54h125q28 0 36 -16q8 -15 -9 -38l-932 -1327q-35 -53 -101 -53h-127zM1130 199v77q0 40 27 74l332 395q34 43 92 43h64q25 0 41 -16t16 -39v-416h39q21 0 35 -14t14 -35v-78q0 -20 -14 -34q-15 -15 -35 -15h-39v-84
q0 -25 -16 -41t-41 -16h-72q-25 0 -41 16t-16 41v84h-328q-24 0 -41 17t-17 41zM47 780q-12 21 -3 41q9 21 34 29l94 33q3 0 5 1t5 1q15 0 23 -19q33 -53 117 -53q50 0 84 25q32 23 32 59q0 35 -32 58q-33 24 -82 24h-33q-27 0 -27 27v84q0 26 27 26h12q47 0 82 22
q33 21 33 54q0 31 -30 52q-31 22 -77 22q-65 0 -98 -39q-18 -15 -33 -15h-4l-4 2l-86 27q-24 8 -32 28q-7 19 5 40q90 135 267 135q119 0 202 -72q82 -72 82 -178q0 -88 -84 -139q107 -53 107 -164t-87 -183q-88 -73 -218 -73q-193 0 -281 145zM1350 317h166v199z" />
    <glyph glyph-name="questiondown" unicode="&#xbf;" horiz-adv-x="1206" 
d="M670 293q-112 -34 -195 -91q-86 -59 -86 -141q0 -68 67 -118q65 -49 165 -49q137 0 204 90q29 36 68 36q10 0 18 -2l158 -43q42 -10 60 -47t-3 -71q-69 -122 -202 -192q-134 -71 -297 -71q-236 0 -394 134q-157 133 -157 335q0 97 40 176q41 80 96 122q64 49 113 76
q57 32 97 42l39 10l6 48q4 27 23 44q18 17 47 17h137q28 0 45 -17q18 -18 22 -44l15 -119q4 -37 -19 -73q-22 -34 -67 -52zM791 909q0 -77 -53 -130q-52 -52 -130 -52t-130 52t-52 130t52 130q53 53 130 53t130 -53t53 -130z" />
    <glyph glyph-name="Agrave" unicode="&#xc0;" horiz-adv-x="1501" 
d="M53 94l531 1260q16 36 48 57q35 23 73 23h92q37 0 71 -24q36 -25 50 -56l530 -1260q17 -41 -1 -67q-18 -27 -61 -27h-137q-43 0 -83 27q-39 26 -56 67l-59 148h-598l-62 -148q-15 -39 -55 -66q-42 -28 -84 -28h-137q-45 0 -62 27q-16 27 0 67zM424 1819l45 82
q24 47 74 47q21 0 45 -15l307 -194q24 -16 28 -37q5 -23 -10 -45l-34 -64q-20 -32 -58 -32q-14 0 -26 6l-330 139q-36 15 -47 47q-12 33 6 66zM571 532h361l-180 439z" />
    <glyph glyph-name="Aacute" unicode="&#xc1;" horiz-adv-x="1501" 
d="M53 94l531 1260q16 36 48 57q35 23 73 23h92q37 0 71 -24q36 -25 50 -56l530 -1260q17 -41 -1 -67q-18 -27 -61 -27h-137q-43 0 -83 27q-39 26 -56 67l-59 148h-598l-62 -148q-15 -39 -55 -66q-42 -28 -84 -28h-137q-45 0 -62 27q-16 27 0 67zM598 1739l305 194
q24 15 45 15q50 0 74 -47l47 -82q18 -33 6 -66q-11 -32 -47 -47l-330 -139q-12 -6 -26 -6q-38 0 -58 32l-36 64q-29 52 20 82zM571 532h361l-180 439z" />
    <glyph glyph-name="Acircumflex" unicode="&#xc2;" horiz-adv-x="1501" 
d="M53 94l531 1260q16 36 48 57q35 23 73 23h92q37 0 71 -24q36 -25 50 -56l530 -1260q17 -41 -1 -67q-18 -27 -61 -27h-137q-43 0 -83 27q-39 26 -56 67l-59 148h-598l-62 -148q-15 -39 -55 -66q-42 -28 -84 -28h-137q-45 0 -62 27q-16 27 0 67zM416 1726l278 203
q23 17 56 17q36 0 55 -17l280 -203q21 -17 24 -39q3 -25 -11 -45l-41 -59q-21 -27 -53 -27q-15 0 -33 9l-221 127l-222 -129q-18 -9 -32 -9q-36 0 -54 29l-41 59q-15 21 -10 46q4 23 25 38zM571 532h361l-180 439z" />
    <glyph glyph-name="Atilde" unicode="&#xc3;" horiz-adv-x="1501" 
d="M53 94l531 1260q16 36 48 57q35 23 73 23h92q37 0 71 -24q36 -25 50 -56l530 -1260q17 -41 -1 -67q-18 -27 -61 -27h-137q-43 0 -83 27q-39 26 -56 67l-59 148h-598l-62 -148q-15 -39 -55 -66q-42 -28 -84 -28h-137q-45 0 -62 27q-16 27 0 67zM399 1645q22 83 89 141
q66 57 151 57q63 0 126 -42t79 -42q40 0 55 45q11 29 33 29h110q29 0 47 -19q17 -19 11 -47q-21 -85 -85 -142q-63 -56 -151 -56q-64 0 -128 41t-81 41q-40 0 -55 -45q-10 -27 -33 -27h-110q-28 0 -46 19q-18 20 -12 47zM571 532h361l-180 439z" />
    <glyph glyph-name="Adieresis" unicode="&#xc4;" horiz-adv-x="1501" 
d="M53 94l531 1260q16 36 48 57q35 23 73 23h92q37 0 71 -24q36 -25 50 -56l530 -1260q17 -41 -1 -67q-18 -27 -61 -27h-137q-43 0 -83 27q-39 26 -56 67l-59 148h-598l-62 -148q-15 -39 -55 -66q-42 -28 -84 -28h-137q-45 0 -62 27q-16 27 0 67zM532 1855q70 0 116 -46
t46 -115q0 -70 -46 -116t-116 -46q-69 0 -115 46t-46 116q0 69 46 115t115 46zM807 1694q0 69 46 115t114 46q70 0 116 -46q47 -47 47 -115q0 -69 -47 -116q-46 -46 -116 -46q-68 0 -114 46t-46 116zM571 532h361l-180 439z" />
    <glyph glyph-name="Aring" unicode="&#xc5;" horiz-adv-x="1501" 
d="M53 94l531 1260q16 36 48 57q35 23 73 23h92q37 0 71 -24q36 -25 50 -56l530 -1260q17 -41 -1 -67q-18 -27 -61 -27h-137q-43 0 -83 27q-39 26 -56 67l-59 148h-598l-62 -148q-15 -39 -55 -66q-42 -28 -84 -28h-137q-45 0 -62 27q-16 27 0 67zM750 2025q103 0 176 -73
t73 -176q0 -106 -73 -178q-74 -72 -176 -72q-104 0 -176 72t-72 178q0 102 72 176q72 73 176 73zM571 532h361l-180 439zM686 1776q0 -26 19 -45t45 -19q28 0 47 19q18 18 18 45t-18 45t-47 18q-27 0 -45 -18q-19 -19 -19 -45z" />
    <glyph glyph-name="AE" unicode="&#xc6;" horiz-adv-x="2097" 
d="M63 88l762 1260q23 34 66 60q44 26 86 26h948q43 0 72 -29q28 -28 28 -72v-98q0 -44 -28 -72t-72 -28h-584v-263h467q44 0 72 -28q29 -29 29 -72v-96q0 -45 -29 -74t-72 -29h-467v-274h594q43 0 72 -29t29 -71v-99q0 -42 -29 -71t-72 -29h-817q-42 0 -71 29t-29 71v142
h-498l-92 -154q-21 -39 -64 -63q-45 -25 -88 -25h-161q-45 0 -60 26q-14 25 8 62zM690 532h328v551z" />
    <glyph glyph-name="Ccedilla" unicode="&#xc7;" horiz-adv-x="1554" 
d="M68 717q0 317 215 530q214 213 536 213q198 0 365 -87t268 -236q22 -34 10 -72q-12 -36 -55 -51l-152 -58q-12 -6 -28 -6q-45 0 -82 43q-123 156 -326 156q-177 0 -295 -124t-118 -308t118 -308t295 -124q204 0 326 155q33 43 82 43q13 0 28 -6l152 -57q43 -15 55 -51
q12 -38 -10 -72q-86 -126 -218 -208q-133 -83 -294 -107l-14 -64l6 -2q5 -1 9 -2q9 -2 34 -14t43 -29q20 -18 34 -48q15 -31 15 -71q0 -93 -77 -156q-76 -63 -193 -63q-91 0 -185 45q-16 6 -25 26t-5 40l10 49q6 26 31 26q10 0 18 -2q48 -22 98 -22q53 0 86 17q35 18 35 44
q0 51 -121 66q-44 10 -34 47l24 108q-288 30 -475 239q-186 208 -186 501z" />
    <glyph glyph-name="Egrave" unicode="&#xc8;" horiz-adv-x="1232" 
d="M96 1333q0 43 29 72t72 29h870q43 0 72 -29q28 -28 28 -72v-98q0 -44 -28 -72t-72 -28h-645v-263h526q44 0 72 -28q29 -29 29 -72v-96q0 -45 -29 -74t-72 -29h-526v-274h655q43 0 72 -29t29 -71v-99q0 -42 -29 -71t-72 -29h-880q-43 0 -72 29t-29 71v1233zM342 1706
q-34 15 -46 47t5 66l45 82q24 47 74 47q21 0 45 -15l307 -194q50 -30 21 -82l-37 -64q-20 -32 -58 -32q-14 0 -26 6z" />
    <glyph glyph-name="Eacute" unicode="&#xc9;" horiz-adv-x="1232" 
d="M96 1333q0 43 29 72t72 29h870q43 0 72 -29q28 -28 28 -72v-98q0 -44 -28 -72t-72 -28h-645v-263h526q44 0 72 -28q29 -29 29 -72v-96q0 -45 -29 -74t-72 -29h-526v-274h655q43 0 72 -29t29 -71v-99q0 -42 -29 -71t-72 -29h-880q-43 0 -72 29t-29 71v1233zM457 1657
q-15 22 -10 45q4 21 28 37l307 194q24 15 45 15q50 0 74 -47l45 -82q19 -34 7 -66t-46 -47l-332 -139q-12 -6 -26 -6q-37 0 -57 32z" />
    <glyph glyph-name="Ecircumflex" unicode="&#xca;" horiz-adv-x="1232" 
d="M96 1333q0 43 29 72t72 29h870q43 0 72 -29q28 -28 28 -72v-98q0 -44 -28 -72t-72 -28h-645v-263h526q44 0 72 -28q29 -29 29 -72v-96q0 -45 -29 -74t-72 -29h-526v-274h655q43 0 72 -29t29 -71v-99q0 -42 -29 -71t-72 -29h-880q-43 0 -72 29t-29 71v1233zM279 1642
q-16 22 -11 46q4 23 25 38l280 203q23 17 56 17q32 0 55 -17l279 -203q19 -14 24 -38q5 -25 -10 -46l-41 -59q-22 -27 -53 -27q-15 0 -33 9l-221 127l-223 -129q-18 -9 -31 -9q-33 0 -56 29z" />
    <glyph glyph-name="Edieresis" unicode="&#xcb;" horiz-adv-x="1232" 
d="M96 1333q0 43 29 72t72 29h870q43 0 72 -29q28 -28 28 -72v-98q0 -44 -28 -72t-72 -28h-645v-263h526q44 0 72 -28q29 -29 29 -72v-96q0 -45 -29 -74t-72 -29h-526v-274h655q43 0 72 -29t29 -71v-99q0 -42 -29 -71t-72 -29h-880q-43 0 -72 29t-29 71v1233zM684 1694
q0 69 46 115t116 46t116 -46t46 -115q0 -70 -46 -116t-116 -46t-116 46t-46 116zM410 1532q-70 0 -116 46t-46 116q0 69 46 115t116 46q69 0 115 -46t46 -115q0 -70 -46 -116t-115 -46z" />
    <glyph glyph-name="Igrave" unicode="&#xcc;" horiz-adv-x="518" 
d="M96 100v1233q0 43 29 72t72 29h122q45 0 74 -29t29 -72v-1233q0 -42 -29 -71t-74 -29h-122q-43 0 -72 29t-29 71zM-68 1819l45 82q24 47 74 47q21 0 45 -15l307 -194q50 -30 21 -82l-37 -64q-20 -32 -57 -32q-15 0 -27 6l-330 139q-36 15 -47 47q-12 33 6 66z" />
    <glyph glyph-name="Iacute" unicode="&#xcd;" horiz-adv-x="518" 
d="M96 100v1233q0 43 29 72t72 29h122q45 0 74 -29t29 -72v-1233q0 -42 -29 -71t-74 -29h-122q-43 0 -72 29t-29 71zM106 1739l308 194q24 15 45 15q48 0 71 -47l48 -82q18 -33 6 -66q-11 -32 -47 -47l-330 -139q-12 -6 -27 -6q-37 0 -57 32l-35 64q-14 21 -9 45q4 22 27 37
z" />
    <glyph glyph-name="Icircumflex" unicode="&#xce;" horiz-adv-x="518" 
d="M96 100v1233q0 43 29 72t72 29h122q45 0 74 -29t29 -72v-1233q0 -42 -29 -71t-74 -29h-122q-43 0 -72 29t-29 71zM-49 1583l-41 59q-15 21 -10 46q5 24 24 38l281 203q23 17 55 17t55 -17l279 -203q20 -16 23 -39q3 -25 -11 -45l-41 -59q-21 -27 -53 -27q-13 0 -31 9
l-221 127l-223 -129q-18 -9 -33 -9q-35 0 -53 29z" />
    <glyph glyph-name="Idieresis" unicode="&#xcf;" horiz-adv-x="518" 
d="M96 100v1233q0 43 29 72t72 29h122q45 0 74 -29t29 -72v-1233q0 -42 -29 -71t-74 -29h-122q-43 0 -72 29t-29 71zM-121 1694q0 69 46 115t116 46t116 -46t46 -115q0 -70 -46 -116t-116 -46t-116 46t-46 116zM315 1694q0 69 46 115t116 46t116 -46t46 -115q0 -70 -46 -116
t-116 -46t-116 46t-46 116z" />
    <glyph glyph-name="Eth" unicode="&#xd0;" horiz-adv-x="1560" 
d="M16 766q0 34 24 58t60 24h52v485q0 44 29 72q31 29 73 29h487q322 0 538 -207t216 -510t-216 -510t-538 -207h-487q-42 0 -73 29q-29 28 -29 71v486h-52q-37 0 -60 23q-24 24 -24 59v98zM477 848h264q36 0 60 -24t24 -58v-98q0 -35 -24 -59q-23 -23 -60 -23h-264v-287
h264q179 0 297 121q119 122 119 297t-119 297q-118 121 -297 121h-264v-287z" />
    <glyph glyph-name="Ntilde" unicode="&#xd1;" horiz-adv-x="1476" 
d="M197 0q-43 0 -72 29t-29 71v1233q0 43 29 72t72 29h98q39 0 81 -21q41 -21 64 -51l627 -807v778q0 43 30 72q31 29 72 29h111q43 0 72 -29q28 -28 28 -72v-1233q0 -43 -28 -71q-29 -29 -72 -29h-98q-41 0 -81 20q-42 21 -65 52l-626 802v-774q0 -42 -30 -71
q-31 -29 -73 -29h-110zM444 1579q-29 0 -45 19t-10 47q21 84 87 141t151 57q63 0 126 -42t81 -42q38 0 55 45q11 29 31 29h112q28 0 46 -19q18 -20 12 -47q-21 -85 -85 -142q-63 -56 -151 -56q-64 0 -128 41t-81 41q-41 0 -57 -45q-6 -27 -31 -27h-113z" />
    <glyph glyph-name="Ograve" unicode="&#xd2;" horiz-adv-x="1638" 
d="M68 717q0 317 215 530q214 213 536 213t538 -213t216 -530q0 -318 -216 -531t-538 -213q-321 0 -536 213t-215 531zM406 717q0 -184 118 -308t295 -124q179 0 297 124q119 125 119 308t-119 308q-118 124 -297 124q-177 0 -295 -124t-118 -308zM494 1819l45 82
q24 47 73 47q21 0 45 -15l308 -194q23 -15 27 -37q5 -24 -9 -45l-35 -64q-20 -32 -57 -32q-15 0 -27 6l-332 139q-34 15 -46 47q-11 31 8 66z" />
    <glyph glyph-name="Oacute" unicode="&#xd3;" horiz-adv-x="1638" 
d="M68 717q0 317 215 530q214 213 536 213t538 -213t216 -530q0 -318 -216 -531t-538 -213q-321 0 -536 213t-215 531zM406 717q0 -184 118 -308t295 -124q179 0 297 124q119 125 119 308t-119 308q-118 124 -297 124q-177 0 -295 -124t-118 -308zM668 1739l305 194
q24 15 45 15q50 0 74 -47l45 -82q19 -34 7 -66t-46 -47l-330 -139q-12 -6 -27 -6q-37 0 -57 32l-37 64q-29 52 21 82z" />
    <glyph glyph-name="Ocircumflex" unicode="&#xd4;" horiz-adv-x="1638" 
d="M68 717q0 317 215 530q214 213 536 213t538 -213t216 -530q0 -318 -216 -531t-538 -213q-321 0 -536 213t-215 531zM406 717q0 -184 118 -308t295 -124q179 0 297 124q119 125 119 308t-119 308q-118 124 -297 124q-177 0 -295 -124t-118 -308zM512 1583l-41 59
q-15 21 -10 46q5 24 24 38l279 203q23 17 55 17q36 0 55 -17l281 -203q21 -17 24 -39q3 -24 -12 -45l-41 -59q-22 -27 -53 -27q-15 0 -33 9l-221 127l-221 -129q-18 -9 -33 -9q-35 0 -53 29z" />
    <glyph glyph-name="Otilde" unicode="&#xd5;" horiz-adv-x="1638" 
d="M68 717q0 317 215 530q214 213 536 213t538 -213t216 -530q0 -318 -216 -531t-538 -213q-321 0 -536 213t-215 531zM406 717q0 -184 118 -308t295 -124q179 0 297 124q119 125 119 308t-119 308q-118 124 -297 124q-177 0 -295 -124t-118 -308zM469 1645q22 83 89 141
q66 57 149 57q64 0 127 -42t79 -42q41 0 56 45q11 29 32 29h111q28 0 46 -19q17 -19 11 -47q-21 -85 -85 -142q-63 -56 -150 -56q-64 0 -128 41t-81 41q-40 0 -55 -45q-10 -27 -33 -27h-111q-28 0 -46 19q-17 19 -11 47z" />
    <glyph glyph-name="Odieresis" unicode="&#xd6;" horiz-adv-x="1638" 
d="M68 717q0 317 215 530q214 213 536 213t538 -213t216 -530q0 -318 -216 -531t-538 -213q-321 0 -536 213t-215 531zM406 717q0 -184 118 -308t295 -124q179 0 297 124q119 125 119 308t-119 308q-118 124 -297 124q-177 0 -295 -124t-118 -308zM440 1694q0 69 46 115
t116 46t116 -46t46 -115q0 -70 -46 -116t-116 -46t-116 46t-46 116zM877 1694q0 69 46 115t113 46q71 0 117 -46q47 -47 47 -115q0 -69 -47 -116q-46 -46 -117 -46q-67 0 -113 46t-46 116z" />
    <glyph glyph-name="multiply" unicode="&#xd7;" horiz-adv-x="1228" 
d="M178 1081l70 70q27 27 63 27q38 0 62 -27l241 -240l244 242q24 27 62 27q37 0 61 -27l70 -70q26 -26 26 -62q0 -37 -26 -60l-242 -244l242 -240q26 -26 26 -61q0 -36 -26 -62l-70 -71q-27 -27 -61 -27q-35 0 -62 27l-244 241l-241 -241q-27 -27 -62 -27q-33 0 -63 27
l-70 71q-26 26 -26 62q0 35 26 61l242 240l-242 239q-26 26 -26 63q0 36 26 62z" />
    <glyph glyph-name="Oslash" unicode="&#xd8;" horiz-adv-x="1638" 
d="M293 121l24 35q-118 100 -184 245q-65 143 -65 316q0 317 215 530q214 213 536 213q190 0 355 -80l26 37q17 23 43 23q20 0 31 -10l59 -44q45 -30 15 -73l-25 -35q250 -217 250 -561q0 -318 -216 -531t-538 -213q-190 0 -350 80l-27 -37q-16 -22 -45 -22q-19 0 -30 10
l-58 41q-45 30 -16 76zM1133 1006l-480 -687q75 -34 166 -34q179 0 297 124q119 125 119 308q0 175 -102 289zM508 426l479 688q-78 35 -168 35q-177 0 -295 -124t-118 -308q0 -173 102 -291z" />
    <glyph glyph-name="Ugrave" unicode="&#xd9;" horiz-adv-x="1437" 
d="M84 1333q0 43 29 72t71 29h123q43 0 72 -29t29 -72v-751q0 -133 89 -222q88 -88 222 -88t222 88q89 89 89 222v751q0 43 29 72t71 29h123q43 0 72 -29t29 -72v-753q0 -259 -183 -433t-452 -174q-270 0 -453 174q-182 173 -182 433v753zM432 1706q-34 15 -46 47t7 66
l43 82q24 47 74 47q21 0 45 -15l309 -194q24 -16 28 -37q5 -24 -9 -45l-35 -64q-20 -32 -57 -32q-15 0 -27 6z" />
    <glyph glyph-name="Uacute" unicode="&#xda;" horiz-adv-x="1437" 
d="M84 580v753q0 43 29 72t71 29h123q43 0 72 -29t29 -72v-751q0 -133 89 -222q88 -88 222 -88t222 88q89 89 89 222v751q0 43 29 72t71 29h123q43 0 72 -29t29 -72v-753q0 -259 -183 -433t-452 -174q-270 0 -453 174q-182 173 -182 433zM547 1657q-14 21 -9 45q4 22 27 37
l307 194q24 15 46 15q49 0 73 -47l45 -82q19 -34 7 -66t-46 -47l-331 -139q-12 -6 -27 -6q-37 0 -57 32z" />
    <glyph glyph-name="Ucircumflex" unicode="&#xdb;" horiz-adv-x="1437" 
d="M719 -27q-270 0 -453 174q-182 173 -182 433v753q0 43 29 72t71 29h123q43 0 72 -29t29 -72v-751q0 -133 89 -222q88 -88 222 -88t222 88q89 89 89 222v751q0 43 29 72t71 29h123q43 0 72 -29t29 -72v-753q0 -259 -183 -433t-452 -174zM371 1642q-15 21 -12 46
q3 23 24 38l281 203q23 17 55 17t55 -17l279 -203q20 -15 24 -39q5 -25 -10 -45l-41 -59q-22 -27 -53 -27q-15 0 -33 9l-221 127l-223 -129q-18 -9 -31 -9q-35 0 -53 29z" />
    <glyph glyph-name="Udieresis" unicode="&#xdc;" horiz-adv-x="1437" 
d="M719 -27q-270 0 -453 174q-182 173 -182 433v753q0 43 29 72t71 29h123q43 0 72 -29t29 -72v-751q0 -133 89 -222q88 -88 222 -88t222 88q89 89 89 222v751q0 43 29 72t71 29h123q43 0 72 -29t29 -72v-753q0 -259 -183 -433t-452 -174zM502 1532q-71 0 -117 46
q-47 47 -47 116q0 68 47 115q46 46 117 46q69 0 115 -46q47 -47 47 -115q0 -69 -47 -116q-46 -46 -115 -46zM936 1532q-69 0 -115 46q-47 47 -47 116q0 68 47 115q46 46 115 46q71 0 117 -46q47 -47 47 -115q0 -69 -47 -116q-46 -46 -117 -46z" />
    <glyph glyph-name="Yacute" unicode="&#xdd;" horiz-adv-x="1429" 
d="M115 1434h170q42 0 86 -26q42 -25 65 -60l273 -455l284 455q22 36 67 61t87 25h170q42 0 56 -25q13 -24 -11 -59l-490 -752v-498q0 -43 -28 -71q-29 -29 -72 -29h-123q-42 0 -71 29t-29 71v490l-481 758q-23 38 -11 61q13 25 58 25zM563 1739l307 194q24 15 45 15
q50 0 74 -47l45 -82q19 -34 7 -66t-46 -47l-331 -139q-12 -6 -27 -6q-37 0 -57 32l-35 64q-14 21 -9 45q4 22 27 37z" />
    <glyph glyph-name="Thorn" unicode="&#xde;" horiz-adv-x="1323" 
d="M197 0q-43 0 -72 29t-29 71v1233q0 43 29 72t72 29h122q45 0 74 -29t29 -72v-135h326q220 0 369 -138t149 -343t-149 -343t-369 -138h-326v-136q0 -42 -29 -71t-74 -29h-122zM748 899h-326v-364h326q78 0 129 52q51 53 51 130t-51 130q-51 52 -129 52z" />
    <glyph glyph-name="germandbls" unicode="&#xdf;" horiz-adv-x="1224" 
d="M678 281q106 6 147 27t41 67q0 45 -33 79q-33 35 -81 67q-51 35 -95 70q-45 36 -80 102q-34 64 -34 147q0 86 36 152q38 70 70 110q35 44 35 74q0 39 -38 63q-39 25 -89 25q-71 0 -117 -43q-47 -44 -47 -109v-1012q0 -43 -28 -71q-29 -29 -74 -29h-105q-42 0 -71 29
t-29 71v1065q0 170 133 284q134 114 334 114q187 0 316 -103q128 -102 128 -256q0 -77 -35 -138q-37 -65 -72 -110q-36 -46 -36 -86q0 -41 34 -78q36 -39 81 -74q49 -38 94 -80q46 -43 81 -119q34 -74 34 -171q0 -177 -119 -266q-118 -88 -381 -100q-42 -2 -69 25t-27 69
v106q0 42 27 69q29 29 69 30z" />
    <glyph glyph-name="agrave" unicode="&#xe0;" 
d="M547 -27q-211 0 -352 161q-142 162 -142 398q0 240 142 400t352 160q175 0 305 -113q4 37 33 61q30 25 67 25h105q42 0 71 -29t29 -71v-865q0 -42 -29 -71t-71 -29h-105q-37 0 -67 25q-29 24 -33 63q-132 -115 -305 -115zM610 788q-100 0 -169 -73q-68 -72 -68 -180
q0 -113 68 -185q69 -74 169 -74q99 0 168 74q70 75 70 185q0 105 -70 180q-69 73 -168 73zM344 1358q-34 15 -46 47q-11 31 7 65l43 82q24 47 74 47q23 0 45 -14l309 -194q47 -33 19 -82l-37 -64q-21 -33 -58 -33q-12 0 -26 7z" />
    <glyph glyph-name="aacute" unicode="&#xe1;" 
d="M53 532q0 240 142 400t352 160q175 0 305 -113q4 37 33 61q30 25 67 25h105q42 0 71 -29t29 -71v-865q0 -42 -29 -71t-71 -29h-105q-37 0 -67 25q-29 24 -33 63q-132 -115 -305 -115q-211 0 -352 161q-142 162 -142 398zM610 788q-100 0 -169 -73q-68 -72 -68 -180
q0 -113 68 -185q69 -74 169 -74q99 0 168 74q70 75 70 185q0 105 -70 180q-69 73 -168 73zM459 1309q-14 21 -9 45q4 22 27 37l307 194q22 14 45 14q50 0 74 -47l45 -82q18 -34 7 -65q-12 -32 -46 -47l-331 -139q-14 -7 -27 -7q-36 0 -57 33z" />
    <glyph glyph-name="acircumflex" unicode="&#xe2;" 
d="M53 532q0 240 142 400t352 160q175 0 305 -113q4 37 33 61q30 25 67 25h105q42 0 71 -29t29 -71v-865q0 -42 -29 -71t-71 -29h-105q-37 0 -67 25q-29 24 -33 63q-132 -115 -305 -115q-211 0 -352 161q-142 162 -142 398zM610 788q-100 0 -169 -73q-68 -72 -68 -180
q0 -113 68 -185q69 -74 169 -74q99 0 168 74q70 75 70 185q0 105 -70 180q-69 73 -168 73zM283 1294q-15 21 -12 45t24 39l280 203q22 16 56 16q33 0 55 -16l279 -203q19 -15 24 -40q4 -24 -10 -44l-41 -59q-22 -27 -53 -27q-15 0 -33 9l-221 126l-223 -129q-16 -8 -31 -8
q-35 0 -53 29z" />
    <glyph glyph-name="atilde" unicode="&#xe3;" 
d="M547 -27q-211 0 -352 161q-142 162 -142 398q0 240 142 400t352 160q175 0 305 -113q4 37 33 61q30 25 67 25h105q42 0 71 -29t29 -71v-865q0 -42 -29 -71t-71 -29h-105q-37 0 -67 25q-29 24 -33 63q-132 -115 -305 -115zM610 788q-100 0 -169 -73q-68 -72 -68 -180
q0 -113 68 -185q69 -74 169 -74q99 0 168 74q70 75 70 185q0 105 -70 180q-69 73 -168 73zM336 1231q-28 0 -46 19q-17 19 -11 46q23 85 89 142t150 57q63 0 126 -42t81 -42q39 0 55 45q11 29 31 29h113q28 0 46 -20q17 -19 11 -46q-21 -88 -86 -143t-152 -55q-65 0 -127 41
t-79 41q-41 0 -58 -46q-10 -26 -30 -26h-113z" />
    <glyph glyph-name="adieresis" unicode="&#xe4;" 
d="M547 -27q-211 0 -352 161q-142 162 -142 398q0 240 142 400t352 160q175 0 305 -113q4 37 33 61q30 25 67 25h105q42 0 71 -29t29 -71v-865q0 -42 -29 -71t-71 -29h-105q-37 0 -67 25q-29 24 -33 63q-132 -115 -305 -115zM373 535q0 -113 68 -185q69 -74 169 -74
q99 0 168 74q70 75 70 185q0 105 -70 180q-69 73 -168 73q-100 0 -169 -73q-68 -72 -68 -180zM412 1184q-69 0 -115 46q-47 47 -47 116q0 68 47 115q46 46 115 46t115 -46t46 -115q0 -70 -46 -116t-115 -46zM848 1184q-69 0 -115 46q-47 47 -47 116q0 68 47 115
q46 46 115 46q70 0 116 -46t46 -115q0 -70 -46 -116t-116 -46z" />
    <glyph glyph-name="aring" unicode="&#xe5;" 
d="M547 -27q-211 0 -352 161q-142 162 -142 398q0 240 142 400t352 160q175 0 305 -113q4 37 33 61q30 25 67 25h105q42 0 71 -29t29 -71v-865q0 -42 -29 -71t-71 -29h-105q-37 0 -67 25q-29 24 -33 63q-132 -115 -305 -115zM381 1427q0 102 73 177q72 73 177 73
q103 0 176 -73q74 -74 74 -177q0 -105 -74 -177q-73 -72 -176 -72q-105 0 -177 72q-73 73 -73 177zM373 535q0 -113 68 -185q69 -74 169 -74q99 0 168 74q70 75 70 185q0 105 -70 180q-69 73 -168 73q-100 0 -169 -73q-68 -72 -68 -180zM631 1491q-28 0 -46 -18t-18 -46
q0 -27 18 -45t46 -18t46 18q17 17 17 45q0 29 -17 46q-18 18 -46 18z" />
    <glyph glyph-name="ae" unicode="&#xe6;" horiz-adv-x="2019" 
d="M543 -27q-208 0 -349 161q-141 160 -141 398q0 241 141 400q142 160 349 160q178 0 309 -119q4 40 32 66t68 26h105q37 0 65 -23q27 -23 33 -59q132 109 303 109q233 0 380 -170q147 -169 142 -400q-1 -40 -34 -70t-78 -30h-692q27 -84 96 -135t164 -51q103 0 174 59
q33 27 69 27q5 0 17 -3l149 -34q43 -7 57 -42q13 -33 -12 -67q-147 -203 -409 -203q-182 0 -324 115q-5 -39 -33 -63q-30 -25 -67 -25h-105q-40 0 -68 26t-32 66q-136 -119 -309 -119zM373 535q0 -113 68 -185q69 -74 169 -74q99 0 168 74q70 75 70 185q0 105 -70 180
q-69 73 -168 73q-100 0 -169 -73q-68 -72 -68 -180zM1178 649h487q-27 81 -93 131q-65 49 -155 49q-82 0 -147 -49t-92 -131z" />
    <glyph glyph-name="ccedilla" unicode="&#xe7;" horiz-adv-x="1191" 
d="M532 -20q-211 30 -345 184t-134 368q0 241 163 400q165 160 407 160q159 0 290 -74q132 -74 205 -201q23 -35 6 -71t-59 -48l-143 -43q-15 -4 -23 -4q-46 0 -84 47q-73 90 -192 90q-107 0 -179 -72q-71 -71 -71 -181q0 -113 71 -185q72 -74 179 -74q118 0 192 91
q38 47 84 47q8 0 23 -4l143 -43q42 -12 59 -49q16 -36 -6 -70q-128 -216 -377 -262l-14 -68q1 0 6 -1.5t9 -2.5q9 -2 34 -14t43 -29q20 -18 34 -48q15 -31 15 -71q0 -94 -77 -156q-78 -63 -195 -63q-90 0 -184 45q-17 6 -25 26q-8 21 -4 40l10 49q6 26 31 26q10 0 18 -2
q48 -22 99 -22q53 0 86 17q35 18 35 44q0 51 -123 66q-41 11 -35 47z" />
    <glyph glyph-name="egrave" unicode="&#xe8;" horiz-adv-x="1220" 
d="M1069 422h-692q27 -84 96 -135t164 -51q103 0 174 59q33 27 70 27q7 0 16 -3l150 -34q43 -10 55 -42t-15 -65q-166 -205 -452 -205q-248 0 -416 160q-166 159 -166 399q0 238 162 399q163 161 403 161q247 0 407 -166q161 -168 157 -404q0 -40 -33 -70t-80 -30zM868 649
q-28 81 -96 131q-67 49 -154 49q-82 0 -147 -49t-92 -131h489zM295 1470l45 82q24 47 74 47q23 0 45 -14l307 -194q24 -16 28 -37q5 -23 -10 -45l-34 -64q-21 -33 -58 -33q-12 0 -26 7l-332 139q-34 15 -46 47q-11 31 7 65z" />
    <glyph glyph-name="eacute" unicode="&#xe9;" horiz-adv-x="1220" 
d="M1069 422h-692q27 -84 96 -135t164 -51q103 0 174 59q33 27 70 27q7 0 16 -3l150 -34q43 -10 55 -42t-15 -65q-166 -205 -452 -205q-248 0 -416 160q-166 159 -166 399q0 238 162 399q163 161 403 161q247 0 407 -166q161 -168 157 -404q0 -40 -33 -70t-80 -30zM868 649
q-28 81 -96 131q-67 49 -154 49q-82 0 -147 -49t-92 -131h489zM469 1391l305 194q22 14 45 14q50 0 74 -47l45 -82q18 -34 7 -65q-12 -32 -46 -47l-330 -139q-14 -7 -26 -7q-37 0 -58 33l-36 64q-29 52 20 82z" />
    <glyph glyph-name="ecircumflex" unicode="&#xea;" horiz-adv-x="1220" 
d="M1069 422h-692q27 -84 96 -135t164 -51q103 0 174 59q33 27 70 27q7 0 16 -3l150 -34q43 -10 55 -42t-15 -65q-166 -205 -452 -205q-248 0 -416 160q-166 159 -166 399q0 238 162 399q163 161 403 161q247 0 407 -166q161 -168 157 -404q0 -40 -33 -70t-80 -30zM868 649
q-28 81 -96 131q-67 49 -154 49q-82 0 -147 -49t-92 -131h489zM313 1235l-41 59q-15 20 -10 45q5 24 25 39l278 203q22 16 56 16q38 0 55 -16l280 -203q21 -17 24 -40q3 -24 -11 -44l-41 -59q-22 -27 -54 -27q-14 0 -32 9l-221 126l-222 -129q-16 -8 -32 -8q-36 0 -54 29z
" />
    <glyph glyph-name="edieresis" unicode="&#xeb;" horiz-adv-x="1220" 
d="M1069 422h-692q27 -84 96 -135t164 -51q103 0 174 59q33 27 70 27q7 0 16 -3l150 -34q43 -10 55 -42t-15 -65q-166 -205 -452 -205q-248 0 -416 160q-166 159 -166 399q0 238 162 399q163 161 403 161q247 0 407 -166q161 -168 157 -404q0 -40 -33 -70t-80 -30zM868 649
q-28 81 -96 131q-67 49 -154 49q-82 0 -147 -49t-92 -131h489zM242 1346q0 69 46 115t115 46q70 0 116 -46t46 -115q0 -70 -46 -116t-116 -46q-69 0 -115 46t-46 116zM678 1346q0 69 46 115t114 46q70 0 116 -46q47 -47 47 -115q0 -69 -47 -116q-46 -46 -116 -46
q-68 0 -114 46t-46 116z" />
    <glyph glyph-name="igrave" unicode="&#xec;" horiz-adv-x="479" 
d="M86 100v865q0 42 29 71t71 29h105q45 0 74 -29q28 -28 28 -71v-865q0 -43 -28 -71q-29 -29 -74 -29h-105q-42 0 -71 29t-29 71zM119 1585l311 -196q44 -29 19 -76l-41 -72q-22 -31 -54 -31q-10 0 -24 7l-334 141q-36 15 -47 47q-12 32 6 65l45 82q24 47 74 47
q23 0 45 -14z" />
    <glyph glyph-name="iacute" unicode="&#xed;" horiz-adv-x="479" 
d="M86 100v865q0 42 29 71t71 29h105q45 0 74 -29q28 -28 28 -71v-865q0 -43 -28 -71q-29 -29 -74 -29h-105q-42 0 -71 29t-29 71zM469 1552l45 -82q18 -34 7 -65q-12 -32 -46 -47l-334 -141q-14 -7 -24 -7q-37 0 -54 31l-40 72q-29 47 18 76l309 196q22 14 45 14
q50 0 74 -47z" />
    <glyph glyph-name="icircumflex" unicode="&#xee;" horiz-adv-x="487" 
d="M90 100v865q0 42 29 71t71 29h105q45 0 74 -29q28 -28 28 -71v-865q0 -43 -28 -71q-29 -29 -74 -29h-105q-42 0 -71 29t-29 71zM-70 1380l267 205q20 14 47 14q30 0 45 -14l266 -205q21 -17 24 -40q3 -24 -14 -42l-47 -57q-18 -24 -51 -24q-19 0 -35 10l-188 116
l-191 -116q-11 -10 -35 -10q-33 0 -51 22l-47 59q-16 18 -13 43t23 39z" />
    <glyph glyph-name="idieresis" unicode="&#xef;" horiz-adv-x="493" 
d="M94 100v865q0 42 29 71t72 29h104q43 0 72 -29q28 -28 28 -71v-865q0 -43 -28 -71q-29 -29 -72 -29h-104q-43 0 -72 29t-29 71zM-90 1346q0 67 45 112t111 45t109 -45q44 -46 44 -112q0 -67 -44 -113q-43 -45 -109 -45t-111 45t-45 113zM274 1346q0 66 44 112
q43 45 110 45q66 0 111 -45t45 -112q0 -68 -45 -113t-111 -45t-110 45q-44 46 -44 113z" />
    <glyph glyph-name="eth" unicode="&#xf0;" 
d="M53 532q0 239 163 399q164 161 407 161q89 0 184 -27q-77 132 -227 184l-56 -88q-14 -26 -47 -26q-15 0 -31 8l-49 31q-21 12 -25 34q-5 23 7 43l22 35q-2 0 -26 2t-29 2q-46 2 -73 32t-27 73v67q0 44 28 72t72 27q106 -6 213 -25l55 86q16 27 48 27q13 0 30 -11l47 -28
q22 -15 26 -37q5 -23 -7 -43l-29 -45q232 -94 347 -323t116 -625q0 -245 -163 -404q-165 -160 -406 -160q-243 0 -407 161q-163 160 -163 398zM623 276q105 0 177 75t72 181q0 107 -72 182q-71 74 -177 74q-107 0 -179 -73q-71 -72 -71 -183q0 -110 71 -182q72 -74 179 -74z
" />
    <glyph glyph-name="ntilde" unicode="&#xf1;" horiz-adv-x="1177" 
d="M86 965q0 42 29 71t71 29h105q45 0 74 -29q28 -28 28 -71v-9q107 136 291 136q172 0 290 -117t118 -291v-584q0 -42 -29 -71t-72 -29h-104q-45 0 -74 29t-29 71v502q0 89 -55 147t-139 58q-83 0 -140 -58q-57 -59 -57 -147v-502q0 -43 -28 -71q-29 -29 -74 -29h-105
q-42 0 -71 29t-29 71v865zM305 1231q-29 0 -45 19t-10 46q21 85 87 142t150 57q64 0 127 -42t80 -42q40 0 56 45q11 29 30 29h113q28 0 46 -20q17 -19 11 -46q-21 -85 -85 -142q-63 -56 -150 -56q-64 0 -128 41t-81 41q-40 0 -57 -46q-6 -26 -31 -26h-113z" />
    <glyph glyph-name="ograve" unicode="&#xf2;" 
d="M53 532q0 239 163 399q164 161 407 161q242 0 406 -161q163 -160 163 -399q0 -238 -163 -398q-164 -161 -406 -161q-243 0 -407 161q-163 160 -163 398zM373 532q0 -110 71 -182q72 -74 179 -74q105 0 177 75t72 181q0 107 -72 182q-71 74 -177 74q-107 0 -179 -73
q-71 -72 -71 -183zM297 1470l43 82q24 47 74 47q23 0 45 -14l307 -194q49 -30 20 -82l-36 -64q-21 -33 -58 -33q-12 0 -26 7l-330 139q-34 15 -46 47q-11 31 7 65z" />
    <glyph glyph-name="oacute" unicode="&#xf3;" 
d="M53 532q0 239 163 399q164 161 407 161q242 0 406 -161q163 -160 163 -399q0 -238 -163 -398q-164 -161 -406 -161q-243 0 -407 161q-163 160 -163 398zM373 532q0 -110 71 -182q72 -74 179 -74q105 0 177 75t72 181q0 107 -72 182q-71 74 -177 74q-107 0 -179 -73
q-71 -72 -71 -183zM469 1391l307 194q22 14 45 14q50 0 74 -47l45 -82q18 -34 7 -65q-12 -32 -46 -47l-332 -139q-14 -7 -26 -7q-37 0 -58 33l-34 64q-15 22 -10 45q4 21 28 37z" />
    <glyph glyph-name="ocircumflex" unicode="&#xf4;" 
d="M53 532q0 239 163 399q164 161 407 161q242 0 406 -161q163 -160 163 -399q0 -238 -163 -398q-164 -161 -406 -161q-243 0 -407 161q-163 160 -163 398zM373 532q0 -110 71 -182q72 -74 179 -74q105 0 177 75t72 181q0 107 -72 182q-71 74 -177 74q-107 0 -179 -73
q-71 -72 -71 -183zM315 1235l-41 59q-14 20 -11 45q3 24 24 39l280 203q22 16 56 16q33 0 55 -16l278 -203q20 -15 25 -39q5 -25 -10 -45l-41 -59q-22 -27 -53 -27q-15 0 -33 9l-221 126l-224 -129q-16 -8 -30 -8q-36 0 -54 29z" />
    <glyph glyph-name="otilde" unicode="&#xf5;" 
d="M53 532q0 239 163 399q164 161 407 161q242 0 406 -161q163 -160 163 -399q0 -238 -163 -398q-164 -161 -406 -161q-243 0 -407 161q-163 160 -163 398zM373 532q0 -110 71 -182q72 -74 179 -74q105 0 177 75t72 181q0 107 -72 182q-71 74 -177 74q-107 0 -179 -73
q-71 -72 -71 -183zM270 1296q23 85 89 142t151 57q63 0 126 -42t81 -42q39 0 55 45q11 29 31 29h112q29 0 47 -20q17 -19 11 -46q-21 -86 -86 -142t-152 -56q-65 0 -127 41t-80 41q-40 0 -57 -46q-10 -26 -31 -26h-112q-28 0 -46 19t-12 46z" />
    <glyph glyph-name="odieresis" unicode="&#xf6;" 
d="M53 532q0 239 163 399q164 161 407 161q242 0 406 -161q163 -160 163 -399q0 -238 -163 -398q-164 -161 -406 -161q-243 0 -407 161q-163 160 -163 398zM373 532q0 -110 71 -182q72 -74 179 -74q105 0 177 75t72 181q0 107 -72 182q-71 74 -177 74q-107 0 -179 -73
q-71 -72 -71 -183zM242 1346q0 69 46 115t115 46q70 0 116 -46t46 -115q0 -70 -46 -116t-116 -46q-69 0 -115 46t-46 116zM678 1346q0 69 46 115t116 46q69 0 115 -46t46 -115q0 -70 -46 -116t-115 -46q-70 0 -116 46t-46 116z" />
    <glyph glyph-name="divide" unicode="&#xf7;" horiz-adv-x="1228" 
d="M199 854h831q37 0 62 -25q24 -24 24 -61v-100q0 -38 -24 -62t-62 -24h-831q-38 0 -62 24t-24 62v100q0 37 24 61q25 25 62 25zM432 287q0 78 52 130t130 52t130 -52q53 -53 53 -130t-53 -130t-130 -53t-130 53q-52 52 -52 130zM432 1147q0 78 52 130t130 52t130 -52
q53 -53 53 -130t-53 -130q-52 -52 -130 -52t-130 52t-52 130z" />
    <glyph glyph-name="oslash" unicode="&#xf8;" 
d="M874 1038l13 19q12 18 35 18q13 0 24 -8l66 -45q34 -24 10 -61l-10 -15q180 -159 180 -414q0 -238 -163 -398q-164 -161 -406 -161q-139 0 -254 56l-15 -19q-11 -20 -32 -20q-14 0 -25 8l-66 45q-34 24 -10 61l12 17q-180 159 -180 411q0 239 163 399q164 161 407 161
q131 0 251 -54zM825 682l-276 -395q31 -11 74 -11q105 0 177 75t72 181q0 77 -47 150zM418 385l276 393q-29 10 -71 10q-107 0 -179 -73q-71 -72 -71 -183q0 -84 45 -147z" />
    <glyph glyph-name="ugrave" unicode="&#xf9;" horiz-adv-x="1177" 
d="M86 965q0 42 29 71t71 29h105q45 0 74 -29q28 -28 28 -71v-502q0 -88 56 -147q55 -58 139 -58q83 0 140 58q56 57 56 147v502q0 42 29 71t74 29h104q43 0 72 -29t29 -71v-865q0 -42 -29 -71t-72 -29h-104q-45 0 -74 29t-29 71v9q-107 -136 -290 -136q-172 0 -290 117
t-118 291v584zM303 1358q-34 15 -46 47q-11 31 7 65l45 82q23 47 72 47q23 0 45 -14l309 -194q24 -16 28 -37q5 -24 -9 -45l-35 -64q-21 -33 -57 -33q-13 0 -27 7z" />
    <glyph glyph-name="uacute" unicode="&#xfa;" horiz-adv-x="1177" 
d="M86 965q0 42 29 71t71 29h105q45 0 74 -29q28 -28 28 -71v-502q0 -88 56 -147q55 -58 139 -58q83 0 140 58q56 57 56 147v502q0 42 29 71t74 29h104q43 0 72 -29t29 -71v-865q0 -42 -29 -71t-72 -29h-104q-45 0 -74 29t-29 71v9q-107 -136 -290 -136q-172 0 -290 117
t-118 291v584zM418 1309q-28 49 18 82l307 194q22 14 45 14q50 0 74 -47l45 -82q18 -34 7 -65q-12 -32 -46 -47l-331 -139q-14 -7 -27 -7q-34 0 -55 33z" />
    <glyph glyph-name="ucircumflex" unicode="&#xfb;" horiz-adv-x="1177" 
d="M86 965q0 42 29 71t71 29h105q45 0 74 -29q28 -28 28 -71v-502q0 -88 56 -147q55 -58 139 -58q83 0 140 58q56 57 56 147v502q0 42 29 71t74 29h104q43 0 72 -29t29 -71v-865q0 -42 -29 -71t-72 -29h-104q-45 0 -74 29t-29 71v9q-107 -136 -290 -136q-172 0 -290 117
t-118 291v584zM242 1294q-15 21 -12 45t24 39l281 203q22 16 55 16q38 0 55 -16l279 -203q19 -15 24 -40q4 -24 -10 -44l-41 -59q-23 -27 -53 -27q-15 0 -33 9l-221 126l-223 -129q-16 -8 -31 -8q-35 0 -53 29z" />
    <glyph glyph-name="udieresis" unicode="&#xfc;" horiz-adv-x="1177" 
d="M86 381v584q0 42 29 71t71 29h105q45 0 74 -29q28 -28 28 -71v-502q0 -88 56 -147q55 -58 139 -58q83 0 140 58q56 57 56 147v502q0 42 29 71t74 29h104q43 0 72 -29t29 -71v-865q0 -42 -29 -71t-72 -29h-104q-45 0 -74 29t-29 71v9q-107 -136 -290 -136q-172 0 -290 117
t-118 291zM373 1184q-71 0 -117 46q-47 47 -47 116q0 68 47 115q46 46 117 46q69 0 115 -46q47 -47 47 -115q0 -69 -47 -116q-46 -46 -115 -46zM645 1346q0 68 47 115q46 46 115 46q71 0 117 -46q47 -47 47 -115q0 -69 -47 -116q-46 -46 -117 -46q-69 0 -115 46
q-47 47 -47 116z" />
    <glyph glyph-name="yacute" unicode="&#xfd;" horiz-adv-x="1130" 
d="M49 971q-16 40 2 67t64 27h114q43 0 81 -27q37 -27 52 -67l199 -563l207 563q15 40 53 66q40 28 82 28h115q43 0 61 -27t2 -67l-415 -1082q-66 -171 -173 -249q-109 -81 -278 -97q-45 0 -73 26q-27 25 -27 71v100q0 40 26 66q27 28 68 32q151 16 201 154l6 16zM393 1309
q-29 52 21 82l305 194q22 14 45 14q50 0 74 -47l45 -82q18 -34 7 -65q-12 -32 -46 -47l-330 -139q-14 -7 -27 -7q-36 0 -57 33z" />
    <glyph glyph-name="thorn" unicode="&#xfe;" 
d="M86 1436q0 42 29 71t71 29h105q45 0 74 -29q28 -28 28 -71v-455q131 111 303 111q211 0 354 -160q142 -158 142 -400q0 -238 -142 -398q-143 -161 -354 -161q-173 0 -303 113v-446q0 -44 -28 -72q-29 -29 -74 -29h-105q-42 0 -71 29t-29 72v1796zM635 788
q-100 0 -169 -73t-69 -185q0 -106 69 -180t169 -74q98 0 167 74q68 72 68 180q0 113 -68 185q-69 73 -167 73z" />
    <glyph glyph-name="ydieresis" unicode="&#xff;" horiz-adv-x="1130" 
d="M49 971q-16 40 2 67t64 27h114q43 0 81 -27q37 -27 52 -67l199 -563l207 563q15 40 53 66q40 28 82 28h115q43 0 61 -27t2 -67l-415 -1082q-66 -171 -173 -249q-109 -81 -278 -97q-45 0 -73 26q-27 25 -27 71v100q0 40 26 66q27 28 68 32q151 16 201 154l6 16zM348 1184
q-70 0 -116 46t-46 116q0 69 46 115t116 46t116 -46t46 -115q0 -70 -46 -116t-116 -46zM782 1184q-67 0 -113 46t-46 116q0 69 46 115t113 46q71 0 117 -46q47 -47 47 -115q0 -69 -47 -116q-46 -46 -117 -46z" />
    <glyph glyph-name="Amacron" unicode="&#x100;" horiz-adv-x="1501" 
d="M53 94l531 1260q16 36 48 57q35 23 73 23h92q37 0 71 -24q36 -25 50 -56l530 -1260q17 -41 -1 -67q-18 -27 -61 -27h-137q-43 0 -83 27q-39 26 -56 67l-59 148h-598l-62 -148q-15 -39 -55 -66q-42 -28 -84 -28h-137q-45 0 -62 27q-16 27 0 67zM430 1663v88q0 30 20 50
t50 20h501q28 0 50 -20q20 -19 20 -50v-88q0 -31 -20 -50q-22 -20 -50 -20h-501q-30 0 -50 20t-20 50zM571 532h361l-180 439z" />
    <glyph glyph-name="amacron" unicode="&#x101;" 
d="M547 -27q-211 0 -352 161q-142 162 -142 398q0 240 142 400t352 160q175 0 305 -113q4 37 33 61q30 25 67 25h105q42 0 71 -29t29 -71v-865q0 -42 -29 -71t-71 -29h-105q-37 0 -67 25q-29 24 -33 63q-132 -115 -305 -115zM373 535q0 -113 68 -185q69 -74 169 -74
q99 0 168 74q70 75 70 185q0 105 -70 180q-69 73 -168 73q-100 0 -169 -73q-68 -72 -68 -180zM309 1403q0 31 21 50q22 20 49 20h502q27 0 49 -20q20 -19 20 -50v-88q0 -31 -20 -50q-22 -20 -49 -20h-502q-27 0 -49 20q-21 19 -21 50v88z" />
    <glyph glyph-name="Abreve" unicode="&#x102;" horiz-adv-x="1501" 
d="M53 94l531 1260q16 36 48 57q35 23 73 23h92q37 0 71 -24q36 -25 50 -56l530 -1260q17 -41 -1 -67q-18 -27 -61 -27h-137q-43 0 -83 27q-39 26 -56 67l-59 148h-598l-62 -148q-15 -39 -55 -66q-42 -28 -84 -28h-137q-45 0 -62 27q-16 27 0 67zM477 1864h82q49 0 72 -62
q33 -80 119 -80q82 0 112 80q18 62 72 62h84q31 0 49 -21t12 -49q-23 -119 -113 -192q-92 -74 -218 -74q-128 0 -220 74t-114 192q-6 28 12 49t51 21zM571 532h361l-180 439z" />
    <glyph glyph-name="abreve" unicode="&#x103;" 
d="M53 532q0 240 142 400t352 160q175 0 305 -113q4 37 33 61q30 25 67 25h105q42 0 71 -29t29 -71v-865q0 -42 -29 -71t-71 -29h-105q-37 0 -67 25q-29 24 -33 63q-132 -115 -305 -115q-211 0 -352 161q-142 162 -142 398zM373 535q0 -113 68 -185q69 -74 169 -74
q99 0 168 74q70 75 70 185q0 105 -70 180q-69 73 -168 73q-100 0 -169 -73q-68 -72 -68 -180zM295 1446q-6 28 12 49t49 21h84q45 0 72 -62q33 -80 117 -80q82 0 112 80q23 62 72 62h84q31 0 49 -21t12 -49q-23 -121 -113 -193q-91 -73 -218 -73t-218 73t-114 193z" />
    <glyph glyph-name="Aogonek" unicode="&#x104;" horiz-adv-x="1501" 
d="M53 94l531 1260q16 36 48 57q35 23 73 23h92q37 0 71 -24q36 -25 50 -56l530 -1260q17 -41 -1 -67q-18 -27 -61 -27h-38q-74 -83 -74 -147q0 -70 78 -70q40 0 78 24q8 5 22 5q17 0 25 -11l34 -47q15 -16 13 -36q-1 -18 -19 -29q-113 -86 -225 -86q-95 0 -157 55t-62 141
q0 92 80 201q3 3 13 15q2 3 5.5 7.5t5.5 6.5q-40 27 -55 65l-59 148h-598l-62 -148q-15 -39 -55 -66q-42 -28 -84 -28h-137q-45 0 -62 27q-16 27 0 67zM571 532h361l-180 439z" />
    <glyph glyph-name="aogonek" unicode="&#x105;" 
d="M547 -27q-211 0 -352 161q-142 162 -142 398q0 240 142 400t352 160q175 0 305 -113q4 37 33 61q30 25 67 25h105q42 0 71 -29t29 -71v-865q0 -36 -21 -63t-57 -35q-84 -88 -84 -156q0 -71 76 -71q41 0 78 24q12 6 22 6q17 0 25 -12l37 -45q12 -16 10 -36q-1 -18 -18 -29
q-107 -86 -226 -86q-94 0 -156 55q-63 56 -63 141q0 117 107 230q-29 24 -35 65q-132 -115 -305 -115zM610 788q-100 0 -169 -73q-68 -72 -68 -180q0 -113 68 -185q69 -74 169 -74q99 0 168 74q70 75 70 185q0 105 -70 180q-69 73 -168 73z" />
    <glyph glyph-name="Cacute" unicode="&#x106;" horiz-adv-x="1554" 
d="M1452 297q-102 -150 -268 -237q-167 -87 -365 -87q-321 0 -536 213t-215 531q0 317 215 530q214 213 536 213q198 0 365 -87t268 -236q22 -34 10 -72q-12 -36 -55 -51l-152 -58q-12 -6 -28 -6q-45 0 -82 43q-123 156 -326 156q-177 0 -295 -124t-118 -308t118 -308
t295 -124q204 0 326 155q33 43 82 43q13 0 28 -6l152 -57q43 -15 55 -51q12 -38 -10 -72zM664 1739l307 194q24 15 45 15q50 0 74 -47l45 -82q19 -34 7 -66t-46 -47l-332 -139q-12 -6 -27 -6q-37 0 -57 32l-35 64q-14 21 -9 45q4 21 28 37z" />
    <glyph glyph-name="cacute" unicode="&#x107;" horiz-adv-x="1191" 
d="M1065 698l-143 -43q-15 -4 -23 -4q-46 0 -84 47q-73 90 -192 90q-107 0 -179 -72q-71 -71 -71 -181q0 -113 71 -185q72 -74 179 -74q118 0 192 91q38 47 84 47q8 0 23 -4l143 -43q42 -12 59 -49q16 -36 -6 -70q-73 -127 -205 -201q-131 -74 -290 -74q-243 0 -407 161
q-163 160 -163 398q0 241 163 400q165 160 407 160q159 0 290 -74q132 -74 205 -201q23 -35 6 -71t-59 -48zM463 1391l307 194q22 14 45 14q50 0 74 -47l45 -82q18 -34 7 -65q-12 -32 -46 -47l-332 -139q-14 -7 -26 -7q-37 0 -58 33l-35 64q-28 49 19 82z" />
    <glyph glyph-name="Ccircumflex" unicode="&#x108;" horiz-adv-x="1554" 
d="M1452 297q-102 -150 -268 -237q-167 -87 -365 -87q-321 0 -536 213t-215 531q0 317 215 530q214 213 536 213q198 0 365 -87t268 -236q22 -34 10 -72q-12 -36 -55 -51l-152 -58q-12 -6 -28 -6q-45 0 -82 43q-123 156 -326 156q-177 0 -295 -124t-118 -308t118 -308
t295 -124q204 0 326 155q33 43 82 43q13 0 28 -6l152 -57q43 -15 55 -51q12 -38 -10 -72zM510 1583l-41 59q-14 20 -11 46q3 24 23 38l281 203q23 17 55 17t55 -17l279 -203q21 -15 25 -38q5 -24 -11 -46l-41 -59q-22 -27 -53 -27q-15 0 -33 9l-221 127l-223 -129
q-18 -9 -31 -9q-35 0 -53 29z" />
    <glyph glyph-name="ccircumflex" unicode="&#x109;" horiz-adv-x="1191" 
d="M1065 698l-143 -43q-15 -4 -23 -4q-46 0 -84 47q-73 90 -192 90q-107 0 -179 -72q-71 -71 -71 -181q0 -113 71 -185q72 -74 179 -74q118 0 192 91q38 47 84 47q8 0 23 -4l143 -43q42 -12 59 -49q16 -36 -6 -70q-73 -127 -205 -201q-131 -74 -290 -74q-243 0 -407 161
q-163 160 -163 398q0 241 163 400q165 160 407 160q159 0 290 -74q132 -74 205 -201q23 -35 6 -71t-59 -48zM309 1235l-41 59q-14 20 -11 45q3 24 24 39l280 203q22 16 55 16q34 0 56 -16l278 -203q21 -16 25 -40t-10 -44l-41 -59q-22 -27 -54 -27q-14 0 -32 9l-222 126
l-223 -129q-16 -8 -31 -8q-35 0 -53 29z" />
    <glyph glyph-name="Cdotaccent" unicode="&#x10a;" horiz-adv-x="1554" 
d="M1452 297q-102 -150 -268 -237q-167 -87 -365 -87q-321 0 -536 213t-215 531q0 317 215 530q214 213 536 213q198 0 365 -87t268 -236q22 -34 10 -72q-12 -36 -55 -51l-152 -58q-12 -6 -28 -6q-45 0 -82 43q-123 156 -326 156q-177 0 -295 -124t-118 -308t118 -308
t295 -124q204 0 326 155q33 43 82 43q13 0 28 -6l152 -57q43 -15 55 -51q12 -38 -10 -72zM643 1708q0 75 49 124q50 50 123 50q76 0 126 -50t50 -124q0 -75 -50 -125q-49 -49 -126 -49q-74 0 -123 49t-49 125z" />
    <glyph glyph-name="cdotaccent" unicode="&#x10b;" horiz-adv-x="1191" 
d="M1065 698l-143 -43q-15 -4 -23 -4q-46 0 -84 47q-73 90 -192 90q-107 0 -179 -72q-71 -71 -71 -181q0 -113 71 -185q72 -74 179 -74q118 0 192 91q38 47 84 47q8 0 23 -4l143 -43q42 -12 59 -49q16 -36 -6 -70q-73 -127 -205 -201q-131 -74 -290 -74q-243 0 -407 161
q-163 160 -163 398q0 241 163 400q165 160 407 160q159 0 290 -74q132 -74 205 -201q23 -35 6 -71t-59 -48zM442 1360q0 74 50 124t124 50t124 -50q51 -51 51 -124q0 -74 -51 -125q-49 -49 -124 -49t-124 49q-50 50 -50 125z" />
    <glyph glyph-name="Ccaron" unicode="&#x10c;" horiz-adv-x="1554" 
d="M1452 297q-102 -150 -268 -237q-167 -87 -365 -87q-321 0 -536 213t-215 531q0 317 215 530q214 213 536 213q198 0 365 -87t268 -236q22 -34 10 -72q-12 -36 -55 -51l-152 -58q-12 -6 -28 -6q-45 0 -82 43q-123 156 -326 156q-177 0 -295 -124t-118 -308t118 -308
t295 -124q204 0 326 155q33 43 82 43q13 0 28 -6l152 -57q43 -15 55 -51q12 -38 -10 -72zM1124 1915l41 -60q15 -21 11 -44q-4 -22 -25 -37l-279 -203q-28 -17 -55 -17t-55 17l-281 203q-20 14 -23 37q-3 26 11 47l41 59q23 29 53 29q14 0 31 -11l223 -127l221 125
q17 11 33 11q29 0 53 -29z" />
    <glyph glyph-name="ccaron" unicode="&#x10d;" horiz-adv-x="1191" 
d="M1065 698l-143 -43q-15 -4 -23 -4q-46 0 -84 47q-73 90 -192 90q-107 0 -179 -72q-71 -71 -71 -181q0 -113 71 -185q72 -74 179 -74q118 0 192 91q38 47 84 47q8 0 23 -4l143 -43q42 -12 59 -49q16 -36 -6 -70q-73 -127 -205 -201q-131 -74 -290 -74q-243 0 -407 161
q-163 160 -163 398q0 241 163 400q165 160 407 160q159 0 290 -74q132 -74 205 -201q23 -35 6 -71t-59 -48zM924 1567l41 -60q14 -20 10 -44q-4 -23 -25 -38l-278 -202q-28 -17 -56 -17q-27 0 -55 17l-280 202q-46 33 -13 84l41 60q21 28 53 28q15 0 31 -10l223 -127
l222 125q16 10 32 10q30 0 54 -28z" />
    <glyph glyph-name="Dcaron" unicode="&#x10e;" horiz-adv-x="1505" 
d="M96 1333q0 43 29 72t72 29h489q320 0 536 -207t216 -510t-216 -510t-536 -207h-489q-43 0 -72 29t-29 71v1233zM686 1135h-264v-836h264q177 0 295 121q119 122 119 297t-119 297q-118 121 -295 121zM172 1774q-21 15 -25 38q-5 24 11 46l41 59q21 29 53 29q16 0 33 -11
l221 -127l221 125q17 11 33 11q30 0 53 -29l41 -60q14 -20 11 -44q-3 -23 -23 -37l-281 -203q-23 -17 -55 -17q-27 0 -55 17z" />
    <glyph glyph-name="dcaron" unicode="&#x10f;" horiz-adv-x="1558" 
d="M53 532q0 240 142 400t352 160q174 0 305 -113v457q0 42 29 71t71 29h105q42 0 71 -29t29 -71v-1336q0 -42 -29 -71t-71 -29h-105q-37 0 -67 25q-29 24 -33 63q-132 -115 -305 -115q-211 0 -352 161q-142 162 -142 398zM373 535q0 -113 68 -185q69 -74 169 -74
q99 0 168 74q70 75 70 185q0 105 -70 180q-69 73 -168 73q-100 0 -169 -73q-68 -72 -68 -180zM1358 1288q-50 11 -81 49q-32 40 -32 90q0 58 40 97q41 39 99 39q66 0 111 -51q43 -49 43 -123q0 -154 -176 -267q-13 -8 -23 -8q-16 0 -30 14l-25 23q-25 25 4 49q68 58 70 88z
" />
    <glyph glyph-name="Dcroat" unicode="&#x110;" horiz-adv-x="1560" 
d="M16 766q0 34 24 58t60 24h52v485q0 44 29 72q31 29 73 29h487q322 0 538 -207t216 -510t-216 -510t-538 -207h-487q-42 0 -73 29q-29 28 -29 71v486h-52q-37 0 -60 23q-24 24 -24 59v98zM477 848h264q36 0 60 -24t24 -58v-98q0 -35 -24 -59q-23 -23 -60 -23h-264v-287
h264q179 0 297 121q119 122 119 297t-119 297q-118 121 -297 121h-264v-287z" />
    <glyph glyph-name="dcroat" unicode="&#x111;" horiz-adv-x="1259" 
d="M547 -27q-211 0 -352 161q-142 162 -142 398q0 240 142 400t352 160q174 0 305 -113v195h-250q-29 0 -49 20q-21 21 -21 49v70q0 28 21 49q20 20 49 20h250v54q0 42 29 71t71 29h105q42 0 71 -29t29 -71v-54h23q29 0 49 -20t20 -49v-70q0 -29 -20 -49t-49 -20h-23v-1074
q0 -42 -29 -71t-71 -29h-105q-37 0 -67 25q-29 24 -33 63q-132 -115 -305 -115zM610 788q-100 0 -169 -73q-68 -72 -68 -180q0 -113 68 -185q69 -74 169 -74q99 0 168 74q70 75 70 185q0 105 -70 180q-69 73 -168 73z" />
    <glyph glyph-name="Emacron" unicode="&#x112;" horiz-adv-x="1232" 
d="M96 1333q0 43 29 72t72 29h870q43 0 72 -29q28 -28 28 -72v-98q0 -44 -28 -72t-72 -28h-645v-263h526q44 0 72 -28q29 -29 29 -72v-96q0 -45 -29 -74t-72 -29h-526v-274h655q43 0 72 -29t29 -71v-99q0 -42 -29 -71t-72 -29h-880q-43 0 -72 29t-29 71v1233zM307 1663v88
q0 31 21 50q22 20 49 20h502q27 0 49 -20q20 -19 20 -50v-88q0 -31 -20 -50q-22 -20 -49 -20h-502q-27 0 -49 20q-21 19 -21 50z" />
    <glyph glyph-name="emacron" unicode="&#x113;" horiz-adv-x="1220" 
d="M1069 422h-692q27 -84 96 -135t164 -51q103 0 174 59q33 27 70 27q7 0 16 -3l150 -34q43 -10 55 -42t-15 -65q-166 -205 -452 -205q-248 0 -416 160q-166 159 -166 399q0 238 162 399q163 161 403 161q247 0 407 -166q161 -168 157 -404q0 -40 -33 -70t-80 -30zM868 649
q-28 81 -96 131q-67 49 -154 49q-82 0 -147 -49t-92 -131h489zM301 1315v88q0 30 20 50t48 20h503q29 0 49 -20q19 -19 19 -50v-88q0 -31 -19 -50q-20 -20 -49 -20h-503q-28 0 -48 20t-20 50z" />
    <glyph glyph-name="Ebreve" unicode="&#x114;" horiz-adv-x="1232" 
d="M197 0q-43 0 -72 29t-29 71v1233q0 43 29 72t72 29h870q43 0 72 -29q28 -28 28 -72v-98q0 -44 -28 -72t-72 -28h-645v-263h526q44 0 72 -28q29 -29 29 -72v-96q0 -45 -29 -74t-72 -29h-526v-274h655q43 0 72 -29t29 -71v-99q0 -42 -29 -71t-72 -29h-880zM291 1794
q-4 28 14 49t49 21h82q47 0 74 -62q30 -80 117 -80q82 0 112 80q23 62 72 62h84q31 0 49 -21t12 -49q-23 -119 -113 -192q-92 -74 -218 -74q-127 0 -219 74q-93 74 -115 192z" />
    <glyph glyph-name="ebreve" unicode="&#x115;" horiz-adv-x="1220" 
d="M53 532q0 238 162 399q163 161 403 161q247 0 407 -166q161 -168 157 -404q0 -40 -33 -70t-80 -30h-692q27 -84 96 -135t164 -51q103 0 174 59q33 27 70 27q7 0 16 -3l150 -34q43 -10 55 -42t-15 -65q-166 -205 -452 -205q-248 0 -416 160q-166 159 -166 399zM285 1446
q-6 28 12 49t49 21h84q49 0 72 -62q33 -80 116 -80q84 0 113 80q23 62 74 62h82q31 0 49 -21t14 -49q-23 -120 -114 -193t-220 -73q-127 0 -218 73q-90 72 -113 193zM618 829q-82 0 -147 -49t-92 -131h489q-28 81 -96 131q-67 49 -154 49z" />
    <glyph glyph-name="Edotaccent" unicode="&#x116;" horiz-adv-x="1232" 
d="M197 0q-43 0 -72 29t-29 71v1233q0 43 29 72t72 29h870q43 0 72 -29q28 -28 28 -72v-98q0 -44 -28 -72t-72 -28h-645v-263h526q44 0 72 -28q29 -29 29 -72v-96q0 -45 -29 -74t-72 -29h-526v-274h655q43 0 72 -29t29 -71v-99q0 -42 -29 -71t-72 -29h-880zM627 1534
q-75 0 -124 49q-50 50 -50 125q0 74 50 124t124 50q75 0 125 -50q49 -49 49 -124q0 -76 -49 -125t-125 -49z" />
    <glyph glyph-name="edotaccent" unicode="&#x117;" horiz-adv-x="1220" 
d="M1069 422h-692q27 -84 96 -135t164 -51q103 0 174 59q33 27 70 27q7 0 16 -3l150 -34q43 -10 55 -42t-15 -65q-166 -205 -452 -205q-248 0 -416 160q-166 159 -166 399q0 238 162 399q163 161 403 161q247 0 407 -166q161 -168 157 -404q0 -40 -33 -70t-80 -30zM868 649
q-28 81 -96 131q-67 49 -154 49q-82 0 -147 -49t-92 -131h489zM446 1360q0 74 50 124t125 50q74 0 124 -50t50 -124q0 -75 -50 -125q-49 -49 -124 -49q-76 0 -125 49q-50 50 -50 125z" />
    <glyph glyph-name="Eogonek" unicode="&#x118;" horiz-adv-x="1232" 
d="M197 0q-43 0 -72 29t-29 71v1233q0 43 29 72t72 29h870q43 0 72 -29q28 -28 28 -72v-98q0 -44 -28 -72t-72 -28h-645v-263h526q44 0 72 -28q29 -29 29 -72v-96q0 -45 -29 -74t-72 -29h-526v-274h655q43 0 72 -29t29 -71v-99q0 -42 -28 -70q-29 -29 -71 -30
q-102 -102 -102 -178q0 -33 21 -51q22 -19 55 -19q38 0 77 25q7 4 23 4q17 0 27 -10l34 -47q12 -17 11 -36t-17 -30q-119 -86 -227 -86q-93 0 -155 55t-62 142q0 108 104 231h-671z" />
    <glyph glyph-name="eogonek" unicode="&#x119;" horiz-adv-x="1220" 
d="M549 -20q-220 29 -358 182t-138 370q0 238 162 399q163 161 403 161q247 0 407 -166q161 -168 157 -404q0 -40 -33 -70t-80 -30h-692q27 -84 96 -135t164 -51q103 0 174 59q33 27 70 27q7 0 16 -3l150 -34q43 -10 55 -42t-15 -65q-121 -150 -319 -190
q-109 -109 -109 -183q0 -71 76 -71q41 0 78 24q12 6 23 6q16 0 26 -12l35 -45q12 -16 10 -36q-1 -19 -16 -29q-112 -86 -227 -86q-95 0 -156 55q-62 56 -62 141q0 105 103 228zM618 829q-82 0 -147 -49t-92 -131h489q-28 81 -96 131q-67 49 -154 49z" />
    <glyph glyph-name="Ecaron" unicode="&#x11a;" horiz-adv-x="1232" 
d="M96 1333q0 43 29 72t72 29h870q43 0 72 -29q28 -28 28 -72v-98q0 -44 -28 -72t-72 -28h-645v-263h526q44 0 72 -28q29 -29 29 -72v-96q0 -45 -29 -74t-72 -29h-526v-274h655q43 0 72 -29t29 -71v-99q0 -42 -29 -71t-72 -29h-880q-43 0 -72 29t-29 71v1233zM293 1774
q-21 15 -25 38q-5 24 11 46l40 59q24 29 54 29q16 0 33 -11l223 -127l221 125q17 11 33 11q29 0 53 -29l41 -60q14 -20 10 -44q-4 -23 -24 -37l-279 -203q-28 -17 -55 -17q-28 0 -56 17z" />
    <glyph glyph-name="ecaron" unicode="&#x11b;" horiz-adv-x="1220" 
d="M1069 422h-692q27 -84 96 -135t164 -51q103 0 174 59q33 27 70 27q7 0 16 -3l150 -34q43 -10 55 -42t-15 -65q-166 -205 -452 -205q-248 0 -416 160q-166 159 -166 399q0 238 162 399q163 161 403 161q247 0 407 -166q161 -168 157 -404q0 -40 -33 -70t-80 -30zM868 649
q-28 81 -96 131q-67 49 -154 49q-82 0 -147 -49t-92 -131h489zM928 1567l41 -60q14 -20 11 -44q-3 -23 -24 -38l-280 -202q-23 -17 -55 -17q-28 0 -56 17l-278 202q-20 15 -25 39q-5 25 10 45l41 60q22 28 54 28q16 0 32 -10l222 -127l221 125q16 10 32 10q30 0 54 -28z" />
    <glyph glyph-name="Gcircumflex" unicode="&#x11c;" horiz-adv-x="1630" 
d="M1563 707q-5 -311 -217 -522q-214 -212 -531 -212q-315 0 -531 213t-216 531q0 319 219 531q220 212 544 212q199 0 366 -86q166 -85 271 -237q23 -35 11 -72q-11 -35 -54 -51l-153 -58q-15 -6 -29 -6q-49 0 -82 43q-121 156 -330 156q-184 0 -305 -124
q-120 -123 -120 -308q0 -184 116 -307q117 -125 291 -125q123 0 226 67q104 68 149 178h-309q-43 0 -72 30q-29 31 -29 73v74q0 42 29 71t72 29h577q46 0 77 -30t30 -70zM510 1583l-41 59q-14 20 -11 46q3 24 23 38l281 203q23 17 55 17t55 -17l279 -203q21 -15 25 -38
q5 -24 -11 -46l-41 -59q-22 -27 -53 -27q-15 0 -33 9l-221 127l-223 -129q-18 -9 -31 -9q-35 0 -53 29z" />
    <glyph glyph-name="gcircumflex" unicode="&#x11d;" 
d="M547 -27q-211 0 -352 161q-142 162 -142 398q0 240 142 400t352 160q175 0 305 -113q4 37 33 61q30 25 67 25h105q42 0 71 -29t29 -71v-942q0 -217 -155 -364q-153 -146 -384 -146q-149 0 -278 66q-128 65 -201 175q-22 34 -7 69q15 34 58 44l156 39q6 2 12 2
q31 0 70 -31q69 -74 184 -74q100 0 170 62t70 153v68q-131 -113 -305 -113zM610 788q-100 0 -169 -73q-68 -72 -68 -185q0 -108 68 -180q69 -74 169 -74q99 0 168 74q70 75 70 180q0 110 -70 185q-69 73 -168 73zM266 1294q-14 20 -11 45q3 24 24 39l280 203q22 16 55 16
q34 0 56 -16l278 -203q20 -15 25 -39q5 -25 -10 -45l-41 -59q-23 -27 -54 -27q-14 0 -32 9l-222 126l-223 -129q-16 -8 -31 -8q-35 0 -53 29z" />
    <glyph glyph-name="Gbreve" unicode="&#x11e;" horiz-adv-x="1630" 
d="M68 717q0 319 219 531q220 212 544 212q199 0 366 -86q166 -85 271 -237q23 -35 11 -72q-11 -35 -54 -51l-153 -58q-15 -6 -29 -6q-49 0 -82 43q-121 156 -330 156q-184 0 -305 -124q-120 -123 -120 -308q0 -184 116 -307q117 -125 291 -125q123 0 226 67q104 68 149 178
h-309q-43 0 -72 30q-29 31 -29 73v74q0 42 29 71t72 29h577q46 0 77 -30t30 -70q-5 -311 -217 -522q-214 -212 -531 -212q-315 0 -531 213t-216 531zM481 1794q-6 27 13 49q18 21 49 21h82q46 0 73 -62q30 -80 117 -80q83 0 113 80q23 62 71 62h84q32 0 50 -21t12 -49
q-23 -118 -114 -192q-92 -74 -218 -74t-218 74q-91 74 -114 192z" />
    <glyph glyph-name="gbreve" unicode="&#x11f;" 
d="M53 532q0 240 142 400t352 160q175 0 305 -113q4 37 33 61q30 25 67 25h105q42 0 71 -29t29 -71v-942q0 -217 -155 -364q-153 -146 -384 -146q-149 0 -278 66q-128 65 -201 175q-22 34 -7 69q15 34 58 44l156 39q6 2 12 2q31 0 70 -31q69 -74 184 -74q100 0 170 62
t70 153v68q-131 -113 -305 -113q-211 0 -352 161q-142 162 -142 398zM610 788q-100 0 -169 -73q-68 -72 -68 -185q0 -108 68 -180q69 -74 169 -74q99 0 168 74q70 75 70 180q0 110 -70 185q-69 73 -168 73zM279 1446q-6 28 12 49t49 21h82q47 0 74 -62q30 -80 116 -80
q83 0 113 80q23 62 72 62h84q31 0 49 -21t12 -49q-23 -120 -114 -193t-218 -73t-218 73q-90 72 -113 193z" />
    <glyph glyph-name="Gdotaccent" unicode="&#x120;" horiz-adv-x="1630" 
d="M1563 707q-5 -311 -217 -522q-214 -212 -531 -212q-315 0 -531 213t-216 531q0 319 219 531q220 212 544 212q199 0 366 -86q166 -85 271 -237q23 -35 11 -72q-11 -35 -54 -51l-153 -58q-15 -6 -29 -6q-49 0 -82 43q-121 156 -330 156q-184 0 -305 -124
q-120 -123 -120 -308q0 -184 116 -307q117 -125 291 -125q123 0 226 67q104 68 149 178h-309q-43 0 -72 30q-29 31 -29 73v74q0 42 29 71t72 29h577q46 0 77 -30t30 -70zM643 1708q0 75 49 124q50 50 123 50q76 0 126 -50t50 -124q0 -75 -50 -125q-49 -49 -126 -49
q-74 0 -123 49t-49 125z" />
    <glyph glyph-name="gdotaccent" unicode="&#x121;" 
d="M53 532q0 240 142 400t352 160q175 0 305 -113q4 37 33 61q30 25 67 25h105q42 0 71 -29t29 -71v-942q0 -217 -155 -364q-153 -146 -384 -146q-149 0 -278 66q-128 65 -201 175q-22 34 -7 69q15 34 58 44l156 39q6 2 12 2q31 0 70 -31q69 -74 184 -74q100 0 170 62
t70 153v68q-131 -113 -305 -113q-211 0 -352 161q-142 162 -142 398zM610 788q-100 0 -169 -73q-68 -72 -68 -185q0 -108 68 -180q69 -74 169 -74q99 0 168 74q70 75 70 180q0 110 -70 185q-69 73 -168 73zM612 1186q-74 0 -123 49t-49 125q0 75 49 124q50 50 123 50
q76 0 126 -50t50 -124q0 -75 -50 -125q-49 -49 -126 -49z" />
    <glyph glyph-name="uni0122" unicode="&#x122;" horiz-adv-x="1630" 
d="M1563 707q-5 -311 -217 -522q-214 -212 -531 -212q-315 0 -531 213t-216 531q0 319 219 531q220 212 544 212q199 0 366 -86q166 -85 271 -237q23 -35 11 -72q-11 -35 -54 -51l-153 -58q-15 -6 -29 -6q-49 0 -82 43q-121 156 -330 156q-184 0 -305 -124
q-120 -123 -120 -308q0 -184 116 -307q117 -125 291 -125q123 0 226 67q104 68 149 178h-309q-43 0 -72 30q-29 31 -29 73v74q0 42 29 71t72 29h577q46 0 77 -30t30 -70zM817 -535q-10 -6 -20 -6q-20 0 -33 13l-25 24q-25 25 2 47q71 61 72 90q-46 7 -80 49q-33 40 -33 91
q0 57 40 96q41 39 98 39q66 0 110 -50q43 -49 43 -126q0 -148 -174 -267z" />
    <glyph glyph-name="uni0123" unicode="&#x123;" 
d="M547 -27q-211 0 -352 161q-142 162 -142 398q0 240 142 400t352 160q175 0 305 -113q4 37 33 61q30 25 67 25h105q42 0 71 -29t29 -71v-942q0 -217 -155 -364q-153 -146 -384 -146q-149 0 -278 66q-128 65 -201 175q-22 34 -7 69q15 34 58 44l156 39q6 2 12 2
q31 0 70 -31q69 -74 184 -74q100 0 170 62t70 153v68q-131 -113 -305 -113zM373 530q0 -108 68 -180q69 -74 169 -74q99 0 168 74q70 75 70 180q0 110 -70 185q-69 73 -168 73q-100 0 -169 -73q-68 -72 -68 -185zM455 1354q0 149 174 266q13 8 22 8q17 0 31 -14l25 -23
q22 -22 -2 -49q-70 -61 -70 -88q50 -11 81 -49q32 -40 32 -90q0 -57 -40 -96t-100 -39q-66 0 -110 50q-43 49 -43 124z" />
    <glyph glyph-name="Hcircumflex" unicode="&#x124;" horiz-adv-x="1462" 
d="M96 1333q0 43 29 72t72 29h122q45 0 74 -29t29 -72v-459h620v459q0 43 29 72t72 29h123q42 0 71 -29t29 -72v-1233q0 -42 -29 -71t-71 -29h-123q-43 0 -72 29t-29 71v475h-620v-475q0 -42 -29 -71t-74 -29h-122q-43 0 -72 29t-29 71v1233zM383 1642q-15 21 -10 46
q5 24 24 38l279 203q23 17 55 17q36 0 55 -17l281 -203q21 -17 24 -39q3 -24 -12 -45l-41 -59q-22 -27 -53 -27q-15 0 -33 9l-221 127l-221 -129q-18 -9 -33 -9q-35 0 -53 29z" />
    <glyph glyph-name="hcircumflex" unicode="&#x125;" horiz-adv-x="1189" 
d="M86 1436q0 42 29 71t71 29h105q45 0 74 -29q28 -28 28 -71v-480q113 136 299 136q174 0 293 -117t119 -291v-584q0 -42 -29 -71t-71 -29h-105q-43 0 -72 29q-28 28 -28 71v502q0 88 -59 147q-58 58 -144 58t-144 -58q-59 -59 -59 -147v-502q0 -43 -28 -71
q-29 -29 -74 -29h-105q-42 0 -71 29t-29 71v1336zM-109 1724q-15 20 -10 45q5 24 25 39l280 203q23 17 56 17q32 0 55 -17l278 -203q21 -17 24 -40q3 -24 -11 -44l-41 -59q-21 -27 -51 -27q-15 0 -33 9l-221 127l-224 -129q-18 -9 -32 -9q-36 0 -54 29z" />
    <glyph glyph-name="Hbar" unicode="&#x126;" horiz-adv-x="1550" 
d="M16 1180q0 31 22 53q20 20 54 20h35v80q0 43 29 72t71 29h123q42 0 73 -29q30 -29 30 -72v-80h620v80q0 43 29 72t72 29h122q43 0 72 -29t29 -72v-80h61q34 0 54 -20q22 -22 22 -53v-90q0 -33 -22 -55q-21 -21 -54 -21h-61v-914q0 -42 -29 -71t-72 -29h-122q-43 0 -72 29
t-29 71v475h-620v-475q0 -42 -30 -71q-31 -29 -73 -29h-123q-42 0 -71 29t-29 71v914h-35q-33 0 -54 21q-22 22 -22 55v90zM1073 1014h-620v-140h620v140z" />
    <glyph glyph-name="hbar" unicode="&#x127;" horiz-adv-x="1206" 
d="M10 1313q0 28 21 49q20 20 49 20h20v54q0 42 30 71q31 29 73 29h104q43 0 72 -29t29 -71v-54h249q30 0 49 -20t19 -49v-70q0 -29 -19 -49t-49 -20h-249v-220q114 138 299 138q175 0 294 -117t119 -291v-584q0 -43 -28 -71q-29 -29 -74 -29h-105q-42 0 -71 29t-29 71v502
q0 88 -57 147q-57 58 -144 58q-88 0 -146 -58t-58 -147v-502q0 -42 -29 -71t-72 -29h-104q-42 0 -73 29q-30 28 -30 71v1074h-20q-29 0 -49 20q-21 21 -21 49v70z" />
    <glyph glyph-name="Itilde" unicode="&#x128;" horiz-adv-x="518" 
d="M96 100v1233q0 43 29 72t72 29h122q45 0 74 -29t29 -72v-1233q0 -42 -29 -71t-74 -29h-122q-43 0 -72 29t-29 71zM-92 1645q22 83 89 141q66 57 150 57q63 0 126 -42t81 -42q39 0 54 45q11 29 32 29h111q31 0 47 -19t10 -47q-18 -85 -84 -142q-65 -56 -151 -56
q-65 0 -127 41t-80 41q-40 0 -57 -45q-11 -27 -31 -27h-113q-28 0 -46 19q-17 19 -11 47z" />
    <glyph glyph-name="itilde" unicode="&#x129;" horiz-adv-x="505" 
d="M100 100v865q0 42 29 71t72 29h104q45 0 74 -29t29 -71v-865q0 -42 -29 -71t-74 -29h-104q-43 0 -72 29t-29 71zM-82 1296q22 86 83 142q63 57 140 57q59 0 119 -42t78 -42q29 0 47 37t45 37h100q29 0 47 -20q17 -19 11 -46q-18 -87 -80 -143q-61 -55 -141 -55
q-61 0 -120 41t-77 41q-31 0 -49 -35q-18 -37 -45 -37h-101q-31 0 -47 19t-10 46z" />
    <glyph glyph-name="Imacron" unicode="&#x12a;" horiz-adv-x="518" 
d="M96 100v1233q0 43 29 72t72 29h122q45 0 74 -29t29 -72v-1233q0 -42 -29 -71t-74 -29h-122q-43 0 -72 29t-29 71zM-61 1663v88q0 31 19 50q20 20 50 20h502q27 0 49 -20q21 -19 21 -50v-88q0 -31 -21 -50q-22 -20 -49 -20h-502q-30 0 -50 20q-19 19 -19 50z" />
    <glyph glyph-name="imacron" unicode="&#x12b;" horiz-adv-x="485" 
d="M90 100v865q0 42 29 71t71 29h105q45 0 74 -29q28 -28 28 -71v-865q0 -43 -28 -71q-29 -29 -74 -29h-105q-42 0 -71 29t-29 71zM6 1473h473q28 0 48 -20t20 -50v-88q0 -30 -20 -50t-48 -20h-473q-28 0 -48 20q-19 19 -19 50v88q0 31 19 50q20 20 48 20z" />
    <glyph glyph-name="Ibreve" unicode="&#x12c;" horiz-adv-x="518" 
d="M96 100v1233q0 43 29 72t72 29h122q45 0 74 -29t29 -72v-1233q0 -42 -29 -71t-74 -29h-122q-43 0 -72 29t-29 71zM-78 1794q-6 28 12 49t52 21h82q46 0 73 -62q30 -80 117 -80q83 0 113 80q18 62 71 62h84q31 0 49 -21q19 -22 13 -49q-22 -116 -114 -191t-218 -75
q-127 0 -219 74q-93 74 -115 192z" />
    <glyph glyph-name="ibreve" unicode="&#x12d;" horiz-adv-x="485" 
d="M90 100v865q0 42 29 71t71 29h105q45 0 74 -29q28 -28 28 -71v-865q0 -43 -28 -71q-29 -29 -74 -29h-105q-42 0 -71 29t-29 71zM-82 1446q-5 29 13 49q18 21 49 21h92q39 0 61 -54q27 -88 113 -88q81 0 108 88q15 54 62 54h90q31 0 49 -21t12 -49q-23 -121 -110 -193
q-88 -73 -213 -73q-126 0 -214 73q-89 74 -112 193z" />
    <glyph glyph-name="Iogonek" unicode="&#x12e;" horiz-adv-x="518" 
d="M27 -201q0 110 102 228q-33 27 -33 73v1233q0 43 29 72t72 29h122q45 0 74 -29t29 -72v-1233q0 -42 -29 -71t-74 -29h-6q-73 -82 -73 -147q0 -70 77 -70q41 0 78 24q8 5 23 5q16 0 24 -11l35 -47q14 -15 12 -36q-1 -18 -18 -29q-113 -86 -225 -86q-94 0 -156 55
q-63 56 -63 141z" />
    <glyph glyph-name="iogonek" unicode="&#x12f;" horiz-adv-x="479" 
d="M246 -401q-95 0 -157 55t-62 141q0 110 98 223q-39 28 -39 82v865q0 42 29 71t71 29h105q45 0 74 -29q28 -28 28 -71v-865q0 -75 -71 -96q-82 -85 -82 -156q0 -35 22 -53t55 -18q40 0 78 26q7 4 23 4t24 -12l31 -37q16 -20 14 -44q-1 -23 -22 -33q-106 -82 -219 -82z
M49 1329q0 83 54 135q56 54 137 54q80 0 136 -54q54 -52 54 -135t-54 -135q-55 -53 -136 -53q-82 0 -137 53q-54 52 -54 135z" />
    <glyph glyph-name="Idotaccent" unicode="&#x130;" horiz-adv-x="518" 
d="M96 100v1233q0 43 29 72t72 29h122q45 0 74 -29t29 -72v-1233q0 -42 -29 -71t-74 -29h-122q-43 0 -72 29t-29 71zM84 1708q0 74 50 124t124 50q75 0 125 -50q49 -49 49 -124q0 -76 -49 -125t-125 -49q-75 0 -124 49q-50 50 -50 125z" />
    <glyph glyph-name="dotlessi" unicode="&#x131;" horiz-adv-x="479" 
d="M86 100v865q0 42 29 71t71 29h105q45 0 74 -29q28 -28 28 -71v-865q0 -43 -28 -71q-29 -29 -74 -29h-105q-42 0 -71 29t-29 71z" />
    <glyph glyph-name="IJ" unicode="&#x132;" horiz-adv-x="1708" 
d="M600 147q-28 28 -22 70t45 66l120 79q22 11 39 11q35 0 70 -29q78 -72 188 -72q118 0 195 76q78 76 78 187v798q0 44 28 72q29 29 72 29h111q42 0 71 -29t29 -72v-798q0 -243 -168 -402q-169 -160 -422 -160q-266 0 -434 174zM96 1333q0 43 29 72t72 29h122q45 0 74 -29
t29 -72v-1233q0 -42 -29 -71t-74 -29h-122q-43 0 -72 29t-29 71v1233z" />
    <glyph glyph-name="ij" unicode="&#x133;" horiz-adv-x="968" 
d="M473 -457q-43 0 -69 24q-25 24 -25 66v113q0 36 23 59q25 25 63 31q110 12 110 101v1028q0 42 29 71t74 29h104q43 0 72 -29t29 -71v-1071q0 -318 -410 -351zM186 0q-42 0 -71 29t-29 71v865q0 42 29 71t71 29h105q45 0 74 -29q28 -28 28 -71v-865q0 -43 -28 -71
q-29 -29 -74 -29h-105zM55 1329q0 79 53 132q52 52 132 52t132 -52t52 -132t-52 -132t-132 -52t-132 52q-53 53 -53 132zM545 1329q0 79 53 132q52 52 131 52q80 0 132 -52t52 -132t-52 -132t-132 -52q-79 0 -131 52q-53 53 -53 132z" />
    <glyph glyph-name="Jcircumflex" unicode="&#x134;" horiz-adv-x="1189" 
d="M1108 1333v-798q0 -243 -168 -402q-169 -160 -422 -160q-268 0 -436 174q-29 29 -23 70q6 42 45 66l121 79q22 11 41 11q34 0 68 -29q78 -72 190 -72q116 0 193 76q78 76 78 187v798q0 44 28 72q29 29 72 29h111q44 0 73 -29t29 -72zM635 1583l-41 59q-15 21 -10 46
q5 24 24 38l281 203q23 17 55 17t55 -17l279 -203q21 -15 25 -38q5 -24 -11 -46l-41 -59q-23 -27 -53 -27q-15 0 -33 9l-221 127l-223 -129q-18 -9 -31 -9q-32 0 -55 29z" />
    <glyph glyph-name="jcircumflex" unicode="&#x135;" horiz-adv-x="489" 
d="M403 965v-1071q0 -318 -409 -351q-44 0 -69 24t-25 66v113q0 36 23 59q25 25 63 31q112 12 112 101v1028q0 42 29 71t72 29h104q43 0 72 -29q28 -28 28 -71zM-57 1235l-41 59q-15 21 -12 45t24 39l281 203q22 16 55 16q38 0 55 -16l281 -203q18 -16 22 -40t-10 -44
l-41 -59q-23 -27 -53 -27q-15 0 -33 9l-221 126l-223 -129q-16 -8 -31 -8q-35 0 -53 29z" />
    <glyph glyph-name="uni0136" unicode="&#x136;" horiz-adv-x="1359" 
d="M197 0q-43 0 -72 29t-29 71v1233q0 43 29 72t72 29h122q45 0 74 -29t29 -72v-479l409 502q26 32 74 55t90 23h209q42 0 54 -23q12 -22 -15 -55l-508 -623l547 -655q27 -32 16 -55t-53 -23h-209q-42 0 -90 23t-74 55l-450 538v-516q0 -42 -29 -71t-74 -29h-122zM526 -227
q0 57 40 96t100 39q66 0 110 -50q43 -49 43 -126q0 -144 -174 -267q-11 -6 -22 -6q-18 0 -31 13l-27 24q-23 25 4 47q70 61 70 90q-46 7 -80 49q-33 40 -33 91z" />
    <glyph glyph-name="uni0137" unicode="&#x137;" horiz-adv-x="1107" 
d="M86 1436q0 42 29 71t71 29h105q45 0 74 -29q28 -28 28 -71v-789l242 336q23 33 71 58q46 24 89 24h161q44 0 56 -24q11 -23 -13 -58l-311 -432l348 -469q25 -36 14 -58q-12 -24 -57 -24h-166q-43 0 -89 24t-70 58l-275 375v-357q0 -43 -28 -71q-29 -29 -74 -29h-105
q-42 0 -71 29t-29 71v1336zM530 -367q-45 7 -79 49q-33 40 -33 91q0 57 40 96t99 39q67 0 111 -50q43 -49 43 -126q0 -148 -176 -267q-11 -6 -21 -6q-20 0 -33 13l-24 24q-23 25 4 47q69 60 69 90z" />
    <glyph glyph-name="Lacute" unicode="&#x139;" horiz-adv-x="1157" 
d="M96 100v1233q0 43 29 72t72 29h122q45 0 74 -29t29 -72v-1034h592q42 0 71 -29t29 -71v-99q0 -42 -29 -71t-71 -29h-817q-43 0 -72 29t-29 71zM88 1657q-14 21 -9 45q4 22 27 37l308 194q24 15 45 15q49 0 73 -47l46 -82q19 -34 7 -66t-46 -47l-332 -139q-12 -6 -27 -6
q-37 0 -57 32z" />
    <glyph glyph-name="lacute" unicode="&#x13a;" horiz-adv-x="479" 
d="M86 100v1336q0 42 29 71t71 29h105q45 0 74 -29q28 -28 28 -71v-1336q0 -43 -28 -71q-29 -29 -74 -29h-105q-42 0 -71 29t-29 71zM86 1821l307 194q24 15 45 15q49 0 74 -48l45 -81q19 -34 7 -66t-46 -47l-332 -139q-14 -7 -26 -7q-37 0 -58 33l-34 64q-15 22 -10 45
q4 21 28 37z" />
    <glyph glyph-name="uni013B" unicode="&#x13b;" horiz-adv-x="1157" 
d="M96 100v1233q0 43 29 72t72 29h122q45 0 74 -29t29 -72v-1034h592q42 0 71 -29t29 -71v-99q0 -42 -29 -71t-71 -29h-817q-43 0 -72 29t-29 71zM489 -227q0 57 40 96q41 39 100 39q66 0 110 -50q43 -49 43 -126q0 -148 -176 -267q-8 -6 -20 -6q-20 0 -33 13l-25 24
q-25 25 2 47q71 61 72 90q-46 7 -80 49q-33 40 -33 91z" />
    <glyph glyph-name="uni013C" unicode="&#x13c;" horiz-adv-x="479" 
d="M86 100v1336q0 42 29 71t71 29h105q45 0 74 -29q28 -28 28 -71v-1336q0 -43 -28 -71q-29 -29 -74 -29h-105q-42 0 -71 29t-29 71zM211 -535q-11 -6 -21 -6q-19 0 -32 13l-25 24q-25 25 2 47q70 61 70 90q-46 7 -80 49q-33 40 -33 91q0 57 40 96t99 39q67 0 111 -50
q43 -49 43 -126q0 -144 -174 -267z" />
    <glyph glyph-name="Lcaron" unicode="&#x13d;" horiz-adv-x="1157" 
d="M96 100v1233q0 43 29 72t72 29h122q45 0 74 -29t29 -72v-1034h592q42 0 71 -29t29 -71v-99q0 -42 -29 -71t-71 -29h-817q-43 0 -72 29t-29 71zM637 1325q0 57 39 96t98 39q68 0 111 -49t43 -125q0 -154 -174 -266q-13 -8 -23 -8q-17 0 -31 14l-24 23q-25 25 2 49
q71 61 72 88q-50 11 -81 49q-32 40 -32 90z" />
    <glyph glyph-name="lcaron" unicode="&#x13e;" horiz-adv-x="792" 
d="M86 100v1336q0 42 29 71t71 29h105q45 0 74 -29q28 -28 28 -71v-1336q0 -43 -28 -71q-29 -29 -74 -29h-105q-42 0 -71 29t-29 71zM522 1200q70 61 70 88q-50 11 -81 49q-32 40 -32 90q0 58 40 97q41 39 99 39q66 0 111 -51q43 -49 43 -123q0 -150 -174 -267
q-13 -8 -23 -8q-16 0 -30 14l-25 23q-25 25 2 49z" />
    <glyph glyph-name="Ldot" unicode="&#x13f;" horiz-adv-x="1157" 
d="M96 100v1233q0 43 29 72t72 29h122q45 0 74 -29t29 -72v-1034h592q42 0 71 -29t29 -71v-99q0 -42 -29 -71t-71 -29h-817q-43 0 -72 29t-29 71zM838 543q-76 0 -125 49t-49 125t49 125t125 49q75 0 124 -49q50 -50 50 -125t-50 -125q-49 -49 -124 -49z" />
    <glyph glyph-name="ldot" unicode="&#x140;" horiz-adv-x="940" 
d="M86 100v1336q0 42 29 71t71 29h105q45 0 74 -29q28 -28 28 -71v-1336q0 -43 -28 -71q-29 -29 -74 -29h-105q-42 0 -71 29t-29 71zM535 717q0 75 50 125q49 49 124 49q76 0 125 -49t49 -125t-49 -125t-125 -49q-75 0 -124 49q-50 50 -50 125z" />
    <glyph glyph-name="Lslash" unicode="&#x141;" horiz-adv-x="1273" 
d="M59 547q-18 29 -10 63q8 33 39 52l125 77v594q0 43 29 72t71 29h123q43 0 72 -29t29 -72v-395l137 84q22 12 45 12q46 0 67 -39l45 -82q17 -30 9 -63q-7 -32 -39 -51l-264 -164v-336h591q42 0 73 -29q30 -28 30 -71v-99q0 -42 -30 -71q-31 -29 -73 -29h-815q-42 0 -71 29
t-29 71v336q-17 -10 -41 -10q-46 0 -70 39z" />
    <glyph glyph-name="lslash" unicode="&#x142;" horiz-adv-x="524" 
d="M57 473q-16 -8 -26 -8q-31 0 -31 43v108q0 64 57 97l52 28v695q0 43 28 71q29 29 72 29h106q43 0 72 -29t29 -71v-516l53 30q11 8 25 8q30 0 30 -40v-109q0 -65 -55 -98l-53 -31v-580q0 -42 -29 -71t-72 -29h-106q-43 0 -72 29q-28 28 -28 71v402z" />
    <glyph glyph-name="Nacute" unicode="&#x143;" horiz-adv-x="1476" 
d="M96 1333q0 43 29 72t72 29h98q39 0 81 -21q41 -21 64 -51l627 -807v778q0 43 30 72q31 29 72 29h111q43 0 72 -29q28 -28 28 -72v-1233q0 -43 -28 -71q-29 -29 -72 -29h-98q-41 0 -81 20q-42 21 -65 52l-626 802v-774q0 -42 -30 -71q-31 -29 -73 -29h-110q-43 0 -72 29
t-29 71v1233zM567 1657q-28 49 19 82l307 194q24 15 45 15q50 0 74 -47l45 -82q19 -34 7 -66t-46 -47l-332 -139q-12 -6 -27 -6q-37 0 -57 32z" />
    <glyph glyph-name="nacute" unicode="&#x144;" horiz-adv-x="1177" 
d="M86 965q0 42 29 71t71 29h105q45 0 74 -29q28 -28 28 -71v-9q107 136 291 136q172 0 290 -117t118 -291v-584q0 -42 -29 -71t-72 -29h-104q-45 0 -74 29t-29 71v502q0 89 -55 147t-139 58q-83 0 -140 -58q-57 -59 -57 -147v-502q0 -43 -28 -71q-29 -29 -74 -29h-105
q-42 0 -71 29t-29 71v865zM428 1309q-28 49 18 82l308 194q22 14 45 14q49 0 73 -47l46 -82q18 -34 7 -65q-12 -32 -46 -47l-332 -139q-14 -7 -27 -7q-34 0 -55 33z" />
    <glyph glyph-name="uni0145" unicode="&#x145;" horiz-adv-x="1476" 
d="M197 0q-43 0 -72 29t-29 71v1233q0 43 29 72t72 29h98q39 0 81 -21q41 -21 64 -51l627 -807v778q0 43 30 72q31 29 72 29h111q43 0 72 -29q28 -28 28 -72v-1233q0 -43 -28 -71q-29 -29 -72 -29h-98q-41 0 -81 20q-42 21 -65 52l-626 802v-774q0 -42 -30 -71
q-31 -29 -73 -29h-110zM612 -227q0 57 40 96t98 39q66 0 110 -50q43 -49 43 -126q0 -148 -174 -267q-7 -6 -20 -6q-20 0 -33 13l-25 24q-25 25 2 47q71 61 72 90q-46 7 -80 49q-33 40 -33 91z" />
    <glyph glyph-name="uni0146" unicode="&#x146;" horiz-adv-x="1177" 
d="M186 0q-42 0 -71 29t-29 71v865q0 42 29 71t71 29h105q45 0 74 -29q28 -28 28 -71v-9q107 136 291 136q172 0 290 -117t118 -291v-584q0 -42 -29 -71t-72 -29h-104q-45 0 -74 29t-29 71v502q0 89 -55 147t-139 58q-83 0 -140 -58q-57 -59 -57 -147v-502q0 -43 -28 -71
q-29 -29 -74 -29h-105zM463 -227q0 57 40 96q41 39 99 39q67 0 111 -50q43 -49 43 -126q0 -144 -174 -267q-8 -6 -21 -6q-20 0 -33 13l-24 24q-25 25 2 47q69 60 69 90q-45 7 -79 49q-33 40 -33 91z" />
    <glyph glyph-name="Ncaron" unicode="&#x147;" horiz-adv-x="1476" 
d="M96 1333q0 43 29 72t72 29h98q39 0 81 -21q41 -21 64 -51l627 -807v778q0 43 30 72q31 29 72 29h111q43 0 72 -29q28 -28 28 -72v-1233q0 -43 -28 -71q-29 -29 -72 -29h-98q-41 0 -81 20q-42 21 -65 52l-626 802v-774q0 -42 -30 -71q-31 -29 -73 -29h-110q-43 0 -72 29
t-29 71v1233zM403 1774q-45 33 -12 84l41 59q21 29 53 29q14 0 31 -11l223 -127l222 125q17 11 32 11q30 0 54 -29l40 -60q15 -21 11 -44q-4 -22 -25 -37l-278 -203q-28 -17 -56 -17q-27 0 -55 17z" />
    <glyph glyph-name="ncaron" unicode="&#x148;" horiz-adv-x="1177" 
d="M86 965q0 42 29 71t71 29h105q45 0 74 -29q28 -28 28 -71v-9q107 136 291 136q172 0 290 -117t118 -291v-584q0 -42 -29 -71t-72 -29h-104q-45 0 -74 29t-29 71v502q0 89 -55 147t-139 58q-83 0 -140 -58q-57 -59 -57 -147v-502q0 -43 -28 -71q-29 -29 -74 -29h-105
q-42 0 -71 29t-29 71v865zM264 1425q-45 33 -12 84l41 60q21 28 53 28q15 0 31 -10l223 -127l221 125q16 10 33 10q29 0 53 -28l41 -60q14 -20 10 -44q-5 -24 -24 -38l-279 -202q-23 -17 -55 -17q-27 0 -55 17z" />
    <glyph glyph-name="Eng" unicode="&#x14a;" horiz-adv-x="1476" 
d="M197 0q-43 0 -72 29t-29 71v1233q0 43 29 72t72 29h98q39 0 81 -21q41 -21 64 -51l627 -807v778q0 43 30 72q31 29 72 29h111q43 0 72 -29q28 -28 28 -72v-1259q0 -217 -136 -369q-137 -153 -353 -186q-45 0 -72 24q-26 23 -26 70l2 127q0 28 20 49q22 24 51 31
q81 21 133 78q54 59 66 137l-655 839v-774q0 -42 -30 -71q-31 -29 -73 -29h-110z" />
    <glyph glyph-name="eng" unicode="&#x14b;" horiz-adv-x="1177" 
d="M186 0q-42 0 -71 29t-29 71v865q0 42 29 71t71 29h105q45 0 74 -29q28 -28 28 -71v-9q107 136 291 136q172 0 290 -117t118 -291v-793q0 -321 -410 -350q-39 0 -64 23q-24 22 -24 61v119q0 35 24 59q25 25 64 31q102 12 102 100v668q0 89 -55 147t-139 58q-83 0 -140 -58
q-57 -59 -57 -147v-502q0 -43 -28 -71q-29 -29 -74 -29h-105z" />
    <glyph glyph-name="Omacron" unicode="&#x14c;" horiz-adv-x="1638" 
d="M68 717q0 317 215 530q214 213 536 213t538 -213t216 -530q0 -318 -216 -531t-538 -213q-321 0 -536 213t-215 531zM406 717q0 -184 118 -308t295 -124q179 0 297 124q119 125 119 308t-119 308q-118 124 -297 124q-177 0 -295 -124t-118 -308zM500 1663v88q0 31 19 50
q20 20 48 20h504q28 0 48 -20t20 -50v-88q0 -30 -20 -50t-48 -20h-504q-28 0 -48 20q-19 19 -19 50z" />
    <glyph glyph-name="omacron" unicode="&#x14d;" 
d="M53 532q0 239 163 399q164 161 407 161q242 0 406 -161q163 -160 163 -399q0 -238 -163 -398q-164 -161 -406 -161q-243 0 -407 161q-163 160 -163 398zM373 532q0 -110 71 -182q72 -74 179 -74q105 0 177 75t72 181q0 107 -72 182q-71 74 -177 74q-107 0 -179 -73
q-71 -72 -71 -183zM301 1315v88q0 31 21 50q22 20 49 20h501q28 0 50 -20q20 -19 20 -50v-88q0 -31 -20 -50q-22 -20 -50 -20h-501q-27 0 -49 20q-21 19 -21 50z" />
    <glyph glyph-name="Obreve" unicode="&#x14e;" horiz-adv-x="1638" 
d="M819 -27q-321 0 -536 213t-215 531q0 317 215 530q214 213 536 213t538 -213t216 -530q0 -318 -216 -531t-538 -213zM406 717q0 -184 118 -308t295 -124q179 0 297 124q119 125 119 308t-119 308q-118 124 -297 124q-177 0 -295 -124t-118 -308zM483 1794q-6 27 13 49
q18 21 49 21h84q48 0 71 -62q33 -80 117 -80t113 80q23 62 74 62h81q32 0 50 -21t14 -49q-22 -118 -115 -192q-92 -74 -219 -74q-126 0 -218 74q-91 74 -114 192z" />
    <glyph glyph-name="obreve" unicode="&#x14f;" 
d="M53 532q0 239 163 399q164 161 407 161q242 0 406 -161q163 -160 163 -399q0 -238 -163 -398q-164 -161 -406 -161q-243 0 -407 161q-163 160 -163 398zM373 532q0 -110 71 -182q72 -74 179 -74q105 0 177 75t72 181q0 107 -72 182q-71 74 -177 74q-107 0 -179 -73
q-71 -72 -71 -183zM348 1516h82q47 0 74 -62q30 -80 117 -80q82 0 112 80q23 62 72 62h84q31 0 49 -21t12 -49q-23 -121 -113 -193q-91 -73 -219 -73q-127 0 -218 73q-90 72 -113 193q-6 28 12 49t49 21z" />
    <glyph glyph-name="Ohungarumlaut" unicode="&#x150;" horiz-adv-x="1638" 
d="M68 717q0 317 215 530q214 213 536 213t538 -213t216 -530q0 -318 -216 -531t-538 -213q-321 0 -536 213t-215 531zM406 717q0 -184 118 -308t295 -124q179 0 297 124q119 125 119 308t-119 308q-118 124 -297 124q-177 0 -295 -124t-118 -308zM504 1694l198 250
q28 32 66 32q33 0 57 -24l70 -62q29 -28 28 -60q-1 -34 -30 -61l-238 -206q-19 -19 -47 -19q-19 0 -41 17l-57 49q-44 39 -6 84zM938 1694l199 250q28 32 65 32q31 0 58 -24l69 -62q27 -27 27 -60q0 -34 -29 -61l-237 -206q-22 -19 -48 -19q-21 0 -43 17l-53 49
q-45 38 -8 84z" />
    <glyph glyph-name="ohungarumlaut" unicode="&#x151;" 
d="M53 532q0 239 163 399q164 161 407 161q242 0 406 -161q163 -160 163 -399q0 -238 -163 -398q-164 -161 -406 -161q-243 0 -407 161q-163 160 -163 398zM373 532q0 -110 71 -182q72 -74 179 -74q105 0 177 75t72 181q0 107 -72 182q-71 74 -177 74q-107 0 -179 -73
q-71 -72 -71 -183zM305 1346l201 249q28 33 63 33q34 0 58 -24l71 -62q27 -27 27 -60q0 -34 -29 -61l-237 -207q-21 -18 -47 -18q-23 0 -43 16l-56 50q-43 38 -8 84zM739 1346l199 249q28 33 66 33q33 0 57 -24l72 -62q26 -26 25 -60t-30 -61l-237 -207q-18 -18 -47 -18
q-21 0 -41 16l-55 50q-44 39 -9 84z" />
    <glyph glyph-name="OE" unicode="&#x152;" horiz-adv-x="2390" 
d="M819 -27q-321 0 -536 213t-215 531q0 317 215 530q214 213 536 213q248 0 438 -131v4q0 43 29 72t72 29h862q43 0 72 -29q28 -28 28 -72v-98q0 -44 -28 -72t-72 -28h-639v-263h520q44 0 72 -28q29 -29 29 -72v-96q0 -45 -29 -74t-72 -29h-520v-274h649q43 0 72 -29
t29 -71v-99q0 -42 -29 -71t-72 -29h-872q-43 0 -72 29t-29 71v4q-190 -131 -438 -131zM819 1149q-177 0 -295 -124t-118 -308t118 -308t295 -124q179 0 297 124q119 125 119 308t-119 308q-118 124 -297 124z" />
    <glyph glyph-name="oe" unicode="&#x153;" horiz-adv-x="2039" 
d="M623 1092q249 0 411 -166q159 166 406 166q246 0 405 -167q160 -168 156 -403q-1 -40 -35 -70q-33 -30 -78 -30h-692q27 -84 96 -135t164 -51q103 0 174 59q33 27 70 27q4 0 16 -3l150 -34q42 -7 56 -41q14 -33 -13 -66q-162 -205 -453 -205q-254 0 -420 166
q-166 -166 -413 -166q-243 0 -407 161q-163 160 -163 398q0 239 163 399q164 161 407 161zM623 276q105 0 177 75t72 181q0 107 -72 182q-71 74 -177 74q-107 0 -179 -73q-71 -72 -71 -183q0 -110 71 -182q72 -74 179 -74zM1198 649h488q-26 80 -94 131q-65 49 -154 49
q-83 0 -148 -49t-92 -131z" />
    <glyph glyph-name="Racute" unicode="&#x154;" horiz-adv-x="1378" 
d="M96 1333q0 43 29 72t72 29h571q220 0 370 -139q148 -138 148 -343q0 -136 -69 -247t-189 -173l260 -444q21 -39 6 -63q-16 -25 -57 -25h-160q-42 0 -87 25q-43 24 -64 63l-226 383h-278v-371q0 -42 -29 -71t-74 -29h-122q-43 0 -72 29t-29 71v1233zM768 1135h-346v-365
h346q78 0 129 52t51 130t-51 130q-51 53 -129 53zM420 1657q-28 49 18 82l307 194q24 15 46 15q49 0 73 -47l45 -82q19 -34 7 -66t-46 -47l-329 -139q-12 -6 -27 -6q-37 0 -57 32z" />
    <glyph glyph-name="racute" unicode="&#x155;" horiz-adv-x="741" 
d="M186 0q-42 0 -71 29t-29 71v865q0 42 29 71t71 29h105q45 0 73 -28t29 -70q84 100 225 118q8 2 17 2q35 0 59 -28q25 -30 25 -68v-141q0 -59 -64 -59q-6 0 -10 1t-8 1h-29q-92 0 -153 -63q-62 -64 -62 -157v-473q0 -43 -28 -71q-29 -29 -74 -29h-105zM211 1309
q-28 49 18 82l308 194q22 14 45 14q49 0 73 -47l45 -82q19 -35 8 -65q-12 -32 -46 -47l-332 -139q-14 -7 -27 -7q-34 0 -55 33z" />
    <glyph glyph-name="uni0156" unicode="&#x156;" horiz-adv-x="1378" 
d="M96 100v1233q0 43 29 72t72 29h571q220 0 370 -139q148 -138 148 -343q0 -136 -69 -247t-189 -173l260 -444q21 -39 6 -63q-16 -25 -57 -25h-160q-42 0 -87 25q-43 24 -64 63l-226 383h-278v-371q0 -42 -29 -71t-74 -29h-122q-43 0 -72 29t-29 71zM768 1135h-346v-365
h346q78 0 129 52t51 130t-51 130q-51 53 -129 53zM684 -367q-46 7 -80 49q-33 40 -33 91q0 57 40 96q41 39 100 39q66 0 110 -50q43 -49 43 -126q0 -148 -176 -267q-7 -6 -20 -6q-20 0 -33 13l-25 24q-23 25 4 47q70 61 70 90z" />
    <glyph glyph-name="uni0157" unicode="&#x157;" horiz-adv-x="741" 
d="M86 965q0 42 29 71t71 29h105q45 0 73 -28t29 -70q84 100 225 118q8 2 17 2q35 0 59 -28q25 -30 25 -68v-141q0 -59 -64 -59q-6 0 -10 1t-8 1h-29q-92 0 -153 -63q-62 -64 -62 -157v-473q0 -43 -28 -71q-29 -29 -74 -29h-105q-42 0 -71 29t-29 71v865zM213 -367
q-46 7 -80 49q-33 40 -33 91q0 57 40 96t100 39q66 0 110 -50q43 -49 43 -126q0 -144 -174 -267q-11 -6 -22 -6q-18 0 -31 13l-25 24q-25 25 2 47q70 61 70 90z" />
    <glyph glyph-name="Rcaron" unicode="&#x158;" horiz-adv-x="1378" 
d="M96 1333q0 43 29 72t72 29h571q220 0 370 -139q148 -138 148 -343q0 -136 -69 -247t-189 -173l260 -444q21 -39 6 -63q-16 -25 -57 -25h-160q-42 0 -87 25q-43 24 -64 63l-226 383h-278v-371q0 -42 -29 -71t-74 -29h-122q-43 0 -72 29t-29 71v1233zM768 1135h-346v-365
h346q78 0 129 52t51 130t-51 130q-51 53 -129 53zM256 1774q-45 33 -12 84l41 59q21 29 53 29q14 0 31 -11l223 -127l221 125q17 11 33 11q29 0 53 -29l41 -60q14 -20 10 -44q-4 -22 -22 -37l-281 -203q-23 -17 -55 -17q-27 0 -55 17z" />
    <glyph glyph-name="rcaron" unicode="&#x159;" horiz-adv-x="741" 
d="M186 0q-42 0 -71 29t-29 71v865q0 42 29 71t71 29h105q45 0 73 -28t29 -70q84 100 225 118q8 2 17 2q35 0 59 -28q25 -30 25 -68v-141q0 -59 -64 -59q-6 0 -10 1t-8 1h-29q-92 0 -153 -63q-62 -64 -62 -157v-473q0 -43 -28 -71q-29 -29 -74 -29h-105zM47 1425
q-45 33 -12 84l41 60q22 28 53 28q15 0 31 -10l223 -127l221 125q16 10 33 10q29 0 53 -28l41 -60q14 -20 10 -44q-5 -24 -24 -38l-279 -202q-23 -17 -55 -17q-27 0 -55 17z" />
    <glyph glyph-name="Sacute" unicode="&#x15a;" horiz-adv-x="1234" 
d="M764 1092q-55 69 -166 69q-74 0 -123 -33t-49 -84q0 -31 16 -53q17 -23 67 -44q47 -20 83 -33q1 -1 121 -37q28 -10 47 -15q71 -23 109 -37q48 -18 107 -52q61 -35 101 -78q41 -45 67 -110q27 -69 27 -153q0 -210 -149 -334q-151 -125 -387 -125q-182 0 -325 75t-212 198
q-21 37 -3 71q18 35 63 45l178 44q6 2 14 2q35 0 58 -35q68 -101 227 -101q88 0 149 37q62 38 62 94q0 40 -36 70q-37 31 -77 47q-33 13 -102 37q-15 5 -21 6l-107 34q-47 16 -101 37q-59 23 -98 47q-29 18 -79 56q-44 33 -67 74q-21 36 -40 92q-18 53 -18 117
q0 196 137 318t355 122q160 0 288 -66q127 -66 191 -175q23 -38 5 -73q-18 -36 -62 -46l-174 -39q-6 -2 -15 -2q-31 0 -61 33zM459 1739l307 194q24 15 45 15q50 0 74 -47l45 -82q19 -34 7 -66t-46 -47l-332 -139q-12 -6 -27 -6q-37 0 -57 32l-35 64q-14 21 -9 45
q4 21 28 37z" />
    <glyph glyph-name="sacute" unicode="&#x15b;" horiz-adv-x="983" 
d="M821 784l-131 -20q-37 0 -78 35q-44 47 -133 47q-121 0 -121 -70q0 -41 84 -71l191 -62q161 -51 232 -129q71 -79 71 -199q0 -168 -120 -255t-318 -87q-335 0 -430 222q-16 36 5 70q21 35 66 42l131 19h4q37 0 70 -39q45 -62 160 -62q61 0 100 21t39 57q0 52 -106 82
l-195 57q-147 40 -215 115q-66 73 -66 193q0 176 119 259t314 83q302 0 397 -193q17 -38 -4 -72q-22 -36 -66 -43zM336 1391l307 194q22 14 45 14q50 0 74 -47l45 -82q18 -34 7 -65q-12 -32 -46 -47l-332 -139q-14 -7 -26 -7q-37 0 -58 33l-35 64q-14 21 -9 45q4 21 28 37z
" />
    <glyph glyph-name="Scircumflex" unicode="&#x15c;" horiz-adv-x="1234" 
d="M764 1092q-55 69 -166 69q-74 0 -123 -33t-49 -84q0 -31 16 -53q17 -23 67 -44q47 -20 83 -33q1 -1 121 -37q28 -10 47 -15q71 -23 109 -37q48 -18 107 -52q61 -35 101 -78q41 -45 67 -110q27 -69 27 -153q0 -210 -149 -334q-151 -125 -387 -125q-182 0 -325 75t-212 198
q-21 37 -3 71q18 35 63 45l178 44q6 2 14 2q35 0 58 -35q68 -101 227 -101q88 0 149 37q62 38 62 94q0 40 -36 70q-37 31 -77 47q-33 13 -102 37q-15 5 -21 6l-107 34q-47 16 -101 37q-59 23 -98 47q-29 18 -79 56q-44 33 -67 74q-21 36 -40 92q-18 53 -18 117
q0 196 137 318t355 122q160 0 288 -66q127 -66 191 -175q23 -38 5 -73q-18 -36 -62 -46l-174 -39q-6 -2 -15 -2q-31 0 -61 33zM303 1583l-41 59q-15 21 -10 46q5 24 24 38l281 203q23 17 55 17q33 0 56 -17l278 -203q21 -15 25 -38q5 -25 -10 -46l-41 -59q-22 -27 -54 -27
q-14 0 -32 9l-222 127l-223 -129q-18 -9 -31 -9q-32 0 -55 29z" />
    <glyph glyph-name="scircumflex" unicode="&#x15d;" horiz-adv-x="983" 
d="M821 784l-131 -20q-37 0 -78 35q-44 47 -133 47q-121 0 -121 -70q0 -41 84 -71l191 -62q161 -51 232 -129q71 -79 71 -199q0 -168 -120 -255t-318 -87q-335 0 -430 222q-16 36 5 70q21 35 66 42l131 19h4q37 0 70 -39q45 -62 160 -62q61 0 100 21t39 57q0 52 -106 82
l-195 57q-147 40 -215 115q-66 73 -66 193q0 176 119 259t314 83q302 0 397 -193q17 -38 -4 -72q-22 -36 -66 -43zM182 1235l-41 59q-14 20 -11 45q3 24 24 39l280 203q22 16 55 16q34 0 56 -16l278 -203q20 -15 25 -39q5 -25 -10 -45l-41 -59q-23 -27 -54 -27q-14 0 -32 9
l-222 126l-223 -129q-16 -8 -30 -8q-36 0 -54 29z" />
    <glyph glyph-name="Scedilla" unicode="&#x15e;" horiz-adv-x="1234" 
d="M98 246q-21 37 -3 71q18 35 63 45l178 43q9 3 14 3q35 0 58 -35q68 -101 227 -101q88 0 149 37q62 38 62 94q0 40 -36 70q-37 31 -77 47q-33 13 -102 37q-15 5 -21 6l-107 34q-47 16 -101 37q-59 23 -98 47q-29 18 -79 56q-44 33 -67 74q-21 36 -40 92q-18 53 -18 117
q0 196 137 318t355 122q160 0 288 -66q127 -66 191 -175q23 -38 5 -73q-18 -36 -62 -46l-174 -39q-6 -2 -15 -2q-31 0 -61 33q-55 69 -166 69q-74 0 -123 -33t-49 -84q0 -31 16 -53q17 -23 67 -44q47 -20 83 -33q1 -1 121 -37q28 -10 47 -15q71 -23 109 -37q48 -18 107 -52
q61 -35 101 -78q41 -45 67 -110q27 -69 27 -153q0 -176 -108 -294q-107 -117 -293 -152l-14 -68l6 -2q5 -1 9 -2q7 -1 33 -14q23 -11 42 -29q20 -18 34 -48q15 -31 15 -71q0 -93 -77 -156t-193 -63q-91 0 -185 45q-16 6 -24 26q-8 21 -4 40l10 49q6 26 29 26q10 0 18 -2
q51 -22 98 -22q53 0 86 17q35 18 35 44q0 51 -121 66q-41 11 -35 47l27 108q-154 15 -278 88q-121 71 -183 181z" />
    <glyph glyph-name="scedilla" unicode="&#x15f;" horiz-adv-x="983" 
d="M68 195q-16 36 5 70q21 35 66 42l131 19h4q37 0 70 -39q45 -62 160 -62q61 0 100 21t39 57q0 52 -106 82l-195 57q-147 40 -215 115q-66 73 -66 193q0 176 119 259t314 83q302 0 397 -193q17 -38 -4 -72q-22 -36 -66 -43l-131 -20q-37 0 -78 35q-44 47 -133 47
q-121 0 -121 -70q0 -41 84 -71l191 -62q161 -51 232 -129q71 -79 71 -199q0 -134 -80 -219q-78 -83 -219 -110l-16 -68l5 -2q6 -1 10 -2q9 -2 34 -14t43 -29t33 -48q16 -34 16 -71q0 -93 -77 -156t-193 -63q-90 0 -185 45q-16 6 -24 26q-8 21 -4 40l10 49q6 26 28 26
q11 0 19 -2q51 -22 98 -22q53 0 86 17q35 18 35 44q0 51 -121 66q-41 11 -35 47l27 106q-274 24 -358 220z" />
    <glyph glyph-name="Scaron" unicode="&#x160;" horiz-adv-x="1234" 
d="M764 1092q-55 69 -166 69q-74 0 -123 -33t-49 -84q0 -31 16 -53q17 -23 67 -44q47 -20 83 -33q1 -1 121 -37q28 -10 47 -15q71 -23 109 -37q48 -18 107 -52q61 -35 101 -78q41 -45 67 -110q27 -69 27 -153q0 -210 -149 -334q-151 -125 -387 -125q-182 0 -325 75t-212 198
q-21 37 -3 71q18 35 63 45l178 44q6 2 14 2q35 0 58 -35q68 -101 227 -101q88 0 149 37q62 38 62 94q0 40 -36 70q-37 31 -77 47q-33 13 -102 37q-15 5 -21 6l-107 34q-47 16 -101 37q-59 23 -98 47q-29 18 -79 56q-44 33 -67 74q-21 36 -40 92q-18 53 -18 117
q0 196 137 318t355 122q160 0 288 -66q127 -66 191 -175q23 -38 5 -73q-18 -36 -62 -46l-174 -39q-6 -2 -15 -2q-31 0 -61 33zM920 1915l41 -60q14 -20 10 -44q-4 -22 -25 -37l-278 -203q-28 -17 -56 -17q-27 0 -55 17l-281 203q-19 14 -24 38q-5 25 10 46l41 59
q24 29 53 29q16 0 33 -11l223 -127l222 125q17 11 32 11q30 0 54 -29z" />
    <glyph glyph-name="scaron" unicode="&#x161;" horiz-adv-x="983" 
d="M821 784l-131 -20q-37 0 -78 35q-44 47 -133 47q-121 0 -121 -70q0 -41 84 -71l191 -62q161 -51 232 -129q71 -79 71 -199q0 -168 -120 -255t-318 -87q-335 0 -430 222q-16 36 5 70q21 35 66 42l131 19h4q37 0 70 -39q45 -62 160 -62q61 0 100 21t39 57q0 52 -106 82
l-195 57q-147 40 -215 115q-66 73 -66 193q0 176 119 259t314 83q302 0 397 -193q17 -38 -4 -72q-22 -36 -66 -43zM797 1567l41 -60q14 -20 10 -44q-4 -23 -25 -38l-278 -202q-28 -17 -56 -17q-27 0 -55 17l-280 202q-21 15 -24 38q-3 25 11 46l41 60q21 28 54 28
q14 0 30 -10l223 -127l222 125q16 10 32 10q30 0 54 -28z" />
    <glyph glyph-name="uni0162" unicode="&#x162;" horiz-adv-x="1294" 
d="M43 1235v98q0 43 29 72t73 29h1006q43 0 72 -29q28 -28 28 -72v-98q0 -44 -28 -72t-72 -28h-342v-1035q0 -42 -29 -71t-71 -29h-123q-43 0 -72 29t-29 71v1035h-340q-45 0 -73 28q-29 29 -29 72zM514 -227q0 57 40 96t99 39q67 0 111 -50q43 -49 43 -126
q0 -144 -174 -267q-10 -6 -23 -6q-17 0 -30 13l-25 24q-25 25 2 47q70 61 70 90q-46 7 -80 49q-33 40 -33 91z" />
    <glyph glyph-name="uni0163" unicode="&#x163;" horiz-adv-x="753" 
d="M96 799q-36 0 -62 24t-26 62v94q0 37 26 61q27 25 62 25h66v104q0 44 29 73q30 30 73 30h105q43 0 71 -30q29 -31 29 -73v-104h154q35 0 62 -25q26 -24 26 -61v-94q0 -38 -26 -62q-25 -24 -62 -24h-154v-400q0 -49 33 -81q32 -31 84 -31h43q33 0 58 -25q24 -24 24 -59
v-119q0 -35 -24 -59q-25 -25 -58 -25h-94q-159 0 -266 97t-107 243v459h-66zM408 -367q-46 7 -80 49q-33 40 -33 91q0 57 40 96q41 39 99 39q67 0 111 -50q43 -49 43 -126q0 -144 -174 -267q-10 -6 -21 -6q-20 0 -33 13l-24 24q-25 25 2 47q70 61 70 90z" />
    <glyph glyph-name="Tcaron" unicode="&#x164;" horiz-adv-x="1294" 
d="M43 1235v98q0 43 29 72t73 29h1006q43 0 72 -29q28 -28 28 -72v-98q0 -44 -28 -72t-72 -28h-342v-1035q0 -42 -29 -71t-71 -29h-123q-43 0 -72 29t-29 71v1035h-340q-45 0 -73 28q-29 29 -29 72zM311 1774q-45 33 -12 84l41 59q21 29 53 29q14 0 31 -11l223 -127l221 125
q17 11 33 11q29 0 53 -29l41 -60q15 -21 11 -44q-4 -21 -23 -37l-281 -203q-23 -17 -55 -17q-27 0 -55 17z" />
    <glyph glyph-name="tcaron" unicode="&#x165;" horiz-adv-x="845" 
d="M104 799q-36 0 -62 24t-26 62v94q0 37 26 61q27 25 62 25h66v104q0 42 29 73q28 30 71 30h107q43 0 72 -30q28 -29 28 -73v-104h154q35 0 62 -25q26 -24 26 -61v-94q0 -38 -26 -62q-25 -24 -62 -24h-154v-400q0 -49 33 -81q32 -31 84 -31h41q34 0 59 -25t25 -59v-119
q0 -34 -25 -59t-59 -25h-92q-158 0 -265 97q-108 97 -108 243v459h-66zM645 1286q-47 8 -80 48t-33 91q0 58 40 97t100 39q65 0 110 -51q43 -49 43 -126q0 -147 -176 -266q-10 -6 -20 -6q-21 0 -33 12l-25 25q-25 25 4 47q69 58 70 90z" />
    <glyph glyph-name="Tbar" unicode="&#x166;" horiz-adv-x="1294" 
d="M145 1135q-45 0 -73 28q-29 29 -29 72v98q0 43 29 72t73 29h1006q43 0 72 -29q28 -28 28 -72v-98q0 -44 -28 -72t-72 -28h-342v-342h137q40 0 68 -28q26 -26 26 -67v-96q0 -41 -26 -67q-27 -27 -68 -27h-137v-408q0 -42 -29 -71t-71 -29h-123q-43 0 -72 29t-29 71v408
h-137q-40 0 -67 27t-27 67v96q0 40 27 67q28 28 67 28h137v342h-340z" />
    <glyph glyph-name="tbar" unicode="&#x167;" horiz-adv-x="761" 
d="M104 799q-36 0 -62 24t-26 62v94q0 37 26 61q27 25 62 25h66v104q0 42 29 73q28 30 71 30h107q43 0 72 -30q28 -29 28 -73v-104h154q35 0 62 -25q26 -24 26 -61v-94q0 -38 -26 -62q-25 -24 -62 -24h-154v-144h107q27 0 44 -17t17 -44v-70q0 -27 -17 -44t-44 -17h-107v-64
q0 -49 33 -81q32 -31 84 -31h41q34 0 59 -25t25 -59v-119q0 -34 -25 -59t-59 -25h-92q-158 0 -265 97q-108 97 -108 243v123h-45q-27 0 -44 17q-18 18 -18 44v70q0 26 18 44q17 17 44 17h45v144h-66z" />
    <glyph glyph-name="Utilde" unicode="&#x168;" horiz-adv-x="1437" 
d="M84 580v753q0 43 29 72t71 29h123q43 0 72 -29t29 -72v-751q0 -133 89 -222q88 -88 222 -88t222 88q89 89 89 222v751q0 43 29 72t71 29h123q43 0 72 -29t29 -72v-753q0 -259 -183 -433t-452 -174q-270 0 -453 174q-182 173 -182 433zM424 1579q-29 0 -45 19t-10 47
q21 84 87 141t150 57q63 0 126 -42t81 -42q39 0 55 45q11 29 31 29h113q28 0 46 -19q17 -19 11 -47q-21 -85 -85 -142q-63 -56 -150 -56q-64 0 -128 41t-81 41q-41 0 -58 -45q-6 -27 -30 -27h-113z" />
    <glyph glyph-name="utilde" unicode="&#x169;" horiz-adv-x="1177" 
d="M86 381v584q0 42 29 71t71 29h105q45 0 74 -29q28 -28 28 -71v-502q0 -88 56 -147q55 -58 139 -58q83 0 140 58q56 57 56 147v502q0 42 29 71t74 29h104q43 0 72 -29t29 -71v-865q0 -42 -29 -71t-72 -29h-104q-45 0 -74 29t-29 71v9q-107 -136 -290 -136q-172 0 -290 117
t-118 291zM295 1231q-29 0 -45 19t-10 46q21 85 87 142t150 57q64 0 127 -42t80 -42q38 0 55 45q11 29 31 29h113q28 0 46 -20q17 -19 11 -46q-21 -85 -85 -142q-63 -56 -150 -56q-64 0 -128 41t-81 41q-41 0 -58 -46q-6 -26 -30 -26h-113z" />
    <glyph glyph-name="Umacron" unicode="&#x16a;" horiz-adv-x="1437" 
d="M84 1333q0 43 29 72t71 29h123q43 0 72 -29t29 -72v-751q0 -133 89 -222q88 -88 222 -88t222 88q89 89 89 222v751q0 43 29 72t71 29h123q43 0 72 -29t29 -72v-753q0 -259 -183 -433t-452 -174q-270 0 -453 174q-182 173 -182 433v753zM467 1593q-27 0 -49 20
q-21 19 -21 50v88q0 31 21 50q22 20 49 20h502q30 0 50 -20q19 -19 19 -50v-88q0 -31 -19 -50q-20 -20 -50 -20h-502z" />
    <glyph glyph-name="umacron" unicode="&#x16b;" horiz-adv-x="1177" 
d="M494 -27q-172 0 -290 117t-118 291v584q0 42 29 71t71 29h105q45 0 74 -29q28 -28 28 -71v-502q0 -88 56 -147q55 -58 139 -58q83 0 140 58q56 57 56 147v502q0 42 29 71t74 29h104q43 0 72 -29t29 -71v-865q0 -42 -29 -71t-72 -29h-104q-45 0 -74 29t-29 71v9
q-107 -136 -290 -136zM270 1403q0 30 20 50t48 20h502q30 0 50 -20q19 -19 19 -50v-88q0 -31 -19 -50q-20 -20 -50 -20h-502q-28 0 -48 20t-20 50v88z" />
    <glyph glyph-name="Ubreve" unicode="&#x16c;" horiz-adv-x="1437" 
d="M719 -27q-270 0 -453 174q-182 173 -182 433v753q0 43 29 72t71 29h123q43 0 72 -29t29 -72v-751q0 -133 89 -222q88 -88 222 -88t222 88q89 89 89 222v751q0 43 29 72t71 29h123q43 0 72 -29t29 -72v-753q0 -259 -183 -433t-452 -174zM383 1794q-6 28 12 49t49 21h84
q45 0 72 -62q33 -80 117 -80q83 0 112 80q23 62 74 62h82q31 0 49 -21q19 -22 13 -49q-23 -118 -114 -192q-92 -74 -218 -74t-218 74q-91 74 -114 192z" />
    <glyph glyph-name="ubreve" unicode="&#x16d;" horiz-adv-x="1177" 
d="M86 965q0 42 29 71t71 29h105q45 0 74 -29q28 -28 28 -71v-502q0 -88 56 -147q55 -58 139 -58q83 0 140 58q56 57 56 147v502q0 42 29 71t74 29h104q43 0 72 -29t29 -71v-865q0 -42 -29 -71t-72 -29h-104q-45 0 -74 29t-29 71v9q-107 -136 -290 -136q-172 0 -290 117
t-118 291v584zM254 1446q-6 28 12 49t49 21h84q45 0 72 -62q33 -80 117 -80q83 0 112 80q23 62 74 62h82q31 0 49 -21q19 -22 15 -49q-23 -119 -115 -193q-91 -73 -219 -73q-127 0 -218 73t-114 193z" />
    <glyph glyph-name="Uring" unicode="&#x16e;" horiz-adv-x="1437" 
d="M719 -27q-270 0 -453 174q-182 173 -182 433v753q0 43 29 72t71 29h123q43 0 72 -29t29 -72v-751q0 -133 89 -222q88 -88 222 -88t222 88q89 89 89 222v751q0 43 29 72t71 29h123q43 0 72 -29t29 -72v-753q0 -259 -183 -433t-452 -174zM469 1776q0 101 73 176
q72 73 177 73q103 0 176 -73q74 -74 74 -176q0 -106 -74 -178q-73 -72 -176 -72q-105 0 -177 72q-73 73 -73 178zM719 1839q-27 0 -45 -18q-19 -19 -19 -45t19 -45t45 -19t45 19q18 18 18 45t-18 45t-45 18z" />
    <glyph glyph-name="uring" unicode="&#x16f;" horiz-adv-x="1177" 
d="M86 965q0 42 29 71t71 29h105q45 0 74 -29q28 -28 28 -71v-502q0 -88 56 -147q55 -58 139 -58q83 0 140 58q56 57 56 147v502q0 42 29 71t74 29h104q43 0 72 -29t29 -71v-865q0 -42 -29 -71t-72 -29h-104q-45 0 -74 29t-29 71v9q-107 -136 -290 -136q-172 0 -290 117
t-118 291v584zM340 1427q0 102 73 177q72 73 177 73q103 0 176 -73q74 -74 74 -177q0 -105 -74 -177t-176 -72q-105 0 -177 72q-73 73 -73 177zM526 1427q0 -27 18 -45t46 -18t46 18q17 17 17 45q0 29 -17 46q-18 18 -46 18t-46 -18t-18 -46z" />
    <glyph glyph-name="Uhungarumlaut" unicode="&#x170;" horiz-adv-x="1437" 
d="M84 580v753q0 43 29 72t71 29h123q43 0 72 -29t29 -72v-751q0 -133 89 -222q88 -88 222 -88t222 88q89 89 89 222v751q0 43 29 72t71 29h123q43 0 72 -29t29 -72v-753q0 -259 -183 -433t-452 -174q-270 0 -453 174q-182 173 -182 433zM410 1610q-44 39 -9 84l201 250
q28 32 66 32q28 0 57 -24l70 -62q26 -26 26 -60t-28 -61l-238 -206q-24 -19 -47 -19q-21 0 -43 17zM844 1610q-43 38 -8 84l200 250q26 32 64 32q33 0 57 -24l72 -62q26 -26 26 -60t-28 -61l-240 -206q-19 -19 -47 -19q-19 0 -41 17z" />
    <glyph glyph-name="uhungarumlaut" unicode="&#x171;" horiz-adv-x="1177" 
d="M86 381v584q0 42 29 71t71 29h105q45 0 74 -29q28 -28 28 -71v-502q0 -88 56 -147q55 -58 139 -58q83 0 140 58q56 57 56 147v502q0 42 29 71t74 29h104q43 0 72 -29t29 -71v-865q0 -42 -29 -71t-72 -29h-104q-45 0 -74 29t-29 71v9q-107 -136 -290 -136q-172 0 -290 117
t-118 291zM281 1262q-43 39 -9 84l201 249q29 33 66 33q30 0 57 -24l70 -62q28 -27 27 -60q-2 -35 -29 -61l-238 -207q-21 -18 -47 -18q-23 0 -43 16zM715 1262q-43 38 -8 84l200 249q27 33 64 33q33 0 57 -24l72 -62q26 -26 26 -60t-28 -61l-240 -207q-18 -18 -47 -18
q-21 0 -41 16z" />
    <glyph glyph-name="Uogonek" unicode="&#x172;" horiz-adv-x="1437" 
d="M84 1333q0 43 29 72t71 29h123q43 0 72 -29t29 -72v-751q0 -133 89 -222q88 -88 222 -88t222 88q89 89 89 222v751q0 43 29 72t71 29h123q43 0 72 -29t29 -72v-753q0 -214 -131 -377q-130 -161 -340 -211q-34 -27 -76 -84q-39 -52 -39 -103q0 -34 22 -53q21 -18 54 -18
q40 0 78 24q12 6 22 6q20 0 27 -12l35 -45q12 -16 10 -36q-1 -18 -17 -29q-112 -86 -227 -86q-95 0 -156 55t-61 141q0 110 98 223q-246 22 -408 193q-161 170 -161 412v753z" />
    <glyph glyph-name="uogonek" unicode="&#x173;" horiz-adv-x="1177" 
d="M86 965q0 42 29 71t71 29h105q45 0 74 -29q28 -28 28 -71v-502q0 -88 56 -147q55 -58 139 -58q83 0 140 58q56 57 56 147v502q0 42 29 71t74 29h104q43 0 72 -29t29 -71v-865q0 -70 -66 -94q-86 -97 -86 -160q0 -34 22 -53q21 -18 54 -18q40 0 78 24q16 6 24 6
q18 0 25 -12l35 -45q12 -16 10 -36q-1 -18 -17 -29q-112 -86 -227 -86q-95 0 -156 55t-61 141q0 107 100 225q-43 27 -43 82v9q-107 -136 -290 -136q-172 0 -290 117t-118 291v584z" />
    <glyph glyph-name="Wcircumflex" unicode="&#x174;" horiz-adv-x="2052" 
d="M115 1434h129q41 0 80 -28q35 -25 51 -69l250 -809l243 824q10 34 42 58t69 24h94q37 0 70 -24q34 -25 41 -58l248 -824l245 809q16 43 52 69q39 28 79 28h131q43 0 63 -28t5 -69l-420 -1255q-12 -34 -45 -58t-69 -24h-93q-38 0 -70 24t-42 58l-242 782l-240 -782
q-10 -34 -43 -58t-69 -24h-94q-37 0 -70 24t-43 58l-422 1255q-15 41 5 69t65 28zM692 1726l279 203q23 17 55 17q36 0 55 -17l281 -203q18 -16 22 -39q5 -25 -10 -45l-41 -59q-23 -27 -53 -27q-15 0 -33 9l-221 127l-223 -129q-13 -9 -31 -9q-35 0 -53 29l-41 59
q-15 21 -10 46q5 24 24 38z" />
    <glyph glyph-name="wcircumflex" unicode="&#x175;" horiz-adv-x="1591" 
d="M115 1065h106q41 0 80 -28q36 -26 47 -68l139 -482l140 482q12 42 49 68q39 28 80 28h80q40 0 79 -28q38 -27 50 -68l139 -482l139 482q11 42 47 68q39 28 80 28h107q42 0 64 -28t7 -68l-276 -873q-16 -43 -51 -68q-39 -28 -80 -28h-78q-41 0 -80 28q-37 26 -49 68
l-137 457l-142 -457q-11 -42 -47 -68q-39 -28 -80 -28h-77q-44 0 -81 28q-36 27 -51 68l-276 873q-15 41 6 68q22 28 66 28zM461 1378l280 203q22 16 56 16q33 0 55 -16l278 -203q21 -16 25 -40t-10 -44l-41 -59q-22 -27 -53 -27q-15 0 -33 9l-221 126l-224 -129
q-16 -8 -30 -8q-36 0 -54 29l-40 59q-15 21 -12 45t24 39z" />
    <glyph glyph-name="Ycircumflex" unicode="&#x176;" horiz-adv-x="1429" 
d="M115 1434h170q42 0 86 -26q42 -25 65 -60l273 -455l284 455q22 36 67 61t87 25h170q42 0 56 -25q13 -24 -11 -59l-490 -752v-498q0 -43 -28 -71q-29 -29 -72 -29h-123q-42 0 -71 29t-29 71v490l-481 758q-23 38 -11 61q13 25 58 25zM381 1726l281 203q23 17 55 17t55 -17
l279 -203q19 -14 24 -38q5 -25 -10 -46l-41 -59q-22 -27 -53 -27q-15 0 -33 9l-221 127l-223 -129q-18 -9 -31 -9q-35 0 -53 29l-41 59q-15 21 -12 46q3 23 24 38z" />
    <glyph glyph-name="ycircumflex" unicode="&#x177;" horiz-adv-x="1130" 
d="M49 971q-16 40 2 67t64 27h114q43 0 81 -27q37 -27 52 -67l199 -563l207 563q15 40 53 66q40 28 82 28h115q43 0 61 -27t2 -67l-415 -1082q-66 -171 -173 -249q-109 -81 -278 -97q-45 0 -73 26q-27 25 -27 71v100q0 40 26 66q27 28 68 32q151 16 201 154l6 16zM217 1294
q-14 20 -11 45t23 39l281 203q22 16 55 16q39 0 56 -16l280 -203q19 -17 23 -40t-11 -44l-41 -59q-23 -27 -53 -27q-15 0 -33 9l-221 126l-223 -129q-11 -8 -31 -8q-35 0 -53 29z" />
    <glyph glyph-name="Ydieresis" unicode="&#x178;" horiz-adv-x="1429" 
d="M115 1434h170q42 0 86 -26q42 -25 65 -60l273 -455l284 455q22 36 67 61t87 25h170q42 0 56 -25q13 -24 -11 -59l-490 -752v-498q0 -43 -28 -71q-29 -29 -72 -29h-123q-42 0 -71 29t-29 71v490l-481 758q-23 38 -11 61q13 25 58 25zM934 1855q70 0 116 -46t46 -115
q0 -70 -46 -116t-116 -46t-116 46t-46 116q0 69 46 115t116 46zM336 1694q0 69 46 115t116 46q69 0 115 -46t46 -115q0 -70 -46 -116t-115 -46q-70 0 -116 46t-46 116z" />
    <glyph glyph-name="Zacute" unicode="&#x179;" horiz-adv-x="1286" 
d="M1122 0h-975q-31 0 -55 22q-22 21 -22 54v98q0 79 47 137l647 824h-586q-44 0 -73 28t-29 72v98q0 44 29 72q31 29 73 29h963q32 0 54 -22t22 -54v-96q0 -84 -48 -138l-647 -825h600q43 0 72 -29t29 -71v-99q0 -42 -29 -71t-72 -29zM494 1739l307 194q24 15 45 15
q50 0 74 -47l45 -82q19 -34 7 -66t-46 -47l-332 -139q-12 -6 -27 -6q-37 0 -57 32l-35 64q-14 21 -9 45q4 21 28 37z" />
    <glyph glyph-name="zacute" unicode="&#x17a;" horiz-adv-x="1005" 
d="M102 266l410 518h-340q-42 0 -73 29q-29 28 -29 74v78q0 43 29 71q31 29 73 29h694q29 0 48 -19q20 -20 20 -51v-73q0 -71 -41 -123l-410 -518h361q42 0 71 -29t29 -72v-80q0 -42 -29 -71t-71 -29h-715q-29 0 -49 20q-21 21 -21 50v73q0 71 43 123zM350 1391l307 194
q22 14 45 14q50 0 74 -47l45 -82q18 -34 7 -65q-12 -32 -46 -47l-331 -139q-14 -7 -27 -7q-36 0 -57 33l-35 64q-14 21 -9 45q4 22 27 37z" />
    <glyph glyph-name="Zdotaccent" unicode="&#x17b;" horiz-adv-x="1286" 
d="M1122 0h-975q-31 0 -55 22q-22 21 -22 54v98q0 79 47 137l647 824h-586q-44 0 -73 28t-29 72v98q0 44 29 72q31 29 73 29h963q32 0 54 -22t22 -54v-96q0 -84 -48 -138l-647 -825h600q43 0 72 -29t29 -71v-99q0 -42 -29 -71t-72 -29zM473 1708q0 75 49 124q50 50 125 50
q74 0 124 -50t50 -124q0 -75 -50 -125q-49 -49 -124 -49q-76 0 -125 49t-49 125z" />
    <glyph glyph-name="zdotaccent" unicode="&#x17c;" horiz-adv-x="1005" 
d="M102 266l410 518h-340q-42 0 -73 29q-29 28 -29 74v78q0 43 29 71q31 29 73 29h694q29 0 48 -19q20 -20 20 -51v-73q0 -71 -41 -123l-410 -518h361q42 0 71 -29t29 -72v-80q0 -42 -29 -71t-71 -29h-715q-29 0 -49 20q-21 21 -21 50v73q0 71 43 123zM330 1360q0 75 49 124
q50 50 125 50q74 0 124 -50t50 -124q0 -75 -50 -125q-49 -49 -124 -49q-76 0 -125 49t-49 125z" />
    <glyph glyph-name="Zcaron" unicode="&#x17d;" horiz-adv-x="1286" 
d="M1122 0h-975q-31 0 -55 22q-22 21 -22 54v98q0 79 47 137l647 824h-586q-44 0 -73 28t-29 72v98q0 44 29 72q31 29 73 29h963q32 0 54 -22t22 -54v-96q0 -84 -48 -138l-647 -825h600q43 0 72 -29t29 -71v-99q0 -42 -29 -71t-72 -29zM954 1915l41 -60q15 -21 11 -44
q-4 -22 -25 -37l-279 -203q-28 -17 -55 -17t-55 17l-281 203q-45 33 -12 84l41 59q21 29 53 29q14 0 31 -11l223 -127l221 125q17 11 33 11q29 0 53 -29z" />
    <glyph glyph-name="zcaron" unicode="&#x17e;" horiz-adv-x="1005" 
d="M102 266l410 518h-340q-42 0 -73 29q-29 28 -29 74v78q0 43 29 71q31 29 73 29h694q29 0 48 -19q20 -20 20 -51v-73q0 -71 -41 -123l-410 -518h361q42 0 71 -29t29 -72v-80q0 -42 -29 -71t-71 -29h-715q-29 0 -49 20q-21 21 -21 50v73q0 71 43 123zM811 1567l41 -60
q14 -20 10 -44q-5 -24 -24 -38l-279 -202q-28 -17 -55 -17t-55 17l-281 202q-45 33 -12 84l41 60q21 28 53 28q15 0 31 -10l223 -127l221 125q16 10 33 10q29 0 53 -28z" />
    <glyph glyph-name="uni018F" unicode="&#x18f;" horiz-adv-x="1638" 
d="M246 1212q102 117 252 183q148 65 321 65q322 0 538 -213t216 -530q0 -318 -216 -531t-538 -213q-333 0 -550 228t-201 549q2 41 33 71q33 31 77 31h1045q-43 132 -152 215q-107 82 -252 82q-162 0 -274 -100q-22 -21 -58 -21q-19 0 -26 4l-182 68q-42 16 -52 48
q-10 33 19 64zM819 285q136 0 241 72q104 71 154 196h-788q47 -123 154 -196q106 -72 239 -72z" />
    <glyph glyph-name="florin" unicode="&#x192;" horiz-adv-x="831" 
d="M-102 -461q-38 0 -57 24q-19 23 -13 58l20 123q6 34 35 57t64 23h35q48 0 87 31q37 30 48 77l129 732h-70q-35 0 -54 23q-19 24 -15 58l16 99q6 34 35 57t63 23h70l45 260q27 148 158 251q129 101 301 101h61q34 0 54 -24t14 -58l-21 -123q-6 -34 -35 -57t-63 -23h-33
q-52 0 -89 -30q-38 -31 -46 -78l-39 -219h150q34 0 54 -23q19 -22 13 -57l-16 -99q-6 -33 -34 -58q-26 -23 -63 -23h-149l-137 -773q-26 -147 -158 -250q-130 -102 -299 -102h-61z" />
    <glyph glyph-name="uni01DD" unicode="&#x1dd;" horiz-adv-x="1220" 
d="M152 643h692q-27 84 -96 135t-164 51q-103 0 -174 -59q-31 -25 -66 -25q-8 0 -20 3l-150 32q-43 7 -55 41t14 66q166 205 455 205q246 0 413 -161q166 -160 166 -399q0 -238 -161 -398q-163 -161 -402 -161q-247 0 -408 167q-161 168 -157 403q1 40 35 70q33 30 78 30z
M354 416q27 -81 93 -131q65 -49 155 -49q83 0 148 49t92 131h-488z" />
    <glyph glyph-name="Aringacute" unicode="&#x1fa;" horiz-adv-x="1501" 
d="M752 971l-181 -439h359zM686 1632q0 -26 19 -45q18 -18 45 -18q29 0 47 18t18 45t-18 45q-19 19 -47 19q-26 0 -45 -19t-19 -45zM868 1851l291 185q22 14 45 14q51 0 74 -47l47 -82q18 -33 6 -66q-11 -32 -47 -47l-291 -122q6 -24 6 -54q0 -149 -133 -221q36 -23 52 -57
l530 -1260q17 -41 -1 -67q-18 -27 -61 -27h-137q-43 0 -83 27q-39 26 -56 67l-59 148h-600l-60 -148q-15 -39 -55 -66q-42 -28 -84 -28h-137q-45 0 -62 27q-16 27 0 67l531 1260q12 35 49 57q-59 32 -95 91q-36 58 -36 130q0 102 72 176t176 74q59 0 118 -31z" />
    <glyph glyph-name="aringacute" unicode="&#x1fb;" 
d="M53 532q0 240 142 400t352 160q175 0 305 -113q4 37 33 61q30 25 67 25h105q42 0 71 -29t29 -71v-865q0 -42 -29 -71t-71 -29h-105q-37 0 -67 25q-29 24 -33 63q-132 -115 -305 -115q-211 0 -352 161q-142 162 -142 398zM381 1427q0 102 73 177q72 73 177 73
q74 0 129 -37l278 177q20 14 47 14q49 0 72 -45l47 -82q18 -35 6 -67q-12 -31 -47 -48l-286 -121q4 -25 4 -41q0 -105 -74 -177q-73 -72 -176 -72q-105 0 -177 72q-73 73 -73 177zM373 535q0 -113 68 -185q69 -74 169 -74q99 0 168 74q70 75 70 185q0 105 -70 180
q-69 73 -168 73q-100 0 -169 -73q-68 -72 -68 -180zM567 1427q0 -27 18 -45t46 -18t46 18q17 17 17 45q0 29 -17 46q-18 18 -46 18t-46 -18t-18 -46z" />
    <glyph glyph-name="AEacute" unicode="&#x1fc;" horiz-adv-x="2097" 
d="M63 88l762 1260q23 34 66 60q44 26 86 26h948q43 0 72 -29q28 -28 28 -72v-98q0 -44 -28 -72t-72 -28h-584v-263h467q44 0 72 -28q29 -29 29 -72v-96q0 -45 -29 -74t-72 -29h-467v-274h594q43 0 72 -29t29 -71v-99q0 -42 -29 -71t-72 -29h-817q-42 0 -71 29t-29 71v142
h-498l-92 -154q-21 -39 -64 -63q-45 -25 -88 -25h-161q-45 0 -60 26q-14 25 8 62zM1008 1739l305 194q24 15 45 15q50 0 74 -47l47 -82q17 -34 5 -66t-46 -47l-330 -139q-12 -6 -27 -6q-37 0 -57 32l-37 64q-29 52 21 82zM1018 1083l-328 -551h328v551z" />
    <glyph glyph-name="aeacute" unicode="&#x1fd;" horiz-adv-x="2019" 
d="M543 -27q-208 0 -349 161q-141 160 -141 398q0 241 141 400q142 160 349 160q178 0 309 -119q4 40 32 66t68 26h105q37 0 65 -23q27 -23 33 -59q132 109 303 109q233 0 380 -170q147 -169 142 -400q-1 -40 -34 -70t-78 -30h-692q27 -84 96 -135t164 -51q103 0 174 59
q33 27 69 27q5 0 17 -3l149 -34q43 -7 57 -42q13 -33 -12 -67q-147 -203 -409 -203q-182 0 -324 115q-5 -39 -33 -63q-30 -25 -67 -25h-105q-40 0 -68 26t-32 66q-136 -119 -309 -119zM610 788q-100 0 -169 -73q-68 -72 -68 -180q0 -113 68 -185q69 -74 169 -74q99 0 168 74
q70 75 70 185q0 105 -70 180q-69 73 -168 73zM823 1309q-28 49 19 82l307 194q22 14 45 14q50 0 74 -47l45 -82q18 -34 7 -65q-12 -32 -46 -47l-330 -139q-14 -7 -26 -7q-37 0 -58 33zM1178 649h487q-27 81 -93 131q-65 49 -155 49q-82 0 -147 -49t-92 -131z" />
    <glyph glyph-name="Oslashacute" unicode="&#x1fe;" horiz-adv-x="1638" 
d="M293 121l24 35q-118 100 -184 245q-65 143 -65 316q0 317 215 530q214 213 536 213q190 0 355 -80l26 37q17 23 43 23q20 0 31 -10l59 -44q45 -30 15 -73l-25 -35q250 -217 250 -561q0 -318 -216 -531t-538 -213q-190 0 -350 80l-27 -37q-16 -22 -45 -22q-19 0 -30 10
l-58 41q-45 30 -16 76zM1133 1006l-480 -687q75 -34 166 -34q179 0 297 124q119 125 119 308q0 175 -102 289zM508 426l479 688q-78 35 -168 35q-177 0 -295 -124t-118 -308q0 -173 102 -291zM668 1739l305 194q24 15 45 15q50 0 74 -47l45 -82q19 -34 7 -66t-46 -47
l-330 -139q-12 -6 -27 -6q-37 0 -57 32l-37 64q-29 52 21 82z" />
    <glyph glyph-name="oslashacute" unicode="&#x1ff;" 
d="M874 1038l13 19q12 18 35 18q13 0 24 -8l66 -45q34 -24 10 -61l-10 -15q180 -159 180 -414q0 -238 -163 -398q-164 -161 -406 -161q-139 0 -254 56l-15 -19q-11 -20 -32 -20q-14 0 -25 8l-66 45q-34 24 -10 61l12 17q-180 159 -180 411q0 239 163 399q164 161 407 161
q131 0 251 -54zM825 682l-276 -395q31 -11 74 -11q105 0 177 75t72 181q0 77 -47 150zM418 385l276 393q-29 10 -71 10q-107 0 -179 -73q-71 -72 -71 -183q0 -84 45 -147zM469 1391l307 194q22 14 45 14q50 0 74 -47l45 -82q18 -34 7 -65q-12 -32 -46 -47l-332 -139
q-14 -7 -26 -7q-37 0 -58 33l-34 64q-15 22 -10 45q4 21 28 37z" />
    <glyph glyph-name="uni0218" unicode="&#x218;" horiz-adv-x="1234" 
d="M764 1092q-55 69 -166 69q-74 0 -123 -33t-49 -84q0 -31 16 -53q17 -23 67 -44q47 -20 83 -33q1 -1 121 -37q28 -10 47 -15q71 -23 109 -37q48 -18 107 -52q61 -35 101 -78q41 -45 67 -110q27 -69 27 -153q0 -210 -149 -334q-151 -125 -387 -125q-182 0 -325 75t-212 198
q-21 37 -3 71q18 35 63 45l178 44q6 2 14 2q35 0 58 -35q68 -101 227 -101q88 0 149 37q62 38 62 94q0 40 -36 70q-37 31 -77 47q-33 13 -102 37q-15 5 -21 6l-107 34q-47 16 -101 37q-59 23 -98 47q-29 18 -79 56q-44 33 -67 74q-21 36 -40 92q-18 53 -18 117
q0 196 137 318t355 122q160 0 288 -66q127 -66 191 -175q23 -38 5 -73q-18 -36 -62 -46l-174 -39q-6 -2 -15 -2q-31 0 -61 33zM649 -535q-10 -6 -20 -6q-20 0 -33 13l-25 24q-25 25 2 47q71 61 72 90q-46 7 -80 49q-33 40 -33 91q0 57 40 96t98 39q66 0 110 -50
q43 -49 43 -126q0 -148 -174 -267z" />
    <glyph glyph-name="uni0219" unicode="&#x219;" horiz-adv-x="983" 
d="M821 784l-131 -20q-37 0 -78 35q-44 47 -133 47q-121 0 -121 -70q0 -41 84 -71l191 -62q161 -51 232 -129q71 -79 71 -199q0 -168 -120 -255t-318 -87q-335 0 -430 222q-16 36 5 70q21 35 66 42l131 19h4q37 0 70 -39q45 -62 160 -62q61 0 100 21t39 57q0 52 -106 82
l-195 57q-147 40 -215 115q-66 73 -66 193q0 176 119 259t314 83q302 0 397 -193q17 -38 -4 -72q-22 -36 -66 -43zM516 -535q-8 -6 -20 -6q-20 0 -33 13l-25 24q-25 25 2 47q71 61 72 90q-46 7 -80 49q-33 40 -33 91q0 57 39 96t99 39q66 0 110 -50q43 -49 43 -126
q0 -148 -174 -267z" />
    <glyph glyph-name="uni021A" unicode="&#x21a;" horiz-adv-x="1294" 
d="M43 1235v98q0 43 29 72t73 29h1006q43 0 72 -29q28 -28 28 -72v-98q0 -44 -28 -72t-72 -28h-342v-1035q0 -42 -29 -71t-71 -29h-123q-43 0 -72 29t-29 71v1035h-340q-45 0 -73 28q-29 29 -29 72zM514 -227q0 57 40 96t99 39q67 0 111 -50q43 -49 43 -126
q0 -144 -174 -267q-10 -6 -23 -6q-17 0 -30 13l-25 24q-25 25 2 47q70 61 70 90q-46 7 -80 49q-33 40 -33 91z" />
    <glyph glyph-name="uni021B" unicode="&#x21b;" horiz-adv-x="753" 
d="M96 799q-36 0 -62 24t-26 62v94q0 37 26 61q27 25 62 25h66v104q0 44 29 73q30 30 73 30h105q43 0 71 -30q29 -31 29 -73v-104h154q35 0 62 -25q26 -24 26 -61v-94q0 -38 -26 -62q-25 -24 -62 -24h-154v-400q0 -49 33 -81q32 -31 84 -31h43q33 0 58 -25q24 -24 24 -59
v-119q0 -35 -24 -59q-25 -25 -58 -25h-94q-159 0 -266 97t-107 243v459h-66zM408 -367q-46 7 -80 49q-33 40 -33 91q0 57 40 96q41 39 99 39q67 0 111 -50q43 -49 43 -126q0 -144 -174 -267q-10 -6 -21 -6q-20 0 -33 13l-24 24q-25 25 2 47q70 61 70 90z" />
    <glyph glyph-name="uni0237" unicode="&#x237;" horiz-adv-x="489" 
d="M403 965v-1071q0 -318 -409 -351q-44 0 -69 24t-25 66v113q0 36 23 59q25 25 63 31q112 12 112 101v1028q0 42 29 71t72 29h104q43 0 72 -29q28 -28 28 -71z" />
    <glyph glyph-name="uni0259" unicode="&#x259;" horiz-adv-x="1220" 
d="M152 643h692q-27 84 -96 135t-164 51q-103 0 -174 -59q-31 -25 -66 -25q-8 0 -20 3l-150 32q-43 7 -55 41t14 66q166 205 455 205q246 0 413 -161q166 -160 166 -399q0 -238 -161 -398q-163 -161 -402 -161q-247 0 -408 167q-161 168 -157 403q1 40 35 70q33 30 78 30z
M354 416q27 -81 93 -131q65 -49 155 -49q83 0 148 49t92 131h-488z" />
    <glyph glyph-name="circumflex" unicode="&#x2c6;" horiz-adv-x="913" 
d="M150 1487l-41 61q-33 50 12 84l280 201q22 16 56 16q33 0 55 -16l279 -203q19 -14 24 -38q4 -24 -10 -44l-41 -59q-22 -27 -53 -27q-17 0 -33 8l-221 127l-224 -129q-16 -8 -32 -8q-30 0 -51 27z" />
    <glyph glyph-name="caron" unicode="&#x2c7;" horiz-adv-x="913" 
d="M764 1821l41 -60q14 -20 10 -44q-5 -25 -24 -40l-279 -202q-28 -17 -53 -17q-33 0 -58 19l-280 200q-45 35 -12 84l41 62q20 26 51 26q16 0 32 -8l224 -129l221 127q16 8 33 8q31 0 53 -26z" />
    <glyph glyph-name="breve" unicode="&#x2d8;" horiz-adv-x="827" 
d="M82 1700q-6 28 12 49q17 20 49 20h84q45 0 72 -61q34 -82 117 -82q82 0 112 82q22 61 72 61h84q32 0 49 -20q18 -21 12 -49q-23 -121 -113 -193q-91 -73 -218 -73t-218 73t-114 193z" />
    <glyph glyph-name="dotaccent" unicode="&#x2d9;" horiz-adv-x="497" 
d="M74 1614q0 74 50 124t124 50q75 0 125 -50q49 -49 49 -124q0 -77 -49 -126q-50 -50 -125 -50q-74 0 -124 50t-50 126z" />
    <glyph glyph-name="ring" unicode="&#x2da;" horiz-adv-x="647" 
d="M74 1681q0 104 73 177t177 73q103 0 176 -73t73 -177q0 -105 -73 -177t-176 -72q-104 0 -177 72t-73 177zM260 1681q0 -27 18 -45t46 -18t46 18q17 17 17 45t-17 45q-19 19 -46 19t-46 -19q-18 -18 -18 -45z" />
    <glyph glyph-name="ogonek" unicode="&#x2db;" horiz-adv-x="626" 
d="M518 -358q-107 -86 -225 -86q-95 0 -157 55t-62 141q0 57 30 120q27 56 62 95l31 33h213q-4 -3 -35 -32q-18 -17 -54 -70q-34 -50 -34 -93q0 -71 78 -71q39 0 77 24q12 6 23 6q13 0 24 -12l35 -45q15 -16 13 -36q-1 -18 -19 -29z" />
    <glyph glyph-name="tilde" unicode="&#x2dc;" horiz-adv-x="866" 
d="M82 1550q23 85 89 142t151 57q62 0 125 -42t81 -42q40 0 56 45q10 27 30 27h113q28 0 46 -20q17 -19 11 -46q-21 -86 -86 -142t-151 -56q-67 0 -127 41q-61 42 -80 42q-40 0 -57 -45q-10 -26 -31 -26h-113q-28 0 -46 19q-17 19 -11 46z" />
    <glyph glyph-name="hungarumlaut" unicode="&#x2dd;" horiz-adv-x="1077" 
d="M111 1599l200 250q29 33 64 33q33 0 57 -24l72 -62q26 -26 26 -60t-28 -61l-238 -207q-22 -18 -47 -18q-23 0 -43 16l-55 50q-42 38 -8 83zM545 1599l200 250q27 33 64 33q33 0 57 -24l72 -62q27 -27 27 -60q0 -34 -29 -61l-240 -207q-18 -18 -47 -18q-21 0 -41 16
l-55 50q-42 38 -8 83z" />
    <glyph glyph-name="uni0394" unicode="&#x394;" horiz-adv-x="1474" 
d="M1362 0h-1247q-45 0 -63 27q-18 26 -1 67l520 1260q15 35 49 57q35 23 70 23h94q36 0 71 -23q32 -21 48 -57l520 -1260q17 -41 -1 -67q-18 -27 -60 -27zM469 291h539l-271 676z" />
    <glyph glyph-name="uni03A9" unicode="&#x3a9;" horiz-adv-x="1638" 
d="M68 754q0 300 216 503q217 203 537 203q322 0 537 -203t215 -505q0 -258 -168 -449h74q40 0 67 -27t27 -67v-109q0 -42 -29 -71t-71 -29h-388q-42 0 -71 29t-29 71v146q0 53 51 86q92 58 145 156q54 99 54 219q0 187 -119 315q-118 127 -297 127q-177 0 -295 -126
q-118 -125 -118 -312q0 -125 57 -226t155 -157q21 -10 36 -35q16 -26 16 -47v-146q0 -42 -29 -71t-72 -29h-387q-42 0 -71 29t-29 71v109q0 40 27 67t67 27h60q-168 186 -168 451z" />
    <glyph glyph-name="uni0400" unicode="&#x400;" horiz-adv-x="1232" 
d="M96 1333q0 43 29 72t72 29h870q43 0 72 -29q28 -28 28 -72v-98q0 -44 -28 -72t-72 -28h-645v-263h526q44 0 72 -28q29 -29 29 -72v-96q0 -45 -29 -74t-72 -29h-526v-274h655q43 0 72 -29t29 -71v-99q0 -42 -29 -71t-72 -29h-880q-43 0 -72 29t-29 71v1233zM342 1706
q-34 15 -46 47t5 66l45 82q24 47 74 47q21 0 45 -15l307 -194q50 -30 21 -82l-37 -64q-20 -32 -58 -32q-14 0 -26 6z" />
    <glyph glyph-name="uni0401" unicode="&#x401;" horiz-adv-x="1232" 
d="M96 1333q0 43 29 72t72 29h870q43 0 72 -29q28 -28 28 -72v-98q0 -44 -28 -72t-72 -28h-645v-263h526q44 0 72 -28q29 -29 29 -72v-96q0 -45 -29 -74t-72 -29h-526v-274h655q43 0 72 -29t29 -71v-99q0 -42 -29 -71t-72 -29h-880q-43 0 -72 29t-29 71v1233zM684 1694
q0 69 46 115t116 46t116 -46t46 -115q0 -70 -46 -116t-116 -46t-116 46t-46 116zM410 1532q-70 0 -116 46t-46 116q0 69 46 115t116 46q69 0 115 -46t46 -115q0 -70 -46 -116t-115 -46z" />
    <glyph glyph-name="uni0402" unicode="&#x402;" horiz-adv-x="1736" 
d="M43 1235v98q0 43 29 72t73 29h1004q42 0 73 -29q29 -28 29 -72v-98q0 -44 -29 -72t-73 -28h-340v-234q130 29 252 29q271 0 425 -126t154 -353q0 -213 -132 -332q-131 -118 -357 -139q-45 0 -72 24q-26 23 -26 70v125q0 32 20 52q21 21 55 25q187 17 187 173
q0 182 -266 182q-118 0 -240 -31v-500q0 -42 -29 -71t-71 -29h-123q-43 0 -72 29t-29 71v1035h-340q-45 0 -73 28q-29 29 -29 72z" />
    <glyph glyph-name="uni0403" unicode="&#x403;" horiz-adv-x="1099" 
d="M197 0q-43 0 -72 29t-29 71v1233q0 43 29 72t72 29h759q43 0 72 -29t29 -72v-98q0 -43 -29 -72q-28 -28 -72 -28h-534v-1035q0 -42 -29 -71t-74 -29h-122zM387 1657q-29 52 21 82l305 194q24 15 45 15q49 0 73 -47l48 -82q17 -34 5 -66t-46 -47l-330 -139q-12 -6 -27 -6
q-37 0 -57 32z" />
    <glyph glyph-name="uni0404" unicode="&#x404;" horiz-adv-x="1554" 
d="M68 717q0 317 215 530q214 213 536 213q200 0 366 -86q164 -85 265 -237q24 -35 11 -71q-13 -35 -54 -52l-152 -58q-12 -6 -28 -6q-45 0 -82 43q-123 156 -326 156q-137 0 -244 -78t-147 -205h463q39 0 65 -26q27 -27 27 -68v-96q0 -41 -27 -68q-26 -26 -65 -26h-469
q40 -133 148 -215q107 -82 249 -82q204 0 326 155q37 43 82 43q16 0 28 -6l152 -57q41 -17 54 -52q13 -36 -11 -71q-102 -153 -265 -238q-166 -86 -366 -86q-321 0 -536 213t-215 531z" />
    <glyph glyph-name="uni0405" unicode="&#x405;" horiz-adv-x="1234" 
d="M764 1092q-55 69 -166 69q-74 0 -123 -33t-49 -84q0 -31 16 -53q17 -23 67 -44q47 -20 83 -33q1 -1 121 -37q28 -10 47 -15q71 -23 109 -37q48 -18 107 -52q61 -35 101 -78q41 -45 67 -110q27 -69 27 -153q0 -210 -149 -334q-151 -125 -387 -125q-182 0 -325 75t-212 198
q-21 37 -3 71q18 35 63 45l178 44q6 2 14 2q35 0 58 -35q68 -101 227 -101q88 0 149 37q62 38 62 94q0 40 -36 70q-37 31 -77 47q-33 13 -102 37q-15 5 -21 6l-107 34q-47 16 -101 37q-59 23 -98 47q-29 18 -79 56q-44 33 -67 74q-21 36 -40 92q-18 53 -18 117
q0 196 137 318t355 122q160 0 288 -66q127 -66 191 -175q23 -38 5 -73q-18 -36 -62 -46l-174 -39q-6 -2 -15 -2q-31 0 -61 33z" />
    <glyph glyph-name="uni0406" unicode="&#x406;" horiz-adv-x="518" 
d="M96 100v1233q0 43 29 72t72 29h122q45 0 74 -29t29 -72v-1233q0 -42 -29 -71t-74 -29h-122q-43 0 -72 29t-29 71z" />
    <glyph glyph-name="uni0407" unicode="&#x407;" horiz-adv-x="518" 
d="M96 100v1233q0 43 29 72t72 29h122q45 0 74 -29t29 -72v-1233q0 -42 -29 -71t-74 -29h-122q-43 0 -72 29t-29 71zM-121 1694q0 69 46 115t116 46t116 -46t46 -115q0 -70 -46 -116t-116 -46t-116 46t-46 116zM315 1694q0 69 46 115t116 46t116 -46t46 -115q0 -70 -46 -116
t-116 -46t-116 46t-46 116z" />
    <glyph glyph-name="uni0408" unicode="&#x408;" horiz-adv-x="1189" 
d="M1108 1333v-798q0 -243 -168 -402q-169 -160 -422 -160q-268 0 -436 174q-29 29 -23 70q6 42 45 66l121 79q22 11 41 11q34 0 68 -29q78 -72 190 -72q116 0 193 76q78 76 78 187v798q0 44 28 72q29 29 72 29h111q44 0 73 -29t29 -72z" />
    <glyph glyph-name="uni0409" unicode="&#x409;" horiz-adv-x="2248" 
d="M12 244q0 22 17 39q16 16 39 16h10q90 0 137 93q47 94 47 345v596q0 43 29 72t74 29h876q43 0 72 -29q28 -28 28 -72v-379h328q219 0 367 -137q147 -137 147 -340q0 -205 -147 -341q-146 -136 -367 -136h-553q-43 0 -72 29q-28 28 -28 71v1035h-428v-398q0 -136 -23 -259
q-21 -115 -76 -233q-52 -112 -158 -179q-105 -66 -253 -66h-10q-23 0 -39 16q-17 17 -17 39v189zM1341 299h328q75 0 124 51q50 52 50 127t-50 127q-50 51 -124 51h-328v-356z" />
    <glyph glyph-name="uni040A" unicode="&#x40a;" horiz-adv-x="2275" 
d="M96 1333q0 43 29 72t72 29h122q45 0 74 -29t29 -72v-420h620v420q0 43 29 72t72 29h123q42 0 71 -29t29 -72v-420h330q217 0 365 -131q147 -131 147 -325q0 -195 -147 -326q-148 -131 -365 -131h-553q-43 0 -72 29t-29 71v514h-620v-514q0 -42 -29 -71t-74 -29h-122
q-43 0 -72 29t-29 71v1233zM1366 299h330q76 0 125 45t49 113q0 64 -50 111q-49 46 -124 46h-330v-315z" />
    <glyph glyph-name="uni040B" unicode="&#x40b;" horiz-adv-x="1736" 
d="M43 1333q0 43 29 72t73 29h1004q42 0 73 -29q29 -28 29 -72v-98q0 -44 -29 -72t-73 -28h-340v-230q109 25 235 25q280 0 438 -127t158 -359v-344q0 -43 -28 -71q-29 -29 -74 -29h-123q-43 0 -72 29q-28 28 -28 71v344q0 187 -279 187q-94 0 -227 -25v-506q0 -42 -29 -71
t-71 -29h-123q-43 0 -72 29t-29 71v1035h-340q-45 0 -73 28q-29 29 -29 72v98z" />
    <glyph glyph-name="uni040C" unicode="&#x40c;" horiz-adv-x="1359" 
d="M96 100v1233q0 43 29 72t72 29h122q45 0 74 -29t29 -72v-479l409 502q26 32 74 55t90 23h209q42 0 54 -23q12 -22 -15 -55l-508 -623l547 -655q27 -32 16 -55t-53 -23h-209q-42 0 -90 23t-74 55l-450 538v-516q0 -42 -29 -71t-74 -29h-122q-43 0 -72 29t-29 71zM492 1657
q-29 52 20 82l305 194q24 15 45 15q50 0 74 -47l47 -82q17 -34 5 -66t-46 -47l-330 -139q-12 -6 -26 -6q-38 0 -58 32z" />
    <glyph glyph-name="uni040D" unicode="&#x40d;" horiz-adv-x="1476" 
d="M197 0q-43 0 -72 29t-29 71v1233q0 43 29 72t72 29h122q45 0 74 -29t29 -72v-790l598 809q23 33 71 58q47 24 89 24h100q43 0 72 -29q28 -28 28 -72v-1233q0 -43 -28 -71q-29 -29 -72 -29h-123q-45 0 -74 29q-28 28 -28 71v785l-598 -803q-23 -33 -71 -58
q-46 -24 -89 -24h-100zM453 1706q-34 15 -46 47t7 66l45 82q23 47 71 47q21 0 45 -15l310 -194q23 -15 27 -37q5 -24 -9 -45l-35 -64q-20 -32 -57 -32q-15 0 -27 6z" />
    <glyph glyph-name="uni040E" unicode="&#x40e;" horiz-adv-x="1449" 
d="M61 1346q-21 39 -6 63q16 25 60 25h153q42 0 85 -26q44 -27 65 -62l336 -621l293 618q18 39 59 65t84 26h145q45 0 62 -26q16 -25 -2 -65l-420 -880q-113 -240 -257 -352q-142 -111 -339 -111h-51q-35 0 -59 24q-23 23 -23 58v135q0 35 23 58q24 24 59 24h24
q137 0 226 109zM354 1821q-6 30 15 53q21 22 53 22h82q51 0 90 -69q41 -74 133 -74q90 0 131 74q39 69 90 69h82q34 0 55 -22q21 -23 15 -53q-27 -128 -129 -211q-101 -82 -242 -82q-144 0 -247 82q-104 83 -128 211z" />
    <glyph glyph-name="uni040F" unicode="&#x40f;" horiz-adv-x="1454" 
d="M197 0q-43 0 -72 29t-29 71v1233q0 43 29 72t72 29h122q45 0 74 -29t29 -72v-1034h610v1034q0 43 29 72t72 29h122q45 0 74 -29t29 -72v-1233q0 -42 -29 -71t-74 -29h-366v-248q0 -42 -29 -71t-72 -29h-122q-45 0 -74 29t-29 71v248h-366z" />
    <glyph glyph-name="uni0410" unicode="&#x410;" horiz-adv-x="1501" 
d="M53 94l531 1260q16 36 48 57q35 23 73 23h92q37 0 71 -24q36 -25 50 -56l530 -1260q17 -41 -1 -67q-18 -27 -61 -27h-137q-43 0 -83 27q-39 26 -56 67l-59 148h-598l-62 -148q-15 -39 -55 -66q-42 -28 -84 -28h-137q-45 0 -62 27q-16 27 0 67zM571 532h361l-180 439z" />
    <glyph glyph-name="uni0411" unicode="&#x411;" horiz-adv-x="1335" 
d="M197 0q-43 0 -72 29t-29 71v1233q0 43 29 72t72 29h835q45 0 74 -29t29 -72v-98q0 -43 -29 -72q-28 -28 -74 -28h-610v-205h328q219 0 365 -133q147 -133 147 -332t-147 -332q-146 -133 -365 -133h-553zM750 631h-328v-332h328q76 0 126 47t50 119t-50 119t-126 47z" />
    <glyph glyph-name="uni0412" unicode="&#x412;" horiz-adv-x="1382" 
d="M197 0q-43 0 -72 29t-29 71v1233q0 43 29 72t72 29h602q197 0 329 -115t132 -285q0 -166 -130 -284q88 -56 138 -144q49 -88 49 -190q0 -178 -137 -297t-340 -119h-643zM836 590h-414v-291h414q62 0 102 42q41 43 41 103q0 61 -41 104q-40 42 -102 42zM795 1135h-373
v-261h373q55 0 91 37t36 93t-36 94q-36 37 -91 37z" />
    <glyph glyph-name="uni0413" unicode="&#x413;" horiz-adv-x="1099" 
d="M96 1333q0 43 29 72t72 29h759q43 0 72 -29t29 -72v-98q0 -43 -29 -72q-28 -28 -72 -28h-534v-1035q0 -42 -29 -71t-74 -29h-122q-43 0 -72 29t-29 71v1233z" />
    <glyph glyph-name="uni0414" unicode="&#x414;" horiz-adv-x="1671" 
d="M137 -348q-41 0 -72 29q-30 29 -30 71v447q0 43 30 71q31 29 72 29h68q121 52 121 432v602q0 44 29 72q31 29 73 29h889q43 0 72 -29q28 -28 28 -72v-1034h117q43 0 72 -29q28 -28 28 -71v-447q0 -43 -28 -71q-29 -29 -72 -29h-123q-43 0 -72 29q-28 28 -28 71v248h-951
v-248q0 -43 -28 -71q-29 -29 -72 -29h-123zM575 299h519v836h-443v-392q0 -276 -76 -444z" />
    <glyph glyph-name="uni0415" unicode="&#x415;" horiz-adv-x="1232" 
d="M96 1333q0 43 29 72t72 29h870q43 0 72 -29q28 -28 28 -72v-98q0 -44 -28 -72t-72 -28h-645v-263h526q44 0 72 -28q29 -29 29 -72v-96q0 -45 -29 -74t-72 -29h-526v-274h655q43 0 72 -29t29 -71v-99q0 -42 -29 -71t-72 -29h-880q-43 0 -72 29t-29 71v1233z" />
    <glyph glyph-name="uni0416" unicode="&#x416;" horiz-adv-x="2103" 
d="M115 0q-45 0 -57 23q-12 22 16 57l504 653l-465 621q-25 36 -14 57q12 23 57 23h198q42 0 88 -23q45 -23 72 -57l377 -504v483q0 43 29 72t73 29h123q43 0 72 -29t29 -72v-477l372 498q27 34 72 57q46 23 88 23h199q44 0 56 -23q12 -22 -13 -57l-465 -621l504 -653
q27 -34 15 -57t-56 -23h-199q-41 0 -89 23q-47 23 -71 57l-413 534v-514q0 -42 -29 -71t-72 -29h-123q-44 0 -73 29t-29 71v518l-418 -538q-24 -34 -71 -57q-48 -23 -89 -23h-198z" />
    <glyph glyph-name="uni0417" unicode="&#x417;" horiz-adv-x="1331" 
d="M156 369l174 63q11 4 20 4q30 0 53 -30q82 -121 265 -121q115 0 184 45q70 46 70 116q0 59 -48 104q-47 44 -114 44h-178q-39 0 -65 26q-25 25 -25 62v98q0 40 25 65t65 25h172q61 0 101 37t40 92q0 69 -61 109q-62 41 -166 41q-170 0 -254 -121q-21 -29 -52 -29
q-12 0 -20 2l-174 64q-41 15 -54 52q-14 38 9 73q175 270 549 270q244 0 402 -118q159 -118 159 -300q0 -188 -162 -307q189 -123 189 -329q0 -190 -166 -311q-167 -122 -422 -122q-376 0 -561 273q-23 35 -10 70q14 36 55 53z" />
    <glyph glyph-name="uni0418" unicode="&#x418;" horiz-adv-x="1476" 
d="M197 0q-43 0 -72 29t-29 71v1233q0 43 29 72t72 29h122q45 0 74 -29t29 -72v-790l598 809q23 33 71 58q47 24 89 24h100q43 0 72 -29q28 -28 28 -72v-1233q0 -43 -28 -71q-29 -29 -72 -29h-123q-45 0 -74 29q-28 28 -28 71v785l-598 -803q-23 -33 -71 -58
q-46 -24 -89 -24h-100z" />
    <glyph glyph-name="uni0419" unicode="&#x419;" horiz-adv-x="1476" 
d="M197 0q-43 0 -72 29t-29 71v1233q0 43 29 72t72 29h122q45 0 74 -29t29 -72v-790l598 809q23 33 71 58q47 24 89 24h100q43 0 72 -29q28 -28 28 -72v-1233q0 -43 -28 -71q-29 -29 -72 -29h-123q-45 0 -74 29q-28 28 -28 71v785l-598 -803q-23 -33 -71 -58
q-46 -24 -89 -24h-100zM377 1821q-6 31 14 53q21 22 53 22h82q51 0 90 -69q41 -74 136 -74q88 0 129 74q41 69 90 69h84q32 0 53 -22q20 -22 14 -53q-24 -128 -128 -211q-103 -82 -242 -82q-142 0 -246 82q-105 83 -129 211z" />
    <glyph glyph-name="uni041A" unicode="&#x41a;" horiz-adv-x="1359" 
d="M197 0q-43 0 -72 29t-29 71v1233q0 43 29 72t72 29h122q45 0 74 -29t29 -72v-479l409 502q26 32 74 55t90 23h209q42 0 54 -23q12 -22 -15 -55l-508 -623l547 -655q27 -32 16 -55t-53 -23h-209q-42 0 -90 23t-74 55l-450 538v-516q0 -42 -29 -71t-74 -29h-122z" />
    <glyph glyph-name="uni041B" unicode="&#x41b;" horiz-adv-x="1437" 
d="M12 244q0 22 17 39q16 16 39 16h10q90 0 137 93q47 94 47 345v596q0 43 29 72t74 29h876q43 0 72 -29q28 -28 28 -72v-1233q0 -43 -28 -71q-29 -29 -72 -29h-125q-43 0 -72 29q-28 28 -28 71v1035h-428v-398q0 -379 -138 -558t-372 -179h-10q-23 0 -39 16q-17 17 -17 39
v189z" />
    <glyph glyph-name="uni041C" unicode="&#x41c;" horiz-adv-x="1796" 
d="M96 1333q0 43 29 72t72 29h120q42 0 86 -26t64 -62l432 -764l430 764q20 36 64 62t86 26h118q45 0 74 -29t29 -72v-1233q0 -42 -29 -71t-74 -29h-118q-43 0 -72 29t-29 71v725l-344 -616q-28 -55 -92 -55h-88q-61 0 -94 55l-342 616v-725q0 -42 -29 -71t-72 -29h-120
q-43 0 -72 29t-29 71v1233z" />
    <glyph glyph-name="uni041D" unicode="&#x41d;" horiz-adv-x="1462" 
d="M96 100v1233q0 43 29 72t72 29h122q45 0 74 -29t29 -72v-459h620v459q0 43 29 72t72 29h123q42 0 71 -29t29 -72v-1233q0 -42 -29 -71t-71 -29h-123q-43 0 -72 29t-29 71v475h-620v-475q0 -42 -29 -71t-74 -29h-122q-43 0 -72 29t-29 71z" />
    <glyph glyph-name="uni041E" unicode="&#x41e;" horiz-adv-x="1638" 
d="M68 717q0 317 215 530q214 213 536 213t538 -213t216 -530q0 -318 -216 -531t-538 -213q-321 0 -536 213t-215 531zM406 717q0 -184 118 -308t295 -124q179 0 297 124q119 125 119 308t-119 308q-118 124 -297 124q-177 0 -295 -124t-118 -308z" />
    <glyph glyph-name="uni041F" unicode="&#x41f;" horiz-adv-x="1462" 
d="M197 0q-43 0 -72 29t-29 71v1233q0 43 29 72t72 29h1069q42 0 71 -29t29 -72v-1233q0 -42 -29 -71t-71 -29h-123q-43 0 -72 29t-29 71v1035h-620v-1035q0 -42 -29 -71t-74 -29h-122z" />
    <glyph glyph-name="uni0420" unicode="&#x420;" horiz-adv-x="1323" 
d="M197 0q-43 0 -72 29t-29 71v1233q0 43 29 72t72 29h551q219 0 369 -139q149 -138 149 -343t-149 -343t-369 -138h-326v-371q0 -42 -29 -71t-74 -29h-122zM748 1135h-326v-365h326q78 0 129 52t51 130t-51 130q-51 53 -129 53z" />
    <glyph glyph-name="uni0421" unicode="&#x421;" horiz-adv-x="1554" 
d="M1452 297q-102 -150 -268 -237q-167 -87 -365 -87q-321 0 -536 213t-215 531q0 317 215 530q214 213 536 213q198 0 365 -87t268 -236q22 -34 10 -72q-12 -36 -55 -51l-152 -58q-12 -6 -28 -6q-45 0 -82 43q-123 156 -326 156q-177 0 -295 -124t-118 -308t118 -308
t295 -124q204 0 326 155q33 43 82 43q13 0 28 -6l152 -57q43 -15 55 -51q12 -38 -10 -72z" />
    <glyph glyph-name="uni0422" unicode="&#x422;" horiz-adv-x="1294" 
d="M43 1333q0 43 29 72t73 29h1006q43 0 72 -29q28 -28 28 -72v-98q0 -44 -28 -72t-72 -28h-342v-1035q0 -42 -29 -71t-71 -29h-123q-43 0 -72 29t-29 71v1035h-340q-45 0 -73 28q-29 29 -29 72v98z" />
    <glyph glyph-name="uni0423" unicode="&#x423;" horiz-adv-x="1449" 
d="M115 1434h153q42 0 85 -26q44 -27 65 -62l336 -621l293 618q18 39 59 65t84 26h145q45 0 62 -26q16 -25 -2 -65l-420 -880q-113 -240 -257 -352q-142 -111 -339 -111h-51q-35 0 -59 24q-23 23 -23 58v135q0 35 23 58q24 24 59 24h24q137 0 226 109l-517 938q-21 39 -6 63
q16 25 60 25z" />
    <glyph glyph-name="uni0424" unicode="&#x424;" horiz-adv-x="1781" 
d="M729 111q-281 1 -471 177q-190 175 -190 429t190 429q190 176 471 177v37q0 43 29 72q28 28 71 28h123q44 0 72 -28q29 -29 29 -72v-37q278 -1 470 -177q191 -175 191 -429t-191 -429q-192 -176 -470 -177v-37q0 -43 -29 -72t-72 -29h-123q-42 0 -71 29t-29 72v37z
M1376 717q0 125 -94 210t-229 85v-588q135 0 229 85t94 208zM406 717q0 -123 94 -208t229 -85v588q-135 0 -229 -85t-94 -210z" />
    <glyph glyph-name="uni0425" unicode="&#x425;" horiz-adv-x="1456" 
d="M72 82l463 649l-443 621q-24 35 -13 58q12 24 56 24h184q43 0 90 -24q46 -24 70 -58l250 -348l248 348q23 33 71 58q46 24 89 24h184q44 0 56 -24q11 -23 -13 -58l-442 -621l462 -649q25 -36 14 -58q-12 -24 -57 -24h-184q-43 0 -89 24q-48 25 -71 58l-268 377l-270 -377
q-23 -33 -71 -58q-46 -24 -89 -24h-184q-45 0 -57 24q-11 22 14 58z" />
    <glyph glyph-name="uni0426" unicode="&#x426;" horiz-adv-x="1609" 
d="M197 0q-43 0 -72 29t-29 71v1233q0 43 29 72t72 29h122q45 0 74 -29t29 -72v-1034h610v1034q0 43 29 72t72 29h122q45 0 74 -29t29 -72v-1034h117q42 0 71 -29t29 -71v-447q0 -42 -29 -71t-71 -29h-123q-45 0 -74 29t-29 71v248h-1052z" />
    <glyph glyph-name="uni0427" unicode="&#x427;" horiz-adv-x="1357" 
d="M53 1333q0 43 29 72t72 29h122q45 0 74 -29t29 -72v-342q0 -188 289 -188q130 0 270 33v497q0 43 29 72t71 29h123q42 0 73 -29q30 -29 30 -72v-1233q0 -42 -30 -71q-31 -29 -73 -29h-123q-42 0 -71 29t-29 71v435q-132 -31 -272 -31q-287 0 -450 127t-163 360v342z" />
    <glyph glyph-name="uni0428" unicode="&#x428;" horiz-adv-x="2103" 
d="M197 0q-43 0 -72 29t-29 71v1233q0 43 29 72t72 29h122q45 0 74 -29t29 -72v-1034h455v1034q0 44 28 72q29 29 72 29h123q41 0 72 -29q30 -29 30 -72v-1034h479v1034q0 43 29 72t72 29h123q44 0 73 -29t29 -72v-1233q0 -42 -29 -71t-73 -29h-1708z" />
    <glyph glyph-name="uni0429" unicode="&#x429;" horiz-adv-x="2258" 
d="M197 0q-43 0 -72 29t-29 71v1233q0 43 29 72t72 29h122q45 0 74 -29t29 -72v-1034h455v1034q0 44 28 72q29 29 72 29h123q41 0 72 -29q30 -29 30 -72v-1034h479v1034q0 43 29 72t72 29h123q44 0 73 -29t29 -72v-1034h117q42 0 71 -29t29 -71v-447q0 -42 -29 -71t-71 -29
h-123q-45 0 -74 29t-29 71v248h-1701z" />
    <glyph glyph-name="uni042A" unicode="&#x42a;" horiz-adv-x="1701" 
d="M43 1333q0 43 29 72t73 29h549q43 0 72 -29t29 -72v-379h327q219 0 367 -137q147 -137 147 -340q0 -205 -147 -341q-146 -136 -367 -136h-551q-44 0 -73 29t-29 71v1035h-324q-45 0 -73 28q-29 29 -29 72v98zM795 299h327q76 0 126 51q50 52 50 127t-50 127
q-50 51 -126 51h-327v-356z" />
    <glyph glyph-name="uni042B" unicode="&#x42b;" horiz-adv-x="1804" 
d="M96 1333q0 43 29 72t72 29h122q45 0 74 -29t29 -72v-379h328q217 0 365 -137q147 -137 147 -340q0 -205 -147 -341q-146 -136 -365 -136h-553q-43 0 -72 29t-29 71v1233zM1384 1333q0 43 29 72t72 29h123q42 0 71 -29t29 -72v-1233q0 -42 -29 -71t-71 -29h-123
q-43 0 -72 29t-29 71v1233zM422 299h328q76 0 126 51q50 52 50 127t-50 127q-50 51 -126 51h-328v-356z" />
    <glyph glyph-name="uni042C" unicode="&#x42c;" horiz-adv-x="1329" 
d="M96 1333q0 43 29 72t72 29h122q45 0 74 -29t29 -72v-379h328q217 0 365 -137q147 -137 147 -340q0 -205 -147 -341q-146 -136 -365 -136h-553q-43 0 -72 29t-29 71v1233zM422 299h328q76 0 126 51q50 52 50 127t-50 127q-50 51 -126 51h-328v-356z" />
    <glyph glyph-name="uni042D" unicode="&#x42d;" horiz-adv-x="1554" 
d="M147 1014q-41 17 -54 52q-13 36 11 71q100 151 266 237t365 86q323 0 537 -213q215 -213 215 -530q0 -318 -215 -531q-214 -213 -537 -213q-199 0 -365 86q-165 85 -266 238q-24 35 -11 71q13 35 54 52l152 57q12 6 29 6q45 0 82 -43q122 -155 325 -155q142 0 249 82
q109 83 149 215h-414q-41 0 -67 26q-27 27 -27 68v96q0 40 27 67t67 27h407q-40 127 -147 205t-244 78q-202 0 -325 -156q-37 -43 -82 -43q-17 0 -29 6z" />
    <glyph glyph-name="uni042E" unicode="&#x42e;" horiz-adv-x="2162" 
d="M197 0q-43 0 -72 29t-29 71v1233q0 43 29 72t72 29h122q45 0 74 -29t29 -72v-459h184q52 258 256 422q203 164 481 164q323 0 537 -213q215 -213 215 -530q0 -318 -215 -531q-214 -213 -537 -213q-284 0 -488 168t-251 434h-182v-475q0 -42 -29 -71t-74 -29h-122z
M928 717q0 -185 119 -309q119 -123 296 -123t295 123q119 124 119 309t-119 309q-119 123 -295 123q-177 0 -296 -123q-119 -124 -119 -309z" />
    <glyph glyph-name="uni042F" unicode="&#x42f;" horiz-adv-x="1380" 
d="M172 0q-41 0 -57 25q-15 24 6 63l260 444q-126 56 -203 170q-76 112 -76 256q0 202 147 339q148 137 363 137h572q42 0 71 -29t29 -72v-1233q0 -42 -29 -71t-71 -29h-123q-45 0 -74 29t-29 71v383h-241l-234 -397q-21 -37 -64 -61q-45 -25 -87 -25h-160zM440 958
q0 -76 49 -125q51 -51 123 -51h346v353h-346q-72 0 -123 -51q-49 -49 -49 -126z" />
    <glyph glyph-name="uni0430" unicode="&#x430;" horiz-adv-x="1234" 
d="M547 -27q-211 0 -352 161q-142 162 -142 398q0 240 142 400t352 160q175 0 305 -113q4 37 33 61q30 25 67 25h97q41 0 72 -29q30 -29 30 -71v-865q0 -42 -30 -71q-31 -29 -72 -29h-97q-37 0 -67 25q-29 24 -33 63q-132 -115 -305 -115zM610 788q-100 0 -169 -73
q-68 -72 -68 -180q0 -113 68 -185q69 -74 169 -74q99 0 168 74q70 75 70 185q0 105 -70 180q-69 73 -168 73z" />
    <glyph glyph-name="uni0431" unicode="&#x431;" horiz-adv-x="1298" 
d="M1010 1260q-4 0 -108 -11q-24 -3 -56 -6t-49 -5t-27 -3q-381 -40 -405 -299q117 156 337 156q222 0 379 -163q158 -164 158 -401q0 -236 -160 -396q-159 -159 -399 -159q-260 0 -434 201t-174 592q0 355 165 544q165 188 525 226q133 14 248 27q100 0 100 -93v-98
q0 -45 -29 -77q-28 -31 -71 -35zM434 532q0 -110 72 -185t176 -75q102 0 174 75t72 185q0 111 -72 186t-174 75q-104 0 -176 -75t-72 -186z" />
    <glyph glyph-name="uni0432" unicode="&#x432;" horiz-adv-x="1126" 
d="M190 0q-42 0 -71 29t-29 71v865q0 42 29 71t71 29h486q154 0 257 -85t103 -210q0 -121 -92 -207q141 -88 141 -235q0 -143 -104 -235q-105 -93 -264 -93h-527zM389 272h311q34 0 56 24q22 23 22 58q0 36 -22 59t-56 23h-311v-164zM389 653h279q30 0 50 20q19 19 19 50
t-19 50q-20 20 -50 20h-279v-140z" />
    <glyph glyph-name="uni0433" unicode="&#x433;" horiz-adv-x="811" 
d="M90 965q0 42 29 71t71 29h502q45 0 74 -29t29 -71v-84q0 -43 -29 -72t-74 -29h-303v-680q0 -42 -29 -71t-71 -29h-99q-42 0 -71 29t-29 71v865z" />
    <glyph glyph-name="uni0434" unicode="&#x434;" horiz-adv-x="1378" 
d="M125 -307q-46 0 -74 28t-28 72v393q0 44 28 72q29 29 74 29h72q51 79 51 348v330q0 43 28 71q29 29 72 29h719q43 0 72 -29q28 -28 28 -71v-678h86q45 0 74 -29t29 -72v-393q0 -43 -29 -72q-28 -28 -74 -28h-96q-44 0 -72 28t-28 72v207h-735v-207q0 -43 -29 -72
q-28 -28 -72 -28h-96zM500 287h368v493h-321v-170q0 -191 -47 -323z" />
    <glyph glyph-name="uni0435" unicode="&#x435;" horiz-adv-x="1220" 
d="M1069 422h-692q27 -84 96 -135t164 -51q103 0 174 59q33 27 70 27q7 0 16 -3l150 -34q43 -10 55 -42t-15 -65q-166 -205 -452 -205q-248 0 -416 160q-166 159 -166 399q0 238 162 399q163 161 403 161q247 0 407 -166q161 -168 157 -404q0 -40 -33 -70t-80 -30zM868 649
q-28 81 -96 131q-67 49 -154 49q-82 0 -147 -49t-92 -131h489z" />
    <glyph glyph-name="uni0436" unicode="&#x436;" horiz-adv-x="1650" 
d="M115 0q-45 0 -58 25q-12 23 13 59l329 467l-282 430q-25 36 -12 59q14 25 57 25h147q41 0 88 -25q45 -24 68 -59l211 -315v299q0 42 29 71t73 29h96q43 0 72 -29t29 -71v-299l211 315q24 35 68 59q45 25 87 25h150q43 0 55 -25t-10 -59l-285 -430l330 -467q24 -35 12 -59
q-13 -25 -55 -25h-154q-41 0 -88 25q-44 24 -69 59l-252 358v-342q0 -42 -29 -71t-72 -29h-96q-44 0 -73 29t-29 71v342l-250 -358q-28 -35 -72 -59q-47 -25 -88 -25h-151z" />
    <glyph glyph-name="uni0437" unicode="&#x437;" horiz-adv-x="1089" 
d="M135 324l154 38q9 3 14 3q29 0 62 -33q53 -72 176 -72q83 0 139 30q55 30 55 75q0 29 -23 49t-59 20h-166q-28 0 -47 19q-18 18 -18 47v86q0 29 18 47t47 18h154q33 0 54 18q22 19 22 44q0 39 -50 66q-51 28 -122 28q-121 0 -174 -72q-33 -33 -62 -33q-5 0 -14 3l-154 38
q-44 10 -62 47q-18 36 3 70q66 107 192 169q128 63 285 63q201 0 335 -95t134 -233q0 -133 -117 -217q136 -86 136 -232q0 -143 -142 -243q-141 -99 -356 -99q-160 0 -286 62q-123 61 -187 170q-21 34 -3 70q19 37 62 49z" />
    <glyph glyph-name="uni0438" unicode="&#x438;" horiz-adv-x="1200" 
d="M90 965q0 42 29 71t71 29h99q42 0 71 -29t29 -71v-465l414 493q24 29 68 50q46 22 83 22h54q44 0 73 -29t29 -71v-865q0 -42 -29 -71t-73 -29h-97q-42 0 -71 29t-29 71v457l-414 -485q-61 -72 -153 -72h-54q-42 0 -71 29t-29 71v865z" />
    <glyph glyph-name="uni0439" unicode="&#x439;" horiz-adv-x="1200" 
d="M90 965q0 42 29 71t71 29h99q42 0 71 -29t29 -71v-465l414 493q24 29 68 50q46 22 83 22h54q44 0 73 -29t29 -71v-865q0 -42 -29 -71t-73 -29h-97q-42 0 -71 29t-29 71v457l-414 -485q-61 -72 -153 -72h-54q-42 0 -71 29t-29 71v865zM240 1444q-5 29 13 48t48 19h98
q50 0 74 -59q35 -86 127 -86t127 86q22 59 72 59h98q31 0 49 -19q19 -21 15 -48q-23 -130 -123 -213q-100 -82 -238 -82t-238 82q-99 82 -122 213z" />
    <glyph glyph-name="uni043A" unicode="&#x43a;" horiz-adv-x="1138" 
d="M190 0q-42 0 -71 29t-29 71v865q0 42 29 71t71 29h99q42 0 71 -29t29 -71v-342l270 362q27 35 72 57q46 23 88 23h160q43 0 55 -23t-14 -57l-320 -434l365 -471q26 -34 14 -57t-55 -23h-164q-43 0 -91 23q-47 23 -71 57l-309 401v-381q0 -42 -29 -71t-71 -29h-99z" />
    <glyph glyph-name="uni043B" unicode="&#x43b;" horiz-adv-x="1206" 
d="M82 0q-27 0 -45 18q-19 19 -19 45v160q0 26 19 45t45 19h6q59 0 89 67q30 68 30 271v340q0 42 29 71t71 29h709q42 0 71 -29t29 -71v-865q0 -42 -29 -71t-71 -29h-98q-43 0 -72 29t-29 71v680h-311v-223q0 -290 -107 -424q-106 -133 -288 -133h-29z" />
    <glyph glyph-name="uni043C" unicode="&#x43c;" horiz-adv-x="1411" 
d="M190 0q-42 0 -71 29t-29 71v865q0 42 29 71t71 29h99q42 0 87 -25q43 -24 64 -63l265 -457l266 457q21 39 64 63q45 25 87 25h97q44 0 73 -29t29 -71v-865q0 -42 -29 -71t-73 -29h-97q-42 0 -71 29t-29 71v408l-195 -334q-29 -51 -88 -51h-67q-24 0 -51 15t-39 36
l-193 334v-408q0 -42 -29 -71t-71 -29h-99z" />
    <glyph glyph-name="uni043D" unicode="&#x43d;" horiz-adv-x="1202" 
d="M190 0q-42 0 -71 29t-29 71v865q0 42 29 71t71 29h99q42 0 71 -29t29 -71v-281h424v281q0 42 29 71t71 29h99q42 0 71 -29t29 -71v-865q0 -42 -29 -71t-71 -29h-99q-42 0 -71 29t-29 71v297h-424v-297q0 -42 -29 -71t-71 -29h-99z" />
    <glyph glyph-name="uni043E" unicode="&#x43e;" 
d="M53 532q0 239 163 399q164 161 407 161q242 0 406 -161q163 -160 163 -399q0 -238 -163 -398q-164 -161 -406 -161q-243 0 -407 161q-163 160 -163 398zM373 532q0 -110 71 -182q72 -74 179 -74q105 0 177 75t72 181q0 107 -72 182q-71 74 -177 74q-107 0 -179 -73
q-71 -72 -71 -183z" />
    <glyph glyph-name="uni043F" unicode="&#x43f;" horiz-adv-x="1179" 
d="M190 0q-42 0 -71 29t-29 71v865q0 42 29 71t71 29h797q45 0 74 -29t29 -71v-865q0 -42 -29 -71t-74 -29h-96q-43 0 -72 29q-28 28 -28 71v680h-402v-680q0 -42 -29 -71t-71 -29h-99z" />
    <glyph glyph-name="uni0440" unicode="&#x440;" horiz-adv-x="1234" 
d="M86 965q0 42 29 71t71 29h99q38 0 66 -25t34 -61q130 113 303 113q212 0 354 -160t142 -400q0 -237 -143 -398t-353 -161q-173 0 -303 113v-446q0 -43 -29 -72t-71 -29h-99q-42 0 -71 29t-29 72v1325zM627 788q-100 0 -169 -73t-69 -185q0 -106 69 -180t169 -74
q99 0 168 74t69 180q0 112 -69 185t-168 73z" />
    <glyph glyph-name="uni0441" unicode="&#x441;" horiz-adv-x="1191" 
d="M1065 698l-143 -43q-15 -4 -23 -4q-46 0 -84 47q-73 90 -192 90q-107 0 -179 -72q-71 -71 -71 -181q0 -113 71 -185q72 -74 179 -74q118 0 192 91q38 47 84 47q8 0 23 -4l143 -43q42 -12 59 -49q16 -36 -6 -70q-73 -127 -205 -201q-131 -74 -290 -74q-243 0 -407 161
q-163 160 -163 398q0 241 163 400q165 160 407 160q159 0 290 -74q132 -74 205 -201q23 -35 6 -71t-59 -48z" />
    <glyph glyph-name="uni0442" unicode="&#x442;" horiz-adv-x="999" 
d="M16 975q0 38 26 64t64 26h785q37 0 65 -26q27 -26 27 -64v-105q0 -38 -27 -64q-28 -26 -65 -26h-242v-680q0 -43 -28 -71q-29 -29 -72 -29h-98q-43 0 -72 29t-29 71v680h-244q-38 0 -64 26t-26 64v105z" />
    <glyph glyph-name="uni0443" unicode="&#x443;" horiz-adv-x="1130" 
d="M49 971q-16 40 2 67t64 27h114q43 0 81 -27q37 -27 52 -67l199 -563l207 563q15 40 53 66q40 28 82 28h115q43 0 61 -27t2 -67l-415 -1082q-66 -171 -173 -249q-109 -81 -278 -97q-45 0 -73 26q-27 25 -27 71v100q0 40 26 66q27 28 68 32q151 16 201 154l6 16z" />
    <glyph glyph-name="uni0444" unicode="&#x444;" horiz-adv-x="1650" 
d="M68 532q0 245 161 407q162 163 406 163q25 0 41 -2v336q0 42 29 71t71 29h98q43 0 72 -29t29 -71v-336q20 2 41 2q243 0 406 -163t163 -407q0 -243 -163 -406t-406 -163q-21 0 -41 2v-325q0 -43 -29 -72t-72 -29h-98q-42 0 -71 29t-29 72v325q-16 -2 -41 -2
q-242 0 -405 163q-162 162 -162 406zM379 532q0 -113 73 -192q72 -78 181 -78q22 0 43 4v533q-21 4 -43 4q-109 0 -181 -78q-73 -79 -73 -193zM975 799v-533q25 -4 43 -4q109 0 181 78q73 79 73 192q0 114 -73 193q-72 78 -181 78q-18 0 -43 -4z" />
    <glyph glyph-name="uni0445" unicode="&#x445;" horiz-adv-x="1169" 
d="M115 0q-45 0 -57 24q-11 22 14 58l329 467l-307 434q-26 34 -14 58t55 24h158q42 0 87 -25t69 -59l135 -193l137 193q23 35 66 59q45 25 87 25h158q43 0 55 -24t-12 -58l-307 -434l330 -467q24 -34 12 -58t-55 -24h-156q-43 0 -88 24q-48 26 -70 60l-157 225l-158 -225
q-23 -35 -68 -59q-47 -25 -88 -25h-155z" />
    <glyph glyph-name="uni0446" unicode="&#x446;" horiz-adv-x="1288" 
d="M190 0q-42 0 -71 29t-29 71v865q0 42 29 71t71 29h99q42 0 71 -29t29 -71v-678h391v678q0 42 29 71t72 29h96q45 0 74 -29q28 -28 28 -71v-678h86q43 0 72 -29t29 -72v-393q0 -43 -29 -72q-28 -28 -72 -28h-98q-44 0 -72 28t-28 72v207h-777z" />
    <glyph glyph-name="uni0447" unicode="&#x447;" horiz-adv-x="1118" 
d="M57 965q0 42 29 71t72 29h110q43 0 72 -29t29 -71v-228q0 -100 149 -100q48 0 211 16v312q0 42 29 71t71 29h99q42 0 71 -29t29 -71v-865q0 -42 -29 -71t-71 -29h-99q-42 0 -71 29t-29 71v267q-178 -17 -229 -17q-203 0 -323 105t-120 268v242z" />
    <glyph glyph-name="uni0448" unicode="&#x448;" horiz-adv-x="1712" 
d="M190 0q-42 0 -71 29t-29 71v865q0 42 29 71t71 29h99q42 0 71 -29t29 -71v-678h318v678q0 43 28 71q29 29 72 29h96q45 0 74 -29t29 -71v-678h317v678q0 42 29 71t71 29h97q44 0 73 -29t29 -71v-865q0 -42 -29 -71t-73 -29h-1330z" />
    <glyph glyph-name="uni0449" unicode="&#x449;" horiz-adv-x="1830" 
d="M190 0q-42 0 -71 29t-29 71v865q0 42 29 71t71 29h99q42 0 71 -29t29 -71v-678h318v678q0 43 28 71q29 29 72 29h96q45 0 74 -29t29 -71v-678h317v678q0 42 29 71t71 29h97q44 0 73 -29t29 -71v-678h86q43 0 72 -29q28 -28 28 -72v-393q0 -44 -28 -72t-72 -28h-98
q-44 0 -72 28q-29 29 -29 72v207h-1319z" />
    <glyph glyph-name="uni044A" unicode="&#x44a;" horiz-adv-x="1343" 
d="M12 881v84q0 42 29 71t74 29h436q43 0 72 -29q28 -28 28 -71v-213h271q165 0 276 -108t111 -267q0 -161 -111 -269t-276 -108h-467q-42 0 -73 29q-30 29 -30 71v680h-237q-45 0 -74 29t-29 72zM918 465h-267v-178h267q35 0 57 25t22 65q0 38 -23 62q-24 26 -56 26z" />
    <glyph glyph-name="uni044B" unicode="&#x44b;" horiz-adv-x="1517" 
d="M90 965q0 42 29 71t71 29h99q42 0 71 -29t29 -71v-213h268q166 0 277 -108q110 -107 110 -267q0 -165 -109 -271t-278 -106h-467q-42 0 -71 29t-29 71v865zM1128 100v865q0 42 29 71t72 29h98q43 0 72 -29q28 -28 28 -71v-865q0 -43 -28 -71q-29 -29 -72 -29h-98
q-43 0 -72 29t-29 71zM389 287h266q34 0 56 25t22 65q0 37 -22 62q-23 26 -56 26h-266v-178z" />
    <glyph glyph-name="uni044C" unicode="&#x44c;" horiz-adv-x="1081" 
d="M90 965q0 42 29 71t71 29h99q42 0 71 -29t29 -71v-213h268q166 0 277 -108q110 -107 110 -267q0 -165 -109 -271t-278 -106h-467q-42 0 -71 29t-29 71v865zM655 465h-266v-178h266q34 0 56 25t22 65q0 37 -22 62q-23 26 -56 26z" />
    <glyph glyph-name="uni044D" unicode="&#x44d;" horiz-adv-x="1202" 
d="M133 707q-45 12 -60 48t7 70q74 125 205 196t288 71q242 0 407 -160q163 -159 163 -400q0 -240 -163 -399q-165 -160 -407 -160q-157 0 -288 72q-132 73 -205 197q-22 34 -7 69t60 47l133 41q15 4 25 4q47 0 86 -45q77 -86 196 -86q79 0 142 42q64 43 94 112h-266
q-31 0 -51 20q-21 21 -21 52v84q0 30 21 51q20 20 51 20h258q-31 65 -92 102q-62 38 -136 38q-121 0 -194 -84q-41 -47 -88 -47q-10 0 -25 4z" />
    <glyph glyph-name="uni044E" unicode="&#x44e;" horiz-adv-x="1705" 
d="M90 965q0 42 29 71t71 29h99q42 0 71 -29t29 -71v-281h166q46 182 194 295t345 113q239 0 399 -160t160 -400q0 -239 -160 -399t-399 -160q-204 0 -352 118t-191 306h-162v-297q0 -42 -29 -71t-71 -29h-99q-42 0 -71 29t-29 71v865zM1094 793q-104 0 -175 -75
q-71 -76 -71 -186q0 -109 71 -185q71 -75 175 -75t175 75q70 74 70 185q0 112 -70 186q-71 75 -175 75z" />
    <glyph glyph-name="uni044F" unicode="&#x44f;" horiz-adv-x="1153" 
d="M143 0q-43 0 -55 24t12 58l191 266q-101 45 -159 135q-58 89 -58 205q0 162 110 269q111 108 279 108h500q42 0 71 -29t29 -71v-865q0 -42 -29 -71t-71 -29h-97q-41 0 -72 29q-30 28 -30 71v211h-150l-161 -229q-26 -34 -72 -58q-45 -24 -88 -24h-150zM467 780
q-35 0 -58 -26q-24 -27 -24 -66q0 -38 24 -64t58 -26h297v182h-297z" />
    <glyph glyph-name="uni0450" unicode="&#x450;" horiz-adv-x="1220" 
d="M1069 422h-692q27 -84 96 -135t164 -51q103 0 174 59q33 27 70 27q7 0 16 -3l150 -34q43 -10 55 -42t-15 -65q-166 -205 -452 -205q-248 0 -416 160q-166 159 -166 399q0 238 162 399q163 161 403 161q247 0 407 -166q161 -168 157 -404q0 -40 -33 -70t-80 -30zM868 649
q-28 81 -96 131q-67 49 -154 49q-82 0 -147 -49t-92 -131h489zM295 1470l45 82q24 47 74 47q23 0 45 -14l307 -194q24 -16 28 -37q5 -23 -10 -45l-34 -64q-21 -33 -58 -33q-12 0 -26 7l-332 139q-34 15 -46 47q-11 31 7 65z" />
    <glyph glyph-name="uni0451" unicode="&#x451;" horiz-adv-x="1220" 
d="M1069 422h-692q27 -84 96 -135t164 -51q103 0 174 59q33 27 70 27q7 0 16 -3l150 -34q43 -10 55 -42t-15 -65q-166 -205 -452 -205q-248 0 -416 160q-166 159 -166 399q0 238 162 399q163 161 403 161q247 0 407 -166q161 -168 157 -404q0 -40 -33 -70t-80 -30zM868 649
q-28 81 -96 131q-67 49 -154 49q-82 0 -147 -49t-92 -131h489zM242 1346q0 69 46 115t115 46q70 0 116 -46t46 -115q0 -70 -46 -116t-116 -46q-69 0 -115 46t-46 116zM678 1346q0 69 46 115t114 46q70 0 116 -46q47 -47 47 -115q0 -69 -47 -116q-46 -46 -116 -46
q-68 0 -114 46t-46 116z" />
    <glyph glyph-name="uni0452" unicode="&#x452;" horiz-adv-x="1206" 
d="M80 1174q-29 0 -49 20q-21 21 -21 49v70q0 28 21 49q20 20 49 20h20v54q0 42 30 71q31 29 73 29h104q43 0 72 -29t29 -71v-54h249q30 0 49 -20t19 -49v-70q0 -29 -19 -49t-49 -20h-249v-220q114 138 299 138q175 0 294 -117t119 -291v-790q0 -320 -409 -353
q-37 -1 -63 23q-25 24 -25 61v121q0 74 88 90q102 12 102 101v665q0 88 -57 147q-57 58 -144 58q-88 0 -146 -58t-58 -147v-502q0 -42 -29 -71t-72 -29h-104q-42 0 -73 29q-30 28 -30 71v1074h-20z" />
    <glyph glyph-name="uni0453" unicode="&#x453;" horiz-adv-x="806" 
d="M190 0q-42 0 -71 29t-29 71v865q0 42 29 71t71 29h502q45 0 74 -29t29 -71v-84q0 -43 -29 -72t-74 -29h-303v-680q0 -42 -29 -71t-71 -29h-99zM268 1309q-29 52 21 82l305 194q22 14 45 14q50 0 74 -47l47 -82q18 -33 6 -65q-11 -32 -47 -47l-330 -139q-14 -7 -27 -7
q-36 0 -57 33z" />
    <glyph glyph-name="uni0454" unicode="&#x454;" horiz-adv-x="1202" 
d="M629 -27q-242 0 -407 160q-163 159 -163 399q0 241 163 400q165 160 407 160q158 0 289 -71q130 -70 204 -196q22 -34 7 -70t-60 -48l-133 -41q-15 -4 -25 -4q-48 0 -86 47q-78 84 -196 84q-73 0 -135 -38q-63 -38 -93 -102h285q31 0 51 -20q21 -21 21 -51v-84
q0 -31 -21 -52q-20 -20 -51 -20h-293q30 -69 94 -112q63 -42 142 -42q119 0 196 86q39 45 86 45q10 0 25 -4l133 -41q45 -12 60 -47t-7 -69q-74 -125 -204 -197t-289 -72z" />
    <glyph glyph-name="uni0455" unicode="&#x455;" horiz-adv-x="983" 
d="M821 784l-131 -20q-37 0 -78 35q-44 47 -133 47q-121 0 -121 -70q0 -41 84 -71l191 -62q161 -51 232 -129q71 -79 71 -199q0 -168 -120 -255t-318 -87q-335 0 -430 222q-16 36 5 70q21 35 66 42l131 19h4q37 0 70 -39q45 -62 160 -62q61 0 100 21t39 57q0 52 -106 82
l-195 57q-147 40 -215 115q-66 73 -66 193q0 176 119 259t314 83q302 0 397 -193q17 -38 -4 -72q-22 -36 -66 -43z" />
    <glyph glyph-name="uni0456" unicode="&#x456;" horiz-adv-x="479" 
d="M90 100v865q0 42 29 71t71 29h99q42 0 71 -29t29 -71v-865q0 -42 -29 -71t-71 -29h-99q-42 0 -71 29t-29 71zM55 1329q0 79 53 132q52 52 132 52t132 -52t52 -132t-52 -132t-132 -52t-132 52q-53 53 -53 132z" />
    <glyph glyph-name="uni0457" unicode="&#x457;" horiz-adv-x="493" 
d="M94 100v865q0 42 29 71t72 29h104q43 0 72 -29q28 -28 28 -71v-865q0 -43 -28 -71q-29 -29 -72 -29h-104q-43 0 -72 29t-29 71zM-90 1346q0 67 45 112t111 45t109 -45q44 -46 44 -112q0 -67 -44 -113q-43 -45 -109 -45t-111 45t-45 113zM274 1346q0 66 44 112
q43 45 110 45q66 0 111 -45t45 -112q0 -68 -45 -113t-111 -45t-110 45q-44 46 -44 113z" />
    <glyph glyph-name="uni0458" unicode="&#x458;" horiz-adv-x="489" 
d="M401 965v-1071q0 -318 -407 -351q-44 0 -69 24t-25 66v113q0 36 23 59q25 25 63 29q116 12 116 103v1028q0 42 29 71t72 29h96q42 0 73 -29q29 -28 29 -71zM66 1329q0 79 53 132q52 52 133 52q79 0 131 -52q53 -53 53 -132t-53 -132q-52 -52 -131 -52q-81 0 -133 52
q-53 53 -53 132z" />
    <glyph glyph-name="uni0459" unicode="&#x459;" horiz-adv-x="1808" 
d="M82 0q-27 0 -45 18q-19 19 -19 45v160q0 26 19 45t45 19h6q59 0 89 67q30 68 30 271v340q0 42 29 71t71 29h709q42 0 71 -29t29 -71v-213h270q166 0 277 -108t111 -267q0 -161 -111 -269t-277 -108h-468q-43 0 -72 29t-29 71v680h-311v-223q0 -107 -18 -198
q-18 -92 -58 -176t-123 -134q-82 -49 -196 -49h-29zM1116 287h266q34 0 56 25t22 65q0 37 -22 62q-23 26 -56 26h-266v-178z" />
    <glyph glyph-name="uni045A" unicode="&#x45a;" horiz-adv-x="1804" 
d="M190 0q-42 0 -71 29t-29 71v865q0 42 29 71t71 29h99q42 0 71 -29t29 -71v-260h424v260q0 42 29 71t71 29h99q42 0 71 -29t29 -71v-230h268q170 0 278 -104q109 -105 109 -262q0 -159 -109 -264q-110 -105 -278 -105h-467q-42 0 -71 29t-29 71v318h-424v-318
q0 -42 -29 -71t-71 -29h-99zM1378 449h-266v-162h266q34 0 56 23t22 59q0 33 -22 56q-22 24 -56 24z" />
    <glyph glyph-name="uni045B" unicode="&#x45b;" horiz-adv-x="1206" 
d="M10 1313q0 28 21 49q20 20 49 20h20v54q0 42 30 71q31 29 73 29h104q43 0 72 -29t29 -71v-54h249q30 0 49 -20t19 -49v-70q0 -29 -19 -49t-49 -20h-249v-220q114 138 299 138q175 0 294 -117t119 -291v-584q0 -43 -28 -71q-29 -29 -74 -29h-105q-42 0 -71 29t-29 71v502
q0 88 -57 147q-57 58 -144 58q-88 0 -146 -58t-58 -147v-502q0 -42 -29 -71t-72 -29h-104q-42 0 -73 29q-30 28 -30 71v1074h-20q-29 0 -49 20q-21 21 -21 49v70z" />
    <glyph glyph-name="uni045C" unicode="&#x45c;" horiz-adv-x="1138" 
d="M190 0q-42 0 -71 29t-29 71v865q0 42 29 71t71 29h99q42 0 71 -29t29 -71v-342l270 362q27 35 72 57q46 23 88 23h160q43 0 55 -23t-14 -57l-320 -434l365 -471q26 -34 14 -57t-55 -23h-164q-43 0 -91 23q-47 23 -71 57l-309 401v-381q0 -42 -29 -71t-71 -29h-99z
M375 1309q-28 49 18 82l307 194q22 14 45 14q50 0 74 -47l45 -82q18 -34 7 -65q-12 -32 -46 -47l-331 -139q-14 -7 -27 -7q-34 0 -55 33z" />
    <glyph glyph-name="uni045D" unicode="&#x45d;" horiz-adv-x="1200" 
d="M90 965q0 42 29 71t71 29h99q42 0 71 -29t29 -71v-465l414 493q24 29 68 50q46 22 83 22h54q44 0 73 -29t29 -71v-865q0 -42 -29 -71t-73 -29h-97q-42 0 -71 29t-29 71v457l-414 -485q-61 -72 -153 -72h-54q-42 0 -71 29t-29 71v865zM313 1358q-34 15 -46 47q-11 31 7 65
l45 82q23 47 72 47q23 0 45 -14l309 -194q24 -16 28 -37q5 -24 -9 -45l-35 -64q-21 -33 -57 -33q-13 0 -27 7z" />
    <glyph glyph-name="uni045E" unicode="&#x45e;" horiz-adv-x="1130" 
d="M49 971q-16 40 2 67t64 27h114q43 0 81 -27q37 -27 52 -67l199 -563l207 563q15 40 53 66q40 28 82 28h115q43 0 61 -27t2 -67l-415 -1082q-66 -171 -173 -249q-109 -81 -278 -97q-45 0 -73 26q-27 25 -27 71v100q0 40 26 66q27 28 68 32q151 16 201 154l6 16zM207 1444
q-6 26 12 47q17 20 49 20h97q49 0 73 -59q38 -86 129 -86q90 0 125 86q24 59 74 59h96q33 0 51 -19q19 -20 13 -48q-22 -130 -122 -213q-98 -82 -237 -82q-140 0 -238 82q-100 83 -122 213z" />
    <glyph glyph-name="uni045F" unicode="&#x45f;" horiz-adv-x="1169" 
d="M90 965q0 42 29 71t71 29h99q42 0 71 -29t29 -71v-678h391v678q0 42 29 71t72 29h96q45 0 74 -29q28 -28 28 -71v-865q0 -43 -28 -71q-29 -29 -74 -29h-246v-207q0 -43 -29 -72q-28 -28 -73 -28h-97q-43 0 -71 28q-29 29 -29 72v207h-242q-42 0 -71 29t-29 71v865z" />
    <glyph glyph-name="uni0490" unicode="&#x490;" horiz-adv-x="1058" 
d="M96 100v1233q0 43 29 72t72 29h493v194q0 45 29 74t74 29h122q43 0 72 -29t29 -74v-393q0 -43 -29 -72q-28 -28 -72 -28h-493v-1035q0 -42 -29 -71t-74 -29h-122q-43 0 -72 29t-29 71z" />
    <glyph glyph-name="uni0491" unicode="&#x491;" horiz-adv-x="829" 
d="M90 100v865q0 42 29 71t71 29h322v129q0 44 30 72q29 28 72 28h97q43 0 71 -28q29 -29 29 -72v-313q0 -43 -29 -72t-71 -29h-322v-680q0 -42 -29 -71t-71 -29h-99q-42 0 -71 29t-29 71z" />
    <glyph glyph-name="uni04D8" unicode="&#x4d8;" horiz-adv-x="1638" 
d="M246 1212q102 117 252 183q148 65 321 65q322 0 538 -213t216 -530q0 -318 -216 -531t-538 -213q-333 0 -550 228t-201 549q2 41 33 71q33 31 77 31h1045q-43 132 -152 215q-107 82 -252 82q-162 0 -274 -100q-22 -21 -58 -21q-19 0 -26 4l-182 68q-42 16 -52 48
q-10 33 19 64zM819 285q136 0 241 72q104 71 154 196h-788q47 -123 154 -196q106 -72 239 -72z" />
    <glyph glyph-name="uni04D9" unicode="&#x4d9;" horiz-adv-x="1220" 
d="M152 643h692q-27 84 -96 135t-164 51q-103 0 -174 -59q-31 -25 -66 -25q-8 0 -20 3l-150 32q-43 7 -55 41t14 66q166 205 455 205q246 0 413 -161q166 -160 166 -399q0 -238 -161 -398q-163 -161 -402 -161q-247 0 -408 167q-161 168 -157 403q1 40 35 70q33 30 78 30z
M354 416q27 -81 93 -131q65 -49 155 -49q83 0 148 49t92 131h-488z" />
    <glyph glyph-name="Wgrave" unicode="&#x1e80;" horiz-adv-x="2052" 
d="M115 1434h129q41 0 80 -28q35 -25 51 -69l250 -809l243 824q10 34 42 58t69 24h94q37 0 70 -24q34 -25 41 -58l248 -824l245 809q16 43 52 69q39 28 79 28h131q43 0 63 -28t5 -69l-420 -1255q-12 -34 -45 -58t-69 -24h-93q-38 0 -70 24t-42 58l-242 782l-240 -782
q-10 -34 -43 -58t-69 -24h-94q-37 0 -70 24t-43 58l-422 1255q-15 41 5 69t65 28zM700 1819l45 82q24 47 74 47q21 0 45 -15l307 -194q24 -16 28 -37q5 -24 -9 -45l-35 -64q-20 -32 -57 -32q-15 0 -27 6l-332 139q-34 15 -46 47t7 66z" />
    <glyph glyph-name="wgrave" unicode="&#x1e81;" horiz-adv-x="1591" 
d="M115 1065h106q41 0 80 -28q36 -26 47 -68l139 -482l140 482q12 42 49 68q39 28 80 28h80q40 0 79 -28q38 -27 50 -68l139 -482l139 482q11 42 47 68q39 28 80 28h107q42 0 64 -28t7 -68l-276 -873q-16 -43 -51 -68q-39 -28 -80 -28h-78q-41 0 -80 28q-37 26 -49 68
l-137 457l-142 -457q-11 -42 -47 -68q-39 -28 -80 -28h-77q-44 0 -81 28q-36 27 -51 68l-276 873q-15 41 6 68q22 28 66 28zM471 1470l43 82q24 47 74 47q23 0 45 -14l309 -194q47 -33 19 -82l-35 -64q-21 -33 -58 -33q-12 0 -26 7l-332 139q-34 15 -46 47q-11 31 7 65z" />
    <glyph glyph-name="Wacute" unicode="&#x1e82;" horiz-adv-x="2052" 
d="M115 1434h129q41 0 80 -28q35 -25 51 -69l250 -809l243 824q10 34 42 58t69 24h94q37 0 70 -24q34 -25 41 -58l248 -824l245 809q16 43 52 69q39 28 79 28h131q43 0 63 -28t5 -69l-420 -1255q-12 -34 -45 -58t-69 -24h-93q-38 0 -70 24t-42 58l-242 782l-240 -782
q-10 -34 -43 -58t-69 -24h-94q-37 0 -70 24t-43 58l-422 1255q-15 41 5 69t65 28zM874 1739l306 194q24 15 45 15q49 0 73 -47l45 -82q19 -35 8 -66q-12 -32 -46 -47l-330 -139q-12 -6 -27 -6q-37 0 -57 32l-37 64q-29 52 20 82z" />
    <glyph glyph-name="wacute" unicode="&#x1e83;" horiz-adv-x="1591" 
d="M115 1065h106q41 0 80 -28q36 -26 47 -68l139 -482l140 482q12 42 49 68q39 28 80 28h80q40 0 79 -28q38 -27 50 -68l139 -482l139 482q11 42 47 68q39 28 80 28h107q42 0 64 -28t7 -68l-276 -873q-16 -43 -51 -68q-39 -28 -80 -28h-78q-41 0 -80 28q-37 26 -49 68
l-137 457l-142 -457q-11 -42 -47 -68q-39 -28 -80 -28h-77q-44 0 -81 28q-36 27 -51 68l-276 873q-15 41 6 68q22 28 66 28zM643 1391l307 194q22 14 45 14q50 0 74 -47l45 -82q18 -34 7 -65q-12 -32 -46 -47l-332 -139q-14 -7 -26 -7q-37 0 -58 33l-34 64q-15 22 -10 45
q4 21 28 37z" />
    <glyph glyph-name="Wdieresis" unicode="&#x1e84;" horiz-adv-x="2052" 
d="M115 1434h129q41 0 80 -28q35 -25 51 -69l250 -809l243 824q10 34 42 58t69 24h94q37 0 70 -24q34 -25 41 -58l248 -824l245 809q16 43 52 69q39 28 79 28h131q43 0 63 -28t5 -69l-420 -1255q-12 -34 -45 -58t-69 -24h-93q-38 0 -70 24t-42 58l-242 782l-240 -782
q-10 -34 -43 -58t-69 -24h-94q-37 0 -70 24t-43 58l-422 1255q-15 41 5 69t65 28zM1083 1694q0 69 46 115t114 46q71 0 117 -46q47 -47 47 -115q0 -69 -47 -116q-46 -46 -117 -46q-68 0 -114 46t-46 116zM647 1694q0 69 46 115t116 46t116 -46t46 -115q0 -70 -46 -116
t-116 -46t-116 46t-46 116z" />
    <glyph glyph-name="wdieresis" unicode="&#x1e85;" horiz-adv-x="1591" 
d="M115 1065h106q41 0 80 -28q36 -26 47 -68l139 -482l140 482q12 42 49 68q39 28 80 28h80q40 0 79 -28q38 -27 50 -68l139 -482l139 482q11 42 47 68q39 28 80 28h107q42 0 64 -28t7 -68l-276 -873q-16 -43 -51 -68q-39 -28 -80 -28h-78q-41 0 -80 28q-37 26 -49 68
l-137 457l-142 -457q-11 -42 -47 -68q-39 -28 -80 -28h-77q-44 0 -81 28q-36 27 -51 68l-276 873q-15 41 6 68q22 28 66 28zM580 1507q69 0 115 -46t46 -115q0 -70 -46 -116t-115 -46q-71 0 -117 46q-47 47 -47 116q0 68 47 115q46 46 117 46zM852 1346q0 68 47 115
q46 46 115 46q70 0 116 -46q48 -48 48 -115q0 -68 -48 -116q-46 -46 -116 -46q-69 0 -115 46q-47 47 -47 116z" />
    <glyph glyph-name="Germandbls" unicode="&#x1e9e;" horiz-adv-x="1349" 
d="M307 0h-110q-43 0 -72 29t-29 71v783q0 235 165 393q166 158 413 158h512q26 0 45 -19q18 -18 18 -45v-86q0 -60 -30 -117l-158 -272q102 -41 169 -156q66 -114 66 -247q0 -198 -154 -342q-153 -143 -399 -170q-47 0 -74 24q-28 25 -28 70v110q0 41 28 72t72 41
q98 16 160 71q62 54 62 128t-67 132q-64 56 -175 74q-44 7 -59 35q-15 27 8 62l196 336h-176q-121 0 -201 -74q-79 -73 -79 -184v-777q0 -42 -30 -71q-31 -29 -73 -29z" />
    <glyph glyph-name="Ygrave" unicode="&#x1ef2;" horiz-adv-x="1429" 
d="M115 1434h170q42 0 86 -26q42 -25 65 -60l273 -455l284 455q22 36 67 61t87 25h170q42 0 56 -25q13 -24 -11 -59l-490 -752v-498q0 -43 -28 -71q-29 -29 -72 -29h-123q-42 0 -71 29t-29 71v490l-481 758q-23 38 -11 61q13 25 58 25zM391 1819l43 82q24 47 74 47
q21 0 45 -15l307 -194q50 -30 21 -82l-37 -64q-20 -32 -58 -32q-14 0 -26 6l-330 139q-34 15 -46 47t7 66z" />
    <glyph glyph-name="ygrave" unicode="&#x1ef3;" horiz-adv-x="1130" 
d="M49 971q-16 40 2 67t64 27h114q43 0 81 -27q37 -27 52 -67l199 -563l207 563q15 40 53 66q40 28 82 28h115q43 0 61 -27t2 -67l-415 -1082q-66 -171 -173 -249q-109 -81 -278 -97q-45 0 -73 26q-27 25 -27 71v100q0 40 26 66q27 28 68 32q151 16 201 154l6 16zM279 1358
q-36 15 -47 47q-11 30 8 65l45 82q24 47 73 47q23 0 45 -14l308 -194q23 -15 27 -37q5 -24 -9 -45l-35 -64q-21 -33 -57 -33q-13 0 -27 7z" />
    <glyph glyph-name="figuredash" unicode="&#x2012;" horiz-adv-x="1228" 
d="M199 854h831q37 0 62 -25q24 -24 24 -61v-100q0 -38 -24 -62t-62 -24h-831q-38 0 -62 24t-24 62v100q0 37 24 61q25 25 62 25z" />
    <glyph glyph-name="endash" unicode="&#x2013;" horiz-adv-x="1228" 
d="M199 670h831q37 0 62 -25q24 -24 24 -61v-101q0 -37 -24 -61q-25 -25 -62 -25h-831q-37 0 -62 25q-24 24 -24 61v101q0 37 24 61q25 25 62 25z" />
    <glyph glyph-name="emdash" unicode="&#x2014;" horiz-adv-x="2048" 
d="M199 670h1650q37 0 62 -25q24 -24 24 -61v-101q0 -37 -24 -61q-25 -25 -62 -25h-1650q-37 0 -62 25q-24 24 -24 61v101q0 37 24 61q25 25 62 25z" />
    <glyph glyph-name="quoteleft" unicode="&#x2018;" horiz-adv-x="481" 
d="M274 1550q16 11 31 11q25 0 37 -17l29 -28q27 -30 -2 -64q-86 -86 -86 -131q60 -10 98 -59q39 -50 39 -113q0 -72 -48 -120t-122 -48q-84 0 -137 65q-54 66 -54 160q0 112 68 201q66 86 147 143z" />
    <glyph glyph-name="quoteright" unicode="&#x2019;" horiz-adv-x="481" 
d="M207 993q-11 -8 -29 -8q-27 0 -41 14l-26 29q-29 34 0 64q88 94 88 133q-60 11 -100 59q-40 49 -40 113q0 72 50 119t122 47q84 0 137 -65q52 -64 52 -159q0 -190 -213 -346z" />
    <glyph glyph-name="quotesinglbase" unicode="&#x201a;" horiz-adv-x="481" 
d="M207 -254q-11 -8 -29 -8q-27 0 -41 14l-26 29q-29 30 0 63q88 94 88 133q-59 10 -100 60q-40 49 -40 113q0 71 50 118t122 47q85 0 137 -63q52 -62 52 -160q0 -196 -213 -346z" />
    <glyph glyph-name="quotereversed" unicode="&#x201b;" horiz-adv-x="481" 
d="M369 1104q30 -34 2 -62l-29 -28q-17 -17 -39 -17q-9 0 -29 9q-215 147 -215 337q0 92 54 157q52 63 137 63q73 0 122 -47q48 -46 48 -119q0 -63 -39 -113q-38 -49 -98 -59q0 -38 86 -121z" />
    </font>
</defs>
</svg>
